<?xml version="1.0" encoding="utf-8"?>
<!-- Generator: Adobe Illustrator 21.0.2, SVG Export Plug-In . SVG Version: 6.00 Build 0)  -->
<svg version="1.1" id="Layer_1" xmlns="http://www.w3.org/2000/svg" xmlns:xlink="http://www.w3.org/1999/xlink" x="0px" y="0px"
	 viewBox="0 0 34 33" style="enable-background:new 0 0 34 33;" xml:space="preserve">
<style type="text/css">
	.st0{fill:#006838;}
	.st1{fill:url(#SVGID_1_);}
	.st2{fill:#FFFFFF;}
</style>
<g>
	<g>
		<g>
			<path class="st0" d="M0.4,16.3C0.4,11.8,2,8,5.1,4.8C8.3,1.6,12.2,0,16.6,0c4.5,0,8.4,1.6,11.6,4.8c3.2,3.2,4.8,7,4.8,11.6
				c0,4.5-1.6,8.4-4.8,11.5c-3.2,3.2-7,4.8-11.5,4.8c-4.5,0-8.3-1.6-11.5-4.8C2,24.6,0.4,20.8,0.4,16.3z"/>
			
				<linearGradient id="SVGID_1_" gradientUnits="userSpaceOnUse" x1="-1485.048" y1="785.4922" x2="-1458.1974" y2="785.4922" gradientTransform="matrix(0 1 -1 0 802.1533 1486.3174)">
				<stop  offset="0" style="stop-color:#FFFFFF;stop-opacity:0.5"/>
				<stop  offset="1" style="stop-color:#FFFFFF;stop-opacity:0"/>
			</linearGradient>
			<path class="st1" d="M3.2,14.7c0-3.7,1.3-6.7,4-9.4c2.7-2.7,5.7-4,9.5-4c3.8,0,6.8,1.3,9.5,3.9c2.7,2.7,4,5.7,4,9.4
				c0,3.8-1.2,6.9-3.9,9.6c-2.7,2.7-5.7,3.9-9.6,3.9c-3.8,0-6.8-1.3-9.5-4C4.5,21.5,3.2,18.4,3.2,14.7z"/>
		</g>
	</g>
	<g>
		<g>
			<path class="st2" d="M17.6,9.5l4.9,11.2h-2.3l-1.2-2.7h-5l-1.1,2.7h-2.3l4.6-11.2H17.6z M14.8,16.3h3.6l-1.9-4.4L14.8,16.3z"/>
		</g>
	</g>
</g>
</svg>
