<?xml version="1.0" encoding="utf-8"?>
<!-- Generator: Adobe Illustrator 21.0.2, SVG Export Plug-In . SVG Version: 6.00 Build 0)  -->
<svg version="1.1" id="Layer_1" xmlns="http://www.w3.org/2000/svg" xmlns:xlink="http://www.w3.org/1999/xlink" x="0px" y="0px"
	 viewBox="0 0 76 43" style="enable-background:new 0 0 76 43;" xml:space="preserve">
<style type="text/css">
	.st0{fill:#575251;}
	.st1{fill:#39B54A;}
</style>
<g>
	<g>
		<path class="st0" d="M17.2,1.2V5H6.6v6.6h10.6v3.9H6.6v11.2H1.6V1.2H17.2z"/>
		<path class="st0" d="M33.5,1.2l11.3,25.5h-5.2l-2.7-6.2H25.6l-2.5,6.2H18L28.5,1.2H33.5z M27.1,16.8h8.2L31,6.6L27.1,16.8z"/>
		<path class="st0" d="M60,0.9c2.6,0,4.9,0.6,7,1.7c2.1,1.1,3.8,2.7,5,4.7c1.2,2,1.8,4.2,1.8,6.6c0,1.9-0.4,3.8-1.2,5.5
			s-2,3.2-3.5,4.5S65.9,26,64,26.5l0,0.3c2.7,1.3,5.2,1.9,7.3,1.9c0.8,0,1.5-0.1,2.2-0.3l0.1,0.2l-4.1,3.7
			c-4.1-0.3-8.6-2.1-13.3-5.6c-2-0.4-3.8-1.2-5.4-2.4c-1.6-1.2-2.9-2.8-3.8-4.6c-0.9-1.8-1.3-3.7-1.3-5.6c0-2.4,0.6-4.6,1.8-6.7
			c1.2-2.1,2.9-3.7,5.1-4.8C54.7,1.4,57.2,0.9,60,0.9z M50.8,14c0,2.6,0.8,4.7,2.5,6.4c1.7,1.6,3.9,2.4,6.6,2.4
			c1.7,0,3.2-0.4,4.6-1.1c1.4-0.8,2.4-1.8,3.2-3.1c0.8-1.3,1.1-2.8,1.1-4.5c0-1.7-0.4-3.2-1.1-4.6c-0.8-1.4-1.8-2.4-3.2-3.2
			c-1.4-0.8-2.9-1.1-4.6-1.1c-2.7,0-4.9,0.8-6.6,2.4C51.6,9.2,50.8,11.3,50.8,14z"/>
	</g>
</g>
<rect x="0.8" y="39.1" class="st1" width="74.5" height="3.4"/>
</svg>
