<?xml version="1.0" encoding="utf-8"?>
<!-- Generator: Adobe Illustrator 21.0.2, SVG Export Plug-In . SVG Version: 6.00 Build 0)  -->
<svg version="1.1" id="Layer_1" xmlns="http://www.w3.org/2000/svg" xmlns:xlink="http://www.w3.org/1999/xlink" x="0px" y="0px"
	 viewBox="0 0 185.6 83.5" style="enable-background:new 0 0 185.6 83.5;" xml:space="preserve">
<style type="text/css">
	.st0{fill:url(#SVGID_1_);}
	.st1{fill:url(#SVGID_2_);}
	.st2{fill:none;}
	.st3{fill:#FFFFFF;}
	.st4{font-family:'GillSans';}
	.st5{font-size:33.0927px;}
</style>
<g>
	<linearGradient id="SVGID_1_" gradientUnits="userSpaceOnUse" x1="0" y1="41.7363" x2="185.5647" y2="41.7363">
		<stop  offset="0" style="stop-color:#62C470"/>
		<stop  offset="1" style="stop-color:#39B54A"/>
	</linearGradient>
	<path class="st0" d="M161.8,83.5h-138C10.7,83.5,0,72.8,0,59.7V23.8C0,10.7,10.7,0,23.8,0h138c13.1,0,23.8,10.7,23.8,23.8v35.9
		C185.6,72.8,174.9,83.5,161.8,83.5z"/>
	<linearGradient id="SVGID_2_" gradientUnits="userSpaceOnUse" x1="92.7822" y1="7.3893" x2="92.7822" y2="63.8419">
		<stop  offset="0" style="stop-color:#FFFFFF;stop-opacity:0.6"/>
		<stop  offset="1" style="stop-color:#FFFFFF;stop-opacity:0"/>
	</linearGradient>
	<path class="st1" d="M23.8,71.2C15.6,71.2,9,64.6,9,56.4V20.5c0-8.2,6.6-14.8,14.8-14.8h138c8.2,0,14.8,6.6,14.8,14.8v35.9
		c0,8.2-6.6,14.8-14.8,14.8H23.8z"/>
	<rect x="18.7" y="29.3" class="st2" width="148.1" height="43"/>
	<text transform="matrix(1 0 0 1 18.7176 51.8814)" class="st3 st4 st5">Click Here</text>
</g>
</svg>
