<?xml version="1.0" encoding="utf-8"?>
<!-- Generator: Adobe Illustrator 21.0.2, SVG Export Plug-In . SVG Version: 6.00 Build 0)  -->
<svg version="1.1" id="Layer_1" xmlns="http://www.w3.org/2000/svg" xmlns:xlink="http://www.w3.org/1999/xlink" x="0px" y="0px"
	 viewBox="0 0 50 14" style="enable-background:new 0 0 50 14;" xml:space="preserve">
<style type="text/css">
	.st0{fill:none;enable-background:new    ;}
	.st1{fill:#575251;}
</style>
<path class="st0" d="z"/>
<g>
	<g>
		<path class="st1" d="M3.9,1.5v4.6h5.7V1.5h2.1v10.9H9.6V7.8H3.9v4.6H1.8V1.5H3.9z"/>
		<path class="st1" d="M19.7,1.4c1.1,0,2.1,0.2,3.1,0.7c0.9,0.5,1.6,1.1,2.2,2C25.4,5,25.7,6,25.7,7c0,1-0.3,2-0.8,2.8
			c-0.5,0.9-1.2,1.5-2.2,2c-0.9,0.5-1.9,0.7-3.1,0.7c-1.1,0-2.2-0.2-3.1-0.7c-0.9-0.5-1.6-1.2-2.2-2C13.9,9,13.7,8,13.7,7
			c0-1,0.3-1.9,0.8-2.8c0.5-0.9,1.2-1.6,2.1-2.1C17.5,1.6,18.5,1.4,19.7,1.4z M15.8,7c0,0.7,0.2,1.4,0.5,2s0.8,1,1.4,1.3
			c0.6,0.3,1.2,0.5,2,0.5c1.1,0,2-0.4,2.8-1.1C23.2,9,23.5,8.1,23.5,7c0-0.7-0.2-1.4-0.5-2c-0.3-0.6-0.8-1-1.4-1.3
			c-0.6-0.3-1.3-0.5-2-0.5c-0.7,0-1.4,0.2-2,0.5c-0.6,0.3-1,0.8-1.4,1.3C16,5.6,15.8,6.3,15.8,7z"/>
		<path class="st1" d="M29.6,1.5l3.6,4.3l3.6-4.3h1.9v10.9h-2.1V4.8h-0.1l-3.2,3.8H33l-3.2-3.8h-0.1v7.7h-2.1V1.5H29.6z"/>
		<path class="st1" d="M48.1,1.5v1.6h-4.9v2.9h4.7v1.6h-4.7v3.1h5.1v1.6H41V1.5H48.1z"/>
	</g>
</g>
</svg>
