<?xml version="1.0" encoding="utf-8"?>
<!-- Generator: Adobe Illustrator 21.0.2, SVG Export Plug-In . SVG Version: 6.00 Build 0)  -->
<svg version="1.1" id="Layer_1" xmlns="http://www.w3.org/2000/svg" xmlns:xlink="http://www.w3.org/1999/xlink" x="0px" y="0px"
	 viewBox="0 0 290 45.4" style="enable-background:new 0 0 290 45.4;" xml:space="preserve">
<style type="text/css">
	.st0{fill:none;enable-background:new    ;}
	.st1{fill:#39B44A;}
	.st2{fill:#006838;}
	.st3{fill:none;stroke:#009345;stroke-width:0.198;}
	.st4{font-family:'GillSans-SemiBold';}
	.st5{font-size:19.9018px;}
	.st6{letter-spacing:1;}
	.st7{fill:#FFFFFF;}
</style>
<path class="st0" d="z"/>
<g>
	<polygon class="st1" points="240.6,0 240.6,33.7 290.1,33.7 278.4,17.2 290.1,0 	"/>
	<polygon class="st1" points="49.4,0 49.4,33.7 -0.1,33.7 11.6,17.2 -0.1,0 	"/>
	<rect x="28.9" y="11.7" class="st1" width="232.2" height="33.7"/>
	<polygon class="st2" points="240.6,0 261.1,11.7 240.6,11.7 	"/>
	<polygon class="st2" points="49.4,0 28.9,11.7 49.4,11.7 	"/>
	<line class="st3" x1="261" y1="11.7" x2="261" y2="45.4"/>
	<line class="st3" x1="29" y1="11.7" x2="29" y2="45.4"/>
	<text transform="matrix(1 0 0 1 45.9825 38.3542)"><tspan x="0" y="0" class="st2 st4 st5 st6">O</tspan><tspan x="18" y="0" class="st2 st4 st5 st6">U</tspan><tspan x="34.4" y="0" class="st2 st4 st5">R</tspan><tspan x="48.2" y="0" class="st2 st4 st5"> </tspan><tspan x="54.7" y="0" class="st2 st4 st5 st6">G</tspan><tspan x="71.1" y="0" class="st2 st4 st5">U</tspan><tspan x="86.8" y="0" class="st2 st4 st5 st6">A</tspan><tspan x="102.4" y="0" class="st2 st4 st5 st6">R</tspan><tspan x="117" y="0" class="st2 st4 st5 st6">A</tspan><tspan x="132.6" y="0" class="st2 st4 st5">N</tspan><tspan x="149.4" y="0" class="st2 st4 st5">T</tspan><tspan x="163.6" y="0" class="st2 st4 st5 st6">E</tspan><tspan x="176.2" y="0" class="st2 st4 st5">E</tspan></text>
	<text transform="matrix(1 0 0 1 47.1769 37.28)"><tspan x="0" y="0" class="st7 st4 st5 st6">O</tspan><tspan x="18" y="0" class="st7 st4 st5 st6">U</tspan><tspan x="34.4" y="0" class="st7 st4 st5">R</tspan><tspan x="48.2" y="0" class="st7 st4 st5"> </tspan><tspan x="54.7" y="0" class="st7 st4 st5 st6">G</tspan><tspan x="71.1" y="0" class="st7 st4 st5">U</tspan><tspan x="86.8" y="0" class="st7 st4 st5 st6">A</tspan><tspan x="102.4" y="0" class="st7 st4 st5 st6">R</tspan><tspan x="117" y="0" class="st7 st4 st5 st6">A</tspan><tspan x="132.6" y="0" class="st7 st4 st5">N</tspan><tspan x="149.4" y="0" class="st7 st4 st5">T</tspan><tspan x="163.6" y="0" class="st7 st4 st5 st6">E</tspan><tspan x="176.2" y="0" class="st7 st4 st5">E</tspan></text>
</g>
</svg>
