<?xml version="1.0" encoding="utf-8"?>
<!-- Generator: Adobe Illustrator 21.0.2, SVG Export Plug-In . SVG Version: 6.00 Build 0)  -->
<svg version="1.1" id="Layer_1" xmlns="http://www.w3.org/2000/svg" xmlns:xlink="http://www.w3.org/1999/xlink" x="0px" y="0px"
	 viewBox="0 0 103 48" style="enable-background:new 0 0 103 48;" xml:space="preserve">
<style type="text/css">
	.st0{fill:#575251;}
	.st1{fill:#39B54A;}
</style>
<g>
	<g>
		<g>
			<path class="st0" d="M11.4,3.8c2.3,0,4.2,0.6,5.7,1.8c1.5,1.2,2.2,2.7,2.2,4.6c0,1.2-0.3,2.2-0.9,3.1c-0.6,0.9-1.5,1.6-2.7,2.1
				v0.2c1.8,0.4,3.2,1.2,4.2,2.4s1.5,2.6,1.5,4.2c0,1.4-0.4,2.7-1.1,3.8c-0.7,1.1-1.7,2-3,2.5s-2.8,0.8-4.5,0.8H2V3.8H11.4z
				 M10.1,14.4c1.3,0,2.3-0.3,3.1-0.9c0.8-0.6,1.1-1.5,1.1-2.6c0-1-0.3-1.8-1-2.3c-0.7-0.6-1.6-0.9-2.7-0.9H7v6.7H10.1z M11.2,25.5
				c1.7,0,2.9-0.3,3.8-0.9c0.9-0.6,1.3-1.6,1.3-2.8c0-1.1-0.4-1.9-1.3-2.6c-0.8-0.6-2-0.9-3.4-0.9H7v7.2H11.2z"/>
			<path class="st0" d="M30.5,3.8v21.7h12.4v3.9H25.5V3.8H30.5z"/>
			<path class="st0" d="M58.6,3.5c2.6,0,5,0.5,7.1,1.6c2.1,1.1,3.8,2.7,5.1,4.7c1.3,2.1,1.9,4.3,1.9,6.8c0,2.4-0.6,4.6-1.8,6.6
				c-1.2,2-2.9,3.6-5,4.8c-2.1,1.1-4.5,1.7-7.2,1.7c-2.6,0-5-0.6-7.2-1.7c-2.2-1.1-3.8-2.7-5.1-4.7c-1.2-2-1.8-4.2-1.8-6.6
				c0-2.3,0.6-4.5,1.8-6.6c1.2-2.1,2.9-3.7,5-4.8C53.4,4,55.8,3.5,58.6,3.5z M49.6,16.6c0,1.7,0.4,3.2,1.2,4.6
				c0.8,1.4,1.8,2.4,3.2,3.1c1.4,0.7,2.9,1.1,4.7,1.1c2.6,0,4.8-0.8,6.5-2.5c1.7-1.6,2.5-3.8,2.5-6.4c0-1.7-0.4-3.2-1.1-4.6
				c-0.8-1.4-1.8-2.4-3.2-3.2s-2.9-1.1-4.7-1.1c-1.7,0-3.3,0.4-4.7,1.1c-1.4,0.7-2.4,1.8-3.2,3.1C49.9,13.3,49.6,14.8,49.6,16.6z"/>
			<path class="st0" d="M90.7,3.5c3.1,0,6.3,0.7,9.4,2.1v4.5c-3.1-1.6-6.1-2.4-9.1-2.4c-1.9,0-3.5,0.4-5,1.1s-2.6,1.8-3.4,3.2
				c-0.8,1.4-1.2,3-1.2,4.7c0,2.6,0.9,4.7,2.6,6.3c1.7,1.6,4,2.4,6.9,2.4c0.8,0,1.5-0.1,2.2-0.2s1.6-0.4,2.5-0.8v-4.2h-4.2v-3.9h9.2
				v10.5c-1.3,0.9-2.8,1.6-4.5,2.1s-3.6,0.7-5.5,0.7c-2.7,0-5.1-0.6-7.3-1.7s-3.9-2.7-5.1-4.7c-1.2-2-1.8-4.2-1.8-6.7
				c0-2.5,0.6-4.8,1.9-6.8s3-3.6,5.2-4.7S87.9,3.5,90.7,3.5z"/>
		</g>
	</g>
	<rect x="1.3" y="41.7" class="st1" width="100.5" height="3.4"/>
</g>
</svg>
