<?xml version="1.0" encoding="utf-8"?>
<!-- Generator: Adobe Illustrator 21.0.2, SVG Export Plug-In . SVG Version: 6.00 Build 0)  -->
<svg version="1.1" id="Layer_1" xmlns="http://www.w3.org/2000/svg" xmlns:xlink="http://www.w3.org/1999/xlink" x="0px" y="0px"
	 viewBox="0 0 34 33" style="enable-background:new 0 0 34 33;" xml:space="preserve">
<style type="text/css">
	.st0{fill:#39B54A;}
	.st1{fill:url(#SVGID_1_);}
	.st2{fill:none;}
	.st3{fill:#FFFFFF;}
	.st4{font-family:'GillSans-SemiBold';}
	.st5{font-size:16.3616px;}
</style>
<g>
	<g>
		<g>
			<path class="st0" d="M0.2,16.5C0.2,12,1.8,8.1,5,4.9c3.2-3.2,7-4.8,11.5-4.8c4.5,0,8.4,1.6,11.6,4.8c3.2,3.2,4.8,7,4.8,11.6
				c0,4.5-1.6,8.4-4.8,11.5c-3.2,3.2-7,4.8-11.5,4.8C12,32.8,8.2,31.2,5,28C1.8,24.8,0.2,20.9,0.2,16.5z"/>
			
				<linearGradient id="SVGID_1_" gradientUnits="userSpaceOnUse" x1="-1484.8813" y1="785.6589" x2="-1458.0308" y2="785.6589" gradientTransform="matrix(0 1 -1 0 802.1533 1486.3174)">
				<stop  offset="0" style="stop-color:#FFFFFF;stop-opacity:0.5"/>
				<stop  offset="1" style="stop-color:#FFFFFF;stop-opacity:0"/>
			</linearGradient>
			<path class="st1" d="M3,14.8c0-3.7,1.3-6.7,4-9.4c2.7-2.7,5.7-4,9.5-4c3.8,0,6.8,1.3,9.5,3.9c2.7,2.7,4,5.7,4,9.4
				c0,3.8-1.2,6.9-3.9,9.6c-2.7,2.7-5.7,3.9-9.6,3.9c-3.8,0-6.8-1.3-9.5-4C4.3,21.6,3,18.6,3,14.8z"/>
		</g>
	</g>
	<g>
		<rect x="6" y="9.6" class="st2" width="20.9" height="18.1"/>
		<text transform="matrix(1 0 0 1 9.548 20.7881)" class="st3 st4 st5">Q</text>
	</g>
</g>
</svg>
