<?xml version="1.0" encoding="utf-8"?>
<!-- Generator: Adobe Illustrator 21.0.2, SVG Export Plug-In . SVG Version: 6.00 Build 0)  -->
<svg version="1.1" id="Layer_1" xmlns="http://www.w3.org/2000/svg" xmlns:xlink="http://www.w3.org/1999/xlink" x="0px" y="0px"
	 viewBox="0 0 307 459" style="enable-background:new 0 0 307 459;" xml:space="preserve">
<style type="text/css">
	.st0{fill:url(#SVGID_1_);}
	.st1{fill:url(#SVGID_2_);}
	.st2{fill:url(#SVGID_3_);}
	.st3{fill:url(#SVGID_4_);}
	.st4{fill-rule:evenodd;clip-rule:evenodd;fill:url(#SVGID_5_);}
	.st5{filter:url(#Adobe_OpacityMaskFilter);}
	.st6{opacity:0.75;mask:url(#SVGID_6_);}
	.st7{fill-rule:evenodd;clip-rule:evenodd;fill:#FDCE8B;}
	.st8{fill:url(#SVGID_7_);}
	.st9{filter:url(#Adobe_OpacityMaskFilter_1_);}
	.st10{opacity:0.75;mask:url(#SVGID_8_);}
	.st11{fill:#016938;}
	.st12{fill:url(#SVGID_9_);}
	.st13{fill-rule:evenodd;clip-rule:evenodd;fill:#3B2416;}
	.st14{filter:url(#Adobe_OpacityMaskFilter_2_);}
	.st15{opacity:0.75;mask:url(#SVGID_10_);}
	.st16{fill-rule:evenodd;clip-rule:evenodd;fill:#3C2415;}
	.st17{fill-rule:evenodd;clip-rule:evenodd;fill:#FFFFFF;}
	.st18{fill-rule:evenodd;clip-rule:evenodd;fill:url(#SVGID_11_);}
	.st19{filter:url(#Adobe_OpacityMaskFilter_3_);}
	.st20{opacity:0.75;mask:url(#SVGID_12_);}
	.st21{fill-rule:evenodd;clip-rule:evenodd;fill:#39B54A;}
	.st22{fill-rule:evenodd;clip-rule:evenodd;fill:#8AC440;}
	.st23{filter:url(#Adobe_OpacityMaskFilter_4_);}
	.st24{opacity:0.75;mask:url(#SVGID_13_);}
	.st25{filter:url(#Adobe_OpacityMaskFilter_5_);}
	.st26{opacity:0.75;mask:url(#SVGID_14_);}
	.st27{fill-rule:evenodd;clip-rule:evenodd;fill:#8A7B72;}
	.st28{fill:none;}
	.st29{fill:url(#SVGID_15_);}
	.st30{fill-rule:evenodd;clip-rule:evenodd;fill:url(#SVGID_16_);}
	.st31{filter:url(#Adobe_OpacityMaskFilter_6_);}
	.st32{opacity:0.75;mask:url(#SVGID_17_);}
	.st33{fill-rule:evenodd;clip-rule:evenodd;fill:#414141;}
	.st34{fill-rule:evenodd;clip-rule:evenodd;fill:url(#SVGID_18_);}
	.st35{filter:url(#Adobe_OpacityMaskFilter_7_);}
	.st36{opacity:0.75;mask:url(#SVGID_19_);}
	.st37{fill-rule:evenodd;clip-rule:evenodd;fill:#59595C;}
	.st38{fill-rule:evenodd;clip-rule:evenodd;fill:url(#SVGID_20_);}
	.st39{filter:url(#Adobe_OpacityMaskFilter_8_);}
	.st40{opacity:0.75;mask:url(#SVGID_21_);}
	.st41{fill-rule:evenodd;clip-rule:evenodd;fill:url(#SVGID_22_);}
	.st42{filter:url(#Adobe_OpacityMaskFilter_9_);}
	.st43{opacity:0.75;mask:url(#SVGID_23_);}
	.st44{fill-rule:evenodd;clip-rule:evenodd;fill:#603A17;}
	.st45{fill-rule:evenodd;clip-rule:evenodd;fill:#808083;}
	.st46{filter:url(#Adobe_OpacityMaskFilter_10_);}
	.st47{opacity:0.75;mask:url(#SVGID_24_);}
	.st48{fill-rule:evenodd;clip-rule:evenodd;fill:url(#SVGID_25_);}
	.st49{filter:url(#Adobe_OpacityMaskFilter_11_);}
	.st50{opacity:0.75;mask:url(#SVGID_26_);}
	.st51{fill-rule:evenodd;clip-rule:evenodd;fill:url(#SVGID_27_);}
	.st52{fill-rule:evenodd;clip-rule:evenodd;fill:url(#SVGID_28_);}
	.st53{filter:url(#Adobe_OpacityMaskFilter_12_);}
	.st54{opacity:0.75;mask:url(#SVGID_29_);}
	.st55{fill-rule:evenodd;clip-rule:evenodd;fill:#FECF8D;}
	.st56{fill:#C2976A;}
	.st57{fill:#603A17;}
	.st58{fill-rule:evenodd;clip-rule:evenodd;fill:#C2976A;}
	.st59{filter:url(#Adobe_OpacityMaskFilter_13_);}
	.st60{opacity:0.75;mask:url(#SVGID_30_);}
	.st61{fill:#3C2415;}
	.st62{fill-rule:evenodd;clip-rule:evenodd;fill:url(#SVGID_31_);}
	.st63{filter:url(#Adobe_OpacityMaskFilter_14_);}
	.st64{opacity:0.75;mask:url(#SVGID_32_);}
	.st65{fill-rule:evenodd;clip-rule:evenodd;fill:url(#SVGID_33_);}
	.st66{fill-rule:evenodd;clip-rule:evenodd;}
	.st67{fill-rule:evenodd;clip-rule:evenodd;fill:url(#SVGID_34_);}
	.st68{fill:url(#SVGID_35_);}
	.st69{fill:#38B14A;}
	.st70{fill-rule:evenodd;clip-rule:evenodd;fill:url(#SVGID_36_);}
	.st71{filter:url(#Adobe_OpacityMaskFilter_15_);}
	.st72{opacity:0.75;mask:url(#SVGID_37_);}
	.st73{filter:url(#Adobe_OpacityMaskFilter_16_);}
	.st74{opacity:0.75;mask:url(#SVGID_38_);}
	.st75{filter:url(#Adobe_OpacityMaskFilter_17_);}
	.st76{opacity:0.75;mask:url(#SVGID_39_);}
	.st77{fill:#808083;}
	.st78{filter:url(#Adobe_OpacityMaskFilter_18_);}
	.st79{opacity:0.75;mask:url(#SVGID_40_);}
	.st80{fill:#414141;}
	.st81{filter:url(#Adobe_OpacityMaskFilter_19_);}
	.st82{opacity:0.75;mask:url(#SVGID_41_);}
	.st83{filter:url(#Adobe_OpacityMaskFilter_20_);}
	.st84{opacity:0.75;mask:url(#SVGID_42_);}
	.st85{filter:url(#Adobe_OpacityMaskFilter_21_);}
	.st86{opacity:0.75;mask:url(#SVGID_43_);}
	.st87{filter:url(#Adobe_OpacityMaskFilter_22_);}
	.st88{opacity:0.75;mask:url(#SVGID_44_);}
	.st89{filter:url(#Adobe_OpacityMaskFilter_23_);}
	.st90{opacity:0.75;mask:url(#SVGID_45_);}
	.st91{fill:url(#SVGID_46_);}
	.st92{filter:url(#Adobe_OpacityMaskFilter_24_);}
	.st93{opacity:0.75;mask:url(#SVGID_47_);}
	.st94{fill:url(#SVGID_48_);}
	.st95{filter:url(#Adobe_OpacityMaskFilter_25_);}
	.st96{opacity:0.75;mask:url(#SVGID_49_);}
	.st97{fill-rule:evenodd;clip-rule:evenodd;fill:url(#SVGID_50_);}
	.st98{filter:url(#Adobe_OpacityMaskFilter_26_);}
	.st99{opacity:0.75;mask:url(#SVGID_51_);}
	.st100{fill-rule:evenodd;clip-rule:evenodd;fill:url(#SVGID_52_);}
	.st101{fill-rule:evenodd;clip-rule:evenodd;fill:url(#SVGID_53_);}
	.st102{filter:url(#Adobe_OpacityMaskFilter_27_);}
	.st103{opacity:0.75;mask:url(#SVGID_54_);}
	.st104{fill-rule:evenodd;clip-rule:evenodd;fill:url(#SVGID_55_);}
	.st105{fill-rule:evenodd;clip-rule:evenodd;fill:url(#SVGID_56_);}
	.st106{fill-rule:evenodd;clip-rule:evenodd;fill:url(#SVGID_57_);}
	.st107{fill-rule:evenodd;clip-rule:evenodd;fill:url(#SVGID_58_);}
	.st108{fill-rule:evenodd;clip-rule:evenodd;fill:url(#SVGID_59_);}
	.st109{filter:url(#Adobe_OpacityMaskFilter_28_);}
	.st110{opacity:0.75;mask:url(#SVGID_60_);}
	.st111{fill-rule:evenodd;clip-rule:evenodd;fill:url(#SVGID_61_);}
	.st112{fill-rule:evenodd;clip-rule:evenodd;fill:url(#SVGID_62_);}
	.st113{fill-rule:evenodd;clip-rule:evenodd;fill:url(#SVGID_63_);}
	.st114{filter:url(#Adobe_OpacityMaskFilter_29_);}
	.st115{opacity:0.75;mask:url(#SVGID_64_);}
	.st116{filter:url(#Adobe_OpacityMaskFilter_30_);}
	.st117{opacity:0.75;mask:url(#SVGID_65_);}
</style>
<g>
	
		<linearGradient id="SVGID_1_" gradientUnits="userSpaceOnUse" x1="230.2974" y1="419.0424" x2="253.1098" y2="419.0424" gradientTransform="matrix(0.9998 1.870000e-02 -1.870000e-02 0.9998 9.9055 1.0336)">
		<stop  offset="0" style="stop-color:#8BC53F"/>
		<stop  offset="1" style="stop-color:#006838"/>
	</linearGradient>
	<path class="st0" d="M231.7,458.7c0,0,2.1-55.2,24.1-68.3c0,0-19.6,28.7-13.3,68.5L231.7,458.7z"/>
	
		<linearGradient id="SVGID_2_" gradientUnits="userSpaceOnUse" x1="221.1095" y1="420.9692" x2="237.8531" y2="420.9692" gradientTransform="matrix(0.9998 1.870000e-02 -1.870000e-02 0.9998 9.9055 1.0336)">
		<stop  offset="0" style="stop-color:#8BC53F"/>
		<stop  offset="1" style="stop-color:#006838"/>
	</linearGradient>
	<path class="st1" d="M223.7,393.6c0,0,7.3,54.8,4.7,65l10.8,0.2C239.2,458.8,233.1,408,223.7,393.6z"/>
	
		<linearGradient id="SVGID_3_" gradientUnits="userSpaceOnUse" x1="206.5918" y1="428.6731" x2="232.9646" y2="428.6731" gradientTransform="matrix(0.9998 1.870000e-02 -1.870000e-02 0.9998 9.9055 1.0336)">
		<stop  offset="0" style="stop-color:#8BC53F"/>
		<stop  offset="1" style="stop-color:#006838"/>
	</linearGradient>
	<path class="st2" d="M223.7,458.5c0,0,1.1-24.9-14.8-49.8c0,0,25.4,20.9,25.4,50L223.7,458.5z"/>
	
		<linearGradient id="SVGID_4_" gradientUnits="userSpaceOnUse" x1="1247.936" y1="429.2305" x2="1288.2303" y2="429.2305" gradientTransform="matrix(-0.9998 -1.870000e-02 -1.870000e-02 0.9998 1530.8093 28.7779)">
		<stop  offset="0" style="stop-color:#8BC53F"/>
		<stop  offset="1" style="stop-color:#006838"/>
	</linearGradient>
	<path class="st3" d="M245,458.9c0,0,1.1-45.6,30.5-48.9c0,0-29.8-7.7-41.2,48.7L245,458.9z"/>
</g>
<g>
	<g>
		<g>
			
				<linearGradient id="SVGID_5_" gradientUnits="userSpaceOnUse" x1="-36.0244" y1="400.8257" x2="-29.7227" y2="400.8257" gradientTransform="matrix(-0.129 -0.9916 -0.9916 0.129 614.4519 93.8471)">
				<stop  offset="0" style="stop-color:#FECF8D"/>
				<stop  offset="0.3174" style="stop-color:#FFDDAE"/>
				<stop  offset="0.5399" style="stop-color:#FFE5C2"/>
			</linearGradient>
			<path class="st4" d="M212.7,178.5c0.5,0.2,1,0.3,1.5,0.4c1.8,0.3,3.3,1,4.9,1.7c1.4,0.6,2.4,1.1,3.8,0.2c1.6-1,2.7-2.7,4.3-3.7
				c0.6-0.4,1.8-0.7,2.1-1.4c0.5-1.2-0.6-1.7-1.6-1.6"/>
		</g>
		<defs>
			<filter id="Adobe_OpacityMaskFilter" filterUnits="userSpaceOnUse" x="212.7" y="174.1" width="16.8" height="7.2">
				
					<feColorMatrix  type="matrix" values="-1 0 0 0 1  0 -1 0 0 1  0 0 -1 0 1  0 0 0 1 0" color-interpolation-filters="sRGB" result="source"/>
			</filter>
		</defs>
		<mask maskUnits="userSpaceOnUse" x="212.7" y="174.1" width="16.8" height="7.2" id="SVGID_6_">
			<g class="st5">
				
					<image style="overflow:visible;" width="22" height="12" xlink:href="A54DA265E40A5E29.jpg"  transform="matrix(1 0 0 1 210 172)">
				</image>
			</g>
		</mask>
		<g class="st6">
			<path class="st7" d="M212.7,178.5c0.5,0.2,1,0.3,1.5,0.4c1.8,0.3,3.3,1,4.9,1.7c1.4,0.6,2.4,1.1,3.8,0.2c1.6-1,2.7-2.7,4.3-3.7
				c0.6-0.4,1.8-0.7,2.1-1.4c0.5-1.2-0.6-1.7-1.6-1.6"/>
		</g>
	</g>
	<g>
		<g>
			<linearGradient id="SVGID_7_" gradientUnits="userSpaceOnUse" x1="63.7057" y1="183.6355" x2="33.8166" y2="185.3534">
				<stop  offset="0.5434" style="stop-color:#39B54A"/>
				<stop  offset="0.5819" style="stop-color:#33AD48"/>
				<stop  offset="0.8616" style="stop-color:#0F7C3C"/>
				<stop  offset="1" style="stop-color:#016938"/>
			</linearGradient>
			<path class="st8" d="M54.2,141c-11.5,0-20.9-4.1-20.9-9.1c-1.3,1.9-0.5,6.6-0.5,8.8c0.1,5.5,0.4,10.9,0.7,16.4
				c0.7,13.5,1.9,26.9,2.3,40.5c0.4,11,1.2,26.9,1.3,37.9c12,3.3,20.1,2.1,32.4,1.1c-1.4-11.2-0.4-62.3-3.3-74c-1-4-1.9-8-2.4-12.1
				c-0.1-1.3,0.5-9.7-0.5-10.1c-0.8-0.3-3,0.3-3.8,0.4C57.8,140.9,56,141,54.2,141z"/>
		</g>
		<defs>
			<filter id="Adobe_OpacityMaskFilter_1_" filterUnits="userSpaceOnUse" x="32.6" y="131.9" width="37" height="105.7">
				
					<feColorMatrix  type="matrix" values="-1 0 0 0 1  0 -1 0 0 1  0 0 -1 0 1  0 0 0 1 0" color-interpolation-filters="sRGB" result="source"/>
			</filter>
		</defs>
		<mask maskUnits="userSpaceOnUse" x="32.6" y="131.9" width="37" height="105.7" id="SVGID_8_">
			<g class="st9">
				
					<image style="overflow:visible;" width="42" height="111" xlink:href="A54DA265E40A5E2B.jpg"  transform="matrix(1 0 0 1 30 129)">
				</image>
			</g>
		</mask>
		<g class="st10">
			<path class="st11" d="M54.2,141c-11.5,0-20.9-4.1-20.9-9.1c-1.3,1.9-0.5,6.6-0.5,8.8c0.1,5.5,0.4,10.9,0.7,16.4
				c0.7,13.5,1.9,26.9,2.3,40.5c0.4,11,1.2,26.9,1.3,37.9c12,3.3,20.1,2.1,32.4,1.1c-1.4-11.2-0.4-62.3-3.3-74c-1-4-1.9-8-2.4-12.1
				c-0.1-1.3,0.5-9.7-0.5-10.1c-0.8-0.3-3,0.3-3.8,0.4C57.8,140.9,56,141,54.2,141z"/>
		</g>
	</g>
	
		<radialGradient id="SVGID_9_" cx="55.1253" cy="132.1164" r="21.7413" gradientTransform="matrix(1 0 0 0.4371 0 74.3714)" gradientUnits="userSpaceOnUse">
		<stop  offset="0.2523" style="stop-color:#8AC440"/>
		<stop  offset="0.5383" style="stop-color:#87C140"/>
		<stop  offset="0.7226" style="stop-color:#7FB941"/>
		<stop  offset="0.8776" style="stop-color:#70AB41"/>
		<stop  offset="1" style="stop-color:#5E9A42"/>
	</radialGradient>
	<path class="st12" d="M63.1,123.6c-2.7-0.5-5.7-0.9-8.8-0.9c-11.5,0-20.9,4.1-20.9,9.1s9.4,9.1,20.9,9.1c4.1,0,8-0.5,11.2-1.4
		C65,139,62.8,125.4,63.1,123.6z"/>
	<g>
		<g>
			<path class="st13" d="M184.7,116.1c-7.8-2.1-37.9-12.7-86-9.2c-4.9,0.4-27,2.5-36.3,6.3c-6.8,2.8-17.3,9.2-17.8,17.9
				c0,0.1,0,0.2,0,0.4c0,0.1,0,0.2,0,0.3c0,0.1,0.1,0.1,0.1,0.2c0.4,1.6,2.5,3.1,5.1,3.7c3.3,0.8,6.3-0.1,6.7-2
				c0-0.1,1.1-3.5,2.4-5.9c1.6-3,6.5-6.1,9.4-7.1c3.3-1.1,21.7-3.9,28.4-4.7c21.1-2.6,51-1.1,82.8,7.1c1.5,0.4,17.3,5.4,17.2,5.9
				c0.3-3.1,3-4.8,5-7.1C200.1,121,186.1,116.5,184.7,116.1z"/>
		</g>
		<defs>
			<filter id="Adobe_OpacityMaskFilter_2_" filterUnits="userSpaceOnUse" x="44.5" y="106.2" width="157.1" height="29.8">
				
					<feColorMatrix  type="matrix" values="-1 0 0 0 1  0 -1 0 0 1  0 0 -1 0 1  0 0 0 1 0" color-interpolation-filters="sRGB" result="source"/>
			</filter>
		</defs>
		<mask maskUnits="userSpaceOnUse" x="44.5" y="106.2" width="157.1" height="29.8" id="SVGID_10_">
			<g class="st14">
				
					<image style="overflow:visible;" width="162" height="35" xlink:href="A54DA265E40A5E2E.jpg"  transform="matrix(1 0 0 1 42 104)">
				</image>
			</g>
		</mask>
		<g class="st15">
			<path class="st16" d="M184.7,116.1c-7.8-2.1-37.9-12.7-86-9.2c-4.9,0.4-27,2.5-36.3,6.3c-6.8,2.8-17.3,9.2-17.8,17.9
				c0,0.1,0,0.2,0,0.4c0,0.1,0,0.2,0,0.3c0,0.1,0.1,0.1,0.1,0.2c0.4,1.6,2.5,3.1,5.1,3.7c3.3,0.8,6.3-0.1,6.7-2
				c0-0.1,1.1-3.5,2.4-5.9c1.6-3,6.5-6.1,9.4-7.1c3.3-1.1,21.7-3.9,28.4-4.7c21.1-2.6,51-1.1,82.8,7.1c1.5,0.4,17.3,5.4,17.2,5.9
				c0.3-3.1,3-4.8,5-7.1C200.1,121,186.1,116.5,184.7,116.1z"/>
		</g>
	</g>
	<path class="st17" d="M64.2,140.2c-1,4.7,23.3,58.3,23.3,58.3c-0.2-0.6,1.4-3.3,1.6-3.9c1.4-3.3,2.7-6.6,4-9.9
		c4.2-10.6,8.6-21.5,10.5-32.6c0.7-4.1-0.8-8.4-4.1-10.9c0,0,0,0,0,0c-0.9-0.6-2,0-2.9,0.6c-2,1.4-4,2.8-6.3,3.8
		c-5.8,2.5-12.1-0.1-17.7-2c-2.1-0.7-4.1-1.5-6.2-2.3C66.1,141,64.7,140.6,64.2,140.2z"/>
	<g>
		<g>
			<linearGradient id="SVGID_11_" gradientUnits="userSpaceOnUse" x1="231.3781" y1="177.4625" x2="212.8257" y2="182.1006">
				<stop  offset="0.5434" style="stop-color:#39B54A"/>
				<stop  offset="0.8228" style="stop-color:#139E48"/>
				<stop  offset="1" style="stop-color:#009247"/>
			</linearGradient>
			<path class="st18" d="M236.8,238.8c-3.1-17.3-19.5-96.5-19.8-96.6c-1.8-7.2-8-26.6-19.1-20.2c-1.5,0.9-3.8,3.9-3.2,5.8
				c0.5,1.6,3.2,1.9,4.5,3c1.8,1.5,3.2,3.5,4.2,5.6c1.6,3.1,2.1,6.9,2.9,10.3c1.1,4.4,18.3,93.4,18.1,94.4
				C224.6,241.1,232.1,243.7,236.8,238.8z"/>
		</g>
		<defs>
			<filter id="Adobe_OpacityMaskFilter_3_" filterUnits="userSpaceOnUse" x="194.7" y="120.8" width="42.1" height="121">
				
					<feColorMatrix  type="matrix" values="-1 0 0 0 1  0 -1 0 0 1  0 0 -1 0 1  0 0 0 1 0" color-interpolation-filters="sRGB" result="source"/>
			</filter>
		</defs>
		<mask maskUnits="userSpaceOnUse" x="194.7" y="120.8" width="42.1" height="121" id="SVGID_12_">
			<g class="st19">
				
					<image style="overflow:visible;" width="47" height="126" xlink:href="A54DA265E40A5E2F.jpg"  transform="matrix(1 0 0 1 192 118)">
				</image>
			</g>
		</mask>
		<g class="st20">
			<path class="st21" d="M236.8,238.8c-3.1-17.3-19.5-96.5-19.8-96.6c-1.8-7.2-8-26.6-19.1-20.2c-1.5,0.9-3.8,3.9-3.2,5.8
				c0.5,1.6,3.2,1.9,4.5,3c1.8,1.5,3.2,3.5,4.2,5.6c1.6,3.1,2.1,6.9,2.9,10.3c1.1,4.4,18.3,93.4,18.1,94.4
				C224.6,241.1,232.1,243.7,236.8,238.8z"/>
		</g>
	</g>
	<g>
		<g>
			<path class="st22" d="M224.6,241.1c-3,7.8-7.4,19.1-9.5,24.3c17.3,13.2,39.4-0.7,41.3-6.5c-5.5-6.6-16.2-15.7-19.6-20.1
				C236.8,238.8,233.4,243.3,224.6,241.1z"/>
		</g>
		<defs>
			<filter id="Adobe_OpacityMaskFilter_4_" filterUnits="userSpaceOnUse" x="215.2" y="238.8" width="41.3" height="32.1">
				
					<feColorMatrix  type="matrix" values="-1 0 0 0 1  0 -1 0 0 1  0 0 -1 0 1  0 0 0 1 0" color-interpolation-filters="sRGB" result="source"/>
			</filter>
		</defs>
		<mask maskUnits="userSpaceOnUse" x="215.2" y="238.8" width="41.3" height="32.1" id="SVGID_13_">
			<g class="st23">
				
					<image style="overflow:visible;" width="46" height="37" xlink:href="A54DA265E40A5E2A.jpg"  transform="matrix(1 0 0 1 213 236)">
				</image>
			</g>
		</mask>
		<g class="st24">
			<path class="st21" d="M224.6,241.1c-3,7.8-7.4,19.1-9.5,24.3c17.3,13.2,39.4-0.7,41.3-6.5c-5.5-6.6-16.2-15.7-19.6-20.1
				C236.8,238.8,233.4,243.3,224.6,241.1z"/>
		</g>
	</g>
	<g>
		<g>
			<path class="st22" d="M186.6,127.4c2,7.3,8.7,5.8,9.3-0.5c0.2-2.8,4.3-6.1,8.9-5.6c2.8-0.6,5.6-3.6,4.3-6
				c-2.4-4.1-10.9-3.6-14.7-2.1C188.5,115.4,184.6,120.5,186.6,127.4z"/>
		</g>
		<defs>
			<filter id="Adobe_OpacityMaskFilter_5_" filterUnits="userSpaceOnUse" x="186.1" y="112" width="23.4" height="20.2">
				
					<feColorMatrix  type="matrix" values="-1 0 0 0 1  0 -1 0 0 1  0 0 -1 0 1  0 0 0 1 0" color-interpolation-filters="sRGB" result="source"/>
			</filter>
		</defs>
		<mask maskUnits="userSpaceOnUse" x="186.1" y="112" width="23.4" height="20.2" id="SVGID_14_">
			<g class="st25">
				
					<image style="overflow:visible;" width="28" height="25" xlink:href="A54DA265E40A5E25.jpg"  transform="matrix(1 0 0 1 184 110)">
				</image>
			</g>
		</mask>
		<g class="st26">
			<path class="st21" d="M186.6,127.4c2,7.3,8.7,5.8,9.3-0.5c0.2-2.8,4.3-6.1,8.9-5.6c2.8-0.6,5.6-3.6,4.3-6
				c-2.4-4.1-10.9-3.6-14.7-2.1C188.5,115.4,184.6,120.5,186.6,127.4z"/>
		</g>
	</g>
	<g>
		<path class="st27" d="M43.3,446.7c-0.4,2-0.8,5.8,0.7,7.3c1.8,1.7,3.3,2.8,5.8,3.4c6,1.4,12.1,1.7,18.2,1.9
			c2.4,0.1,5.2-0.1,7.4-1.1c3.2-1.5,4.2-5.8,4-9.1"/>
	</g>
	<g>
		<path class="st11" d="M209.9,355.1c-0.1,0-0.2,0-0.2,0c-0.6-0.1-1.1-0.8-0.9-1.4l0.2-1.2c0.1-0.6,0.7-1.1,1.4-0.9
			c0.6,0.1,1.1,0.8,0.9,1.4l-0.2,1.2C210.9,354.7,210.4,355.1,209.9,355.1z M211.3,348.1c-0.1,0-0.2,0-0.2,0
			c-0.6-0.1-1.1-0.8-0.9-1.4l0.2-1.2c0.1-0.6,0.7-1.1,1.4-0.9c0.6,0.1,1.1,0.8,0.9,1.4l-0.2,1.2
			C212.3,347.7,211.8,348.1,211.3,348.1z M212.6,341.1c-0.1,0-0.2,0-0.2,0c-0.6-0.1-1.1-0.8-0.9-1.4l0.2-1.2
			c0.1-0.6,0.7-1.1,1.4-0.9c0.6,0.1,1.1,0.8,0.9,1.4l-0.2,1.2C213.7,340.8,213.2,341.1,212.6,341.1z M214,334.2c-0.1,0-0.2,0-0.2,0
			c-0.6-0.1-1.1-0.8-0.9-1.4l0.2-1.2c0.1-0.6,0.7-1.1,1.4-0.9c0.6,0.1,1.1,0.8,0.9,1.4l-0.2,1.2C215.1,333.8,214.6,334.2,214,334.2z
			 M215.4,327.2c-0.1,0-0.2,0-0.2,0c-0.6-0.1-1.1-0.8-0.9-1.4l0.2-1.2c0.1-0.6,0.7-1.1,1.4-0.9c0.6,0.1,1.1,0.8,0.9,1.4l-0.2,1.2
			C216.5,326.8,216,327.2,215.4,327.2z M216.8,320.2c-0.1,0-0.2,0-0.2,0c-0.6-0.1-1.1-0.8-0.9-1.4l0.2-1.2c0.1-0.6,0.7-1.1,1.4-0.9
			c0.6,0.1,1.1,0.8,0.9,1.4l-0.2,1.2C217.9,319.8,217.4,320.2,216.8,320.2z M218.2,313.2c-0.1,0-0.2,0-0.2,0
			c-0.6-0.1-1.1-0.8-0.9-1.4l0.2-1.2c0.1-0.6,0.7-1.1,1.4-0.9c0.6,0.1,1.1,0.8,0.9,1.4l-0.2,1.2
			C219.2,312.8,218.7,313.2,218.2,313.2z M219.6,306.2c-0.1,0-0.2,0-0.2,0c-0.6-0.1-1.1-0.8-0.9-1.4l0.2-1.2
			c0.1-0.6,0.7-1.1,1.4-0.9c0.6,0.1,1.1,0.8,0.9,1.4l-0.2,1.2C220.6,305.9,220.1,306.2,219.6,306.2z M221,299.3c-0.1,0-0.2,0-0.2,0
			c-0.6-0.1-1.1-0.8-0.9-1.4l0.2-1.2c0.1-0.6,0.7-1.1,1.4-0.9c0.6,0.1,1.1,0.8,0.9,1.4l-0.2,1.2C222,298.9,221.5,299.3,221,299.3z
			 M222.4,292.3c-0.1,0-0.2,0-0.2,0c-0.6-0.1-1.1-0.8-0.9-1.4l0.2-1.2c0.1-0.6,0.7-1.1,1.4-0.9c0.6,0.1,1.1,0.8,0.9,1.4l-0.2,1.2
			C223.4,291.9,222.9,292.3,222.4,292.3z M223.7,285.3c-0.1,0-0.2,0-0.2,0c-0.6-0.1-1.1-0.8-0.9-1.4l0.2-1.2
			c0.1-0.6,0.7-1.1,1.4-0.9c0.6,0.1,1.1,0.8,0.9,1.4l-0.2,1.2C224.8,284.9,224.3,285.3,223.7,285.3z M225.1,278.3
			c-0.1,0-0.2,0-0.2,0c-0.6-0.1-1.1-0.8-0.9-1.4l0.2-1.2c0.1-0.6,0.7-1.1,1.4-0.9c0.6,0.1,1.1,0.8,0.9,1.4l-0.2,1.2
			C226.2,277.9,225.7,278.3,225.1,278.3z"/>
	</g>
	<g>
		<path class="st11" d="M285.4,352.9c-0.4,0-0.9-0.2-1.1-0.7l-0.5-1.1c-0.3-0.6,0-1.3,0.5-1.6c0.6-0.3,1.3,0,1.6,0.5l0.5,1.1
			c0.3,0.6,0,1.3-0.5,1.6C285.7,352.8,285.5,352.9,285.4,352.9z M282.3,346.5c-0.4,0-0.9-0.2-1.1-0.7l-0.5-1.1
			c-0.3-0.6,0-1.3,0.5-1.6c0.6-0.3,1.3,0,1.6,0.5l0.5,1.1c0.3,0.6,0,1.3-0.5,1.6C282.6,346.4,282.4,346.5,282.3,346.5z M279.1,340.1
			c-0.4,0-0.9-0.2-1.1-0.7l-0.5-1.1c-0.3-0.6,0-1.3,0.5-1.6c0.6-0.3,1.3,0,1.6,0.5l0.5,1.1c0.3,0.6,0,1.3-0.5,1.6
			C279.5,340,279.3,340.1,279.1,340.1z M276,333.7c-0.4,0-0.9-0.2-1.1-0.7l-0.5-1.1c-0.3-0.6,0-1.3,0.5-1.6c0.6-0.3,1.3,0,1.6,0.5
			l0.5,1.1c0.3,0.6,0,1.3-0.5,1.6C276.4,333.6,276.2,333.7,276,333.7z M272.9,327.3c-0.4,0-0.9-0.2-1.1-0.7l-0.5-1.1
			c-0.3-0.6,0-1.3,0.5-1.6c0.6-0.3,1.3,0,1.6,0.5l0.5,1.1c0.3,0.6,0,1.3-0.5,1.6C273.3,327.2,273.1,327.3,272.9,327.3z M269.8,320.9
			c-0.4,0-0.9-0.2-1.1-0.7l-0.5-1.1c-0.3-0.6,0-1.3,0.5-1.6c0.6-0.3,1.3,0,1.6,0.5l0.5,1.1c0.3,0.6,0,1.3-0.5,1.6
			C270.1,320.8,270,320.9,269.8,320.9z M266.7,314.5c-0.4,0-0.9-0.2-1.1-0.7l-0.5-1.1c-0.3-0.6,0-1.3,0.5-1.6c0.6-0.3,1.3,0,1.6,0.5
			l0.5,1.1c0.3,0.6,0,1.3-0.5,1.6C267,314.4,266.8,314.5,266.7,314.5z M263.5,308.1c-0.4,0-0.9-0.2-1.1-0.7l-0.5-1.1
			c-0.3-0.6,0-1.3,0.5-1.6c0.6-0.3,1.3,0,1.6,0.5l0.5,1.1c0.3,0.6,0,1.3-0.5,1.6C263.9,308.1,263.7,308.1,263.5,308.1z M260.4,301.7
			c-0.4,0-0.9-0.2-1.1-0.7l-0.5-1.1c-0.3-0.6,0-1.3,0.5-1.6c0.6-0.3,1.3,0,1.6,0.5l0.5,1.1c0.3,0.6,0,1.3-0.5,1.6
			C260.8,301.7,260.6,301.7,260.4,301.7z M257.3,295.3c-0.4,0-0.9-0.2-1.1-0.7l-0.5-1.1c-0.3-0.6,0-1.3,0.5-1.6
			c0.6-0.3,1.3,0,1.6,0.5l0.5,1.1c0.3,0.6,0,1.3-0.5,1.6C257.7,295.3,257.5,295.3,257.3,295.3z M254.2,288.9c-0.4,0-0.9-0.2-1.1-0.7
			l-0.5-1.1c-0.3-0.6,0-1.3,0.5-1.6c0.6-0.3,1.3,0,1.6,0.5l0.5,1.1c0.3,0.6,0,1.3-0.5,1.6C254.5,288.9,254.4,288.9,254.2,288.9z
			 M251.1,282.5c-0.4,0-0.9-0.2-1.1-0.7l-0.5-1.1c-0.3-0.6,0-1.3,0.5-1.6c0.6-0.3,1.3,0,1.6,0.5l0.5,1.1c0.3,0.6,0,1.3-0.5,1.6
			C251.4,282.5,251.3,282.5,251.1,282.5z M248,276.1c-0.4,0-0.9-0.2-1.1-0.7l-0.5-1.1c-0.3-0.6,0-1.3,0.5-1.6c0.6-0.3,1.3,0,1.6,0.5
			l0.5,1.1c0.3,0.6,0,1.3-0.5,1.6C248.3,276.1,248.1,276.1,248,276.1z"/>
	</g>
	<g>
		<path class="st11" d="M243.1,328.3c-0.6,0-1.1-0.4-1.2-1l-0.1-0.4c-0.1-0.6,0.4-1.2,1-1.3c0.6-0.1,1.2,0.4,1.3,1l0.1,0.4
			c0.1,0.6-0.4,1.2-1,1.3C243.2,328.3,243.2,328.3,243.1,328.3z M242.2,322c-0.6,0-1.1-0.4-1.2-1l-0.2-1.2c-0.1-0.6,0.4-1.2,1-1.3
			c0.6-0.1,1.2,0.4,1.3,1l0.2,1.2c0.1,0.6-0.4,1.2-1,1.3C242.3,322,242.3,322,242.2,322z M241.2,315c-0.6,0-1.1-0.4-1.2-1l-0.2-1.2
			c-0.1-0.6,0.4-1.2,1-1.3c0.7-0.1,1.2,0.4,1.3,1l0.2,1.2c0.1,0.6-0.4,1.2-1,1.3C241.3,315,241.3,315,241.2,315z M240.2,307.9
			c-0.6,0-1.1-0.4-1.2-1l-0.2-1.2c-0.1-0.6,0.4-1.2,1-1.3c0.6-0.1,1.2,0.4,1.3,1l0.2,1.2c0.1,0.6-0.4,1.2-1,1.3
			C240.3,307.9,240.3,307.9,240.2,307.9z M239.2,300.9c-0.6,0-1.1-0.4-1.2-1l-0.2-1.2c-0.1-0.6,0.4-1.2,1-1.3c0.6-0.1,1.2,0.4,1.3,1
			l0.2,1.2c0.1,0.6-0.4,1.2-1,1.3C239.3,300.9,239.3,300.9,239.2,300.9z M238.2,293.8c-0.6,0-1.1-0.4-1.2-1l-0.2-1.2
			c-0.1-0.6,0.4-1.2,1-1.3c0.7-0.1,1.2,0.4,1.3,1l0.2,1.2c0.1,0.6-0.4,1.2-1,1.3C238.3,293.8,238.3,293.8,238.2,293.8z M237.2,286.8
			c-0.6,0-1.1-0.4-1.2-1l-0.2-1.2c-0.1-0.6,0.4-1.2,1-1.3c0.6-0.1,1.2,0.4,1.3,1l0.2,1.2c0.1,0.6-0.4,1.2-1,1.3
			C237.3,286.8,237.3,286.8,237.2,286.8z M236.2,279.7c-0.6,0-1.1-0.4-1.2-1l-0.2-1.2c-0.1-0.6,0.4-1.2,1-1.3c0.7-0.1,1.2,0.4,1.3,1
			l0.2,1.2c0.1,0.6-0.4,1.2-1,1.3C236.3,279.7,236.3,279.7,236.2,279.7z"/>
	</g>
	<g>
		<path class="st11" d="M302.6,330.8c-0.4,0-0.7-0.2-0.9-0.5l-0.7-0.9c-0.4-0.5-0.3-1.3,0.2-1.7c0.5-0.4,1.3-0.3,1.7,0.2l0.7,0.9
			c0.4,0.5,0.3,1.3-0.2,1.7C303.1,330.7,302.9,330.8,302.6,330.8z M298.2,325.2c-0.4,0-0.7-0.2-0.9-0.5l-0.7-0.9
			c-0.4-0.5-0.3-1.3,0.2-1.7c0.5-0.4,1.3-0.3,1.7,0.2l0.7,0.9c0.4,0.5,0.3,1.3-0.2,1.7C298.8,325.1,298.5,325.2,298.2,325.2z
			 M293.9,319.6c-0.4,0-0.7-0.2-0.9-0.5l-0.7-0.9c-0.4-0.5-0.3-1.3,0.2-1.7c0.5-0.4,1.3-0.3,1.7,0.2l0.7,0.9
			c0.4,0.5,0.3,1.3-0.2,1.7C294.4,319.5,294.1,319.6,293.9,319.6z M289.5,314c-0.4,0-0.7-0.2-0.9-0.5l-0.7-0.9
			c-0.4-0.5-0.3-1.3,0.2-1.7c0.5-0.4,1.3-0.3,1.7,0.2l0.7,0.9c0.4,0.5,0.3,1.3-0.2,1.7C290,313.9,289.7,314,289.5,314z M285.1,308.4
			c-0.4,0-0.7-0.2-0.9-0.5l-0.7-0.9c-0.4-0.5-0.3-1.3,0.2-1.7c0.5-0.4,1.3-0.3,1.7,0.2l0.7,0.9c0.4,0.5,0.3,1.3-0.2,1.7
			C285.6,308.3,285.3,308.4,285.1,308.4z M280.7,302.8c-0.4,0-0.7-0.2-0.9-0.5l-0.7-0.9c-0.4-0.5-0.3-1.3,0.2-1.7
			c0.5-0.4,1.3-0.3,1.7,0.2l0.7,0.9c0.4,0.5,0.3,1.3-0.2,1.7C281.2,302.7,281,302.8,280.7,302.8z M276.3,297.2
			c-0.4,0-0.7-0.2-0.9-0.5l-0.7-0.9c-0.4-0.5-0.3-1.3,0.2-1.7c0.5-0.4,1.3-0.3,1.7,0.2l0.7,0.9c0.4,0.5,0.3,1.3-0.2,1.7
			C276.8,297.1,276.6,297.2,276.3,297.2z M271.9,291.6c-0.4,0-0.7-0.2-0.9-0.5l-0.7-0.9c-0.4-0.5-0.3-1.3,0.2-1.7
			c0.5-0.4,1.3-0.3,1.7,0.2l0.7,0.9c0.4,0.5,0.3,1.3-0.2,1.7C272.5,291.5,272.2,291.6,271.9,291.6z M267.6,285.9
			c-0.4,0-0.7-0.2-0.9-0.5l-0.7-0.9c-0.4-0.5-0.3-1.3,0.2-1.7c0.5-0.4,1.3-0.3,1.7,0.2l0.7,0.9c0.4,0.5,0.3,1.3-0.2,1.7
			C268.1,285.9,267.8,285.9,267.6,285.9z M263.2,280.3c-0.4,0-0.7-0.2-0.9-0.5l-0.7-0.9c-0.4-0.5-0.3-1.3,0.2-1.7
			c0.5-0.4,1.3-0.3,1.7,0.2l0.7,0.9c0.4,0.5,0.3,1.3-0.2,1.7C263.7,280.3,263.4,280.3,263.2,280.3z M258.8,274.7
			c-0.4,0-0.7-0.2-0.9-0.5l-0.7-0.9c-0.4-0.5-0.3-1.3,0.2-1.7c0.5-0.4,1.3-0.3,1.7,0.2l0.7,0.9c0.4,0.5,0.3,1.3-0.2,1.7
			C259.3,274.7,259,274.7,258.8,274.7z M254.4,269.1c-0.4,0-0.7-0.2-0.9-0.5l-0.7-0.9c-0.4-0.5-0.3-1.3,0.2-1.7
			c0.5-0.4,1.3-0.3,1.7,0.2l0.7,0.9c0.4,0.5,0.3,1.3-0.2,1.7C254.9,269,254.7,269.1,254.4,269.1z"/>
	</g>
	<g>
		<path class="st11" d="M171.6,337.9c-0.2,0-0.5-0.1-0.7-0.2c-0.5-0.4-0.6-1.1-0.2-1.7l0.7-1c0.4-0.5,1.1-0.6,1.7-0.2
			c0.5,0.4,0.6,1.1,0.2,1.7l-0.7,1C172.3,337.7,171.9,337.9,171.6,337.9z M175.8,332.1c-0.2,0-0.5-0.1-0.7-0.2
			c-0.5-0.4-0.6-1.1-0.2-1.7l0.7-1c0.4-0.5,1.1-0.6,1.7-0.2c0.5,0.4,0.6,1.1,0.2,1.7l-0.7,1C176.6,332,176.2,332.1,175.8,332.1z
			 M180.1,326.4c-0.2,0-0.5-0.1-0.7-0.2c-0.5-0.4-0.6-1.1-0.2-1.7l0.7-1c0.4-0.5,1.1-0.6,1.7-0.2c0.5,0.4,0.6,1.1,0.2,1.7l-0.7,1
			C180.8,326.3,180.4,326.4,180.1,326.4z M184.3,320.7c-0.2,0-0.5-0.1-0.7-0.2c-0.5-0.4-0.6-1.1-0.2-1.7l0.7-1
			c0.4-0.5,1.1-0.6,1.7-0.2c0.5,0.4,0.6,1.1,0.2,1.7l-0.7,1C185,320.6,184.7,320.7,184.3,320.7z M188.6,315c-0.2,0-0.5-0.1-0.7-0.2
			c-0.5-0.4-0.6-1.1-0.2-1.7l0.7-1c0.4-0.5,1.1-0.6,1.7-0.2c0.5,0.4,0.6,1.1,0.2,1.7l-0.7,1C189.3,314.9,188.9,315,188.6,315z
			 M192.8,309.3c-0.2,0-0.5-0.1-0.7-0.2c-0.5-0.4-0.6-1.1-0.2-1.7l0.7-1c0.4-0.5,1.1-0.6,1.7-0.2c0.5,0.4,0.6,1.1,0.2,1.7l-0.7,1
			C193.5,309.1,193.2,309.3,192.8,309.3z M197.1,303.6c-0.2,0-0.5-0.1-0.7-0.2c-0.5-0.4-0.6-1.1-0.2-1.7l0.7-1
			c0.4-0.5,1.1-0.6,1.7-0.2c0.5,0.4,0.6,1.1,0.2,1.7l-0.7,1C197.8,303.4,197.4,303.6,197.1,303.6z M201.3,297.9
			c-0.2,0-0.5-0.1-0.7-0.2c-0.5-0.4-0.6-1.1-0.2-1.7l0.7-1c0.4-0.5,1.1-0.6,1.7-0.2c0.5,0.4,0.6,1.1,0.2,1.7l-0.7,1
			C202,297.7,201.7,297.9,201.3,297.9z M205.6,292.2c-0.2,0-0.5-0.1-0.7-0.2c-0.5-0.4-0.6-1.1-0.2-1.7l0.7-1
			c0.4-0.5,1.1-0.6,1.7-0.2c0.5,0.4,0.6,1.1,0.2,1.7l-0.7,1C206.3,292,205.9,292.2,205.6,292.2z M209.8,286.5
			c-0.2,0-0.5-0.1-0.7-0.2c-0.5-0.4-0.6-1.1-0.2-1.7l0.7-1c0.4-0.5,1.1-0.6,1.7-0.2c0.5,0.4,0.6,1.1,0.2,1.7l-0.7,1
			C210.5,286.3,210.2,286.5,209.8,286.5z M214,280.8c-0.2,0-0.5-0.1-0.7-0.2c-0.5-0.4-0.6-1.1-0.2-1.7l0.7-1
			c0.4-0.5,1.1-0.6,1.7-0.2c0.5,0.4,0.6,1.1,0.2,1.7l-0.7,1C214.8,280.6,214.4,280.8,214,280.8z M218.3,275c-0.2,0-0.5-0.1-0.7-0.2
			c-0.5-0.4-0.6-1.1-0.2-1.7l0.7-1c0.4-0.5,1.1-0.6,1.7-0.2c0.5,0.4,0.6,1.1,0.2,1.7l-0.7,1C219,274.9,218.7,275,218.3,275z"/>
	</g>
	<path class="st28" d="M86.1,183.8c0.8,2.1,1.4,3.9,1.4,5c-0.2-4.2-0.6-11.4,0.6-15.2c0-0.1,0-0.2,0.1-0.2c0.9-7.3,2.6-13.8,4.4-19
		c-0.4,0.1-0.8,0.2-1.2,0.3c-7.3,1.2-15.9-3.4-21.8-7.3c-2-1.3-3.8-2.9-5.6-4.7c0,0,0,0.1,0,0.1C76.8,157.8,83.3,175,86.1,183.8z"/>
	<path class="st28" d="M55.6,198.3c0-0.6,0-1.2,0-1.8c-0.1-2.2-0.3-4.3-1-6.3c-0.8-2.2-2.3-7.7-5.2-7.8c-2.3-0.1-3.3,2.7-4.4,4.2
		c-0.8,1-1.7,1.5-2.7,2.3c-1.3,0.9-2,2.1-3.1,3.3c-1.6,1.9-3.6,3.5-5.2,5.5c-1.7,2.1-7.5,10.4-7.8,12.6c-0.2,2.1,4.9,7.5,6.8,8.4
		c1.4,0.7,3.2,1.3,3.3,2.8c0.1,0.5-0.1,1.1,0,1.6c0.2,0.9,1.2,1.4,2.1,1.7c1.1,0.4,2.1,0.8,3.2,1.2c1,0.4,2,0.8,2.8,1.5
		c1.2,1,1.8,2.6,3.2,3.3c1.6,0.9,3.4,0.5,5,1.4c1.2,0.7,1.9,2.6,3.3,3.1c0.4,0.1,0.2-2,0.2-2.3c0-1-0.1-1.9-0.2-2.9
		c-0.1-1.9-0.2-3.7,0-5.6c0.4-4.2,0.6-8.5,0.4-12.8C56.1,207.4,55.6,202.9,55.6,198.3z"/>
	<linearGradient id="SVGID_15_" gradientUnits="userSpaceOnUse" x1="56.8136" y1="142.444" x2="22.4182" y2="144.4209">
		<stop  offset="0.5434" style="stop-color:#39B54A"/>
		<stop  offset="0.5819" style="stop-color:#33AD48"/>
		<stop  offset="0.8616" style="stop-color:#0F7C3C"/>
		<stop  offset="1" style="stop-color:#016938"/>
	</linearGradient>
	<path class="st29" d="M64.1,142.8c0,0,0-0.1,0-0.1c-0.4-0.4-0.8-0.8-1.2-1.3c0,0.1,0.1,0.1,0.1,0.2
		C63.4,141.9,63.7,142.4,64.1,142.8z"/>
	<g>
		<g>
			<linearGradient id="SVGID_16_" gradientUnits="userSpaceOnUse" x1="-0.347" y1="258.2025" x2="87.7367" y2="258.2025">
				<stop  offset="2.688540e-02" style="stop-color:#919395"/>
				<stop  offset="0.4503" style="stop-color:#959799"/>
				<stop  offset="0.888" style="stop-color:#A1A3A6"/>
				<stop  offset="1" style="stop-color:#A5A7AA"/>
			</linearGradient>
			<path class="st30" d="M87.7,189.4c-1.9-3.1-4.3-7.2-6.8-9.7c-2.3-2.8-3.2-7.4-4.9-10.7c-0.8-1.4-1.6-2.8-2.7-4
				c-1.4-1.6-3.3-2.7-5.1-3.8c2-1.7,3.5-3.9,4.4-6.3c-0.2,0.3-2.9,0.6-3.4,0.8c-1.1,0.4-2.1,1-3,1.7c-2,1.4-3.7,3.2-5.5,4.8
				c-0.3,0.2-3.7,2.2-3.5,1.8c2.7-7.7-0.6-17.4,5-24.1c-5,1.7-9.9,5.2-14.8,7.1c-4.9,1.8-9.4,4.7-13.3,8.1c-2.1,1.9-3.8,3.8-5.2,6.2
				c-0.1,0.2-0.2,0.4-0.2,0.5c-1.7,1.6-3,3.4-4.1,5.5c-1.1,2-1.9,4.2-2.6,6.4c-3.8,4.3-8.3,8.7-11.4,13.5c-1.9,2.9-3.2,5.9-5.6,8.5
				C-0.4,201-1.6,208,1,214.9c1.3,3.6,3.3,6.8,5.5,9.9c1.9,2.6,3.1,5.5,5.5,7.8c0.8,0.2,1.6,0.5,2.5,0.7c0.6,0.2,1.2,0.4,1.7,0.7
				c1,0.6,1.6,1.7,2.1,2.7c0.7,1.2,1.3,2.4,2,3.6c3.5,1.7,5.4,3.6,8.2,5.9c1.8,1.5,4.5,4.8,6.9,5.3c1.2,0.3,3.1-1.5,3.9-2.1
				c3.1-2.3,5.9-4.9,8.7-7.6c1.3-1.3,2.6-2.6,3.8-3.9c0.7-0.7,1.7-1.3,0.9-2.2c-0.8-1-2.1-1.7-3.1-2.4c-1.1-0.8-2.2-1.8-3.1-2.8
				c-0.8-0.9-1.4-2-2.3-2.8c-0.8-0.7-1.8-1.1-2.8-1.5c-1.2-0.5-2.4-0.8-3.4-1.6c-1-0.7-1.6-1.9-2.2-2.9c-0.8-1.3-1.6-2.7-3.1-3.1
				c-1.1-0.3-2.1-1.5-2.8-2.3c-0.9-1-1.9-2-2.6-3.2c-0.5-0.7-1.2-1.7-1.1-2.7c0.3-2.2,6.1-10.6,7.8-12.6c1.6-1.9,3.6-3.5,5.2-5.5
				c1-1.2,1.8-2.4,3.1-3.3c1-0.7,1.9-1.2,2.7-2.3c1-1.4,1.8-3.7,3.7-4.1c2.8-0.6,3,2.5,3.7,4.3c2.3,6,3,12.4,2.9,18.7
				c-0.1,7.3-0.9,14.6-0.8,21.9c0.1,4.4,0.5,8.7,0.4,13.1c0,5.2-0.6,10.4-0.9,15.5c-0.4,7-0.3,14,0.3,20.9c0.2,2.6,1,4.6,1.6,7
				c0.7,2.9,0.4,6.2,0.1,9.1c-0.5,6.1-1.8,12.2-1.7,18.4c0.1,4.9,1,9.7,1.2,14.5c0.1,3.9,0.5,8.7-0.6,12.5c-0.3,0.9-0.7,1.8-0.7,2.8
				c0,1.7,1,3.1,1.7,4.6c0.1,0.3,0.3,0.6,0.3,0.9c0,0.5-0.2,0.9-0.4,1.3c-2.4,4.8-1.3,9.9-3,14.8c-1,2.9-1.6,6.7-1.1,9.7
				c2.8,0.3,24.5,4.1,28.3,4c0.1-4.1,0.9-8.2,1.2-12.3c0.2-2.3-0.6-4.5-0.4-6.8c0.2-2.5,1.8-3.8,2.8-5.9c0.6-1.3,0.5-2.5,0.6-3.9
				c0.2-2.4,0.6-4.6,0.4-7c-0.3-5.2-0.1-10.4-0.1-15.6c0-4.3,0-8.7,0-13c0-1.9-0.1-3.9,0-5.8c0.2-3.1,0.7-6.3,1.7-9.2
				c1.1-3.1,1-5.5,1-8.8c0-7.2,0.4-14.4,0.4-21.6c0-15.9,0-31.7,0-47.6c0-9.8,0-19.6,0-29.5C87.7,189.6,87.7,189.4,87.7,189.4z"/>
		</g>
		<defs>
			<filter id="Adobe_OpacityMaskFilter_6_" filterUnits="userSpaceOnUse" x="-0.3" y="139.7" width="88.1" height="237">
				
					<feColorMatrix  type="matrix" values="-1 0 0 0 1  0 -1 0 0 1  0 0 -1 0 1  0 0 0 1 0" color-interpolation-filters="sRGB" result="source"/>
			</filter>
		</defs>
		<mask maskUnits="userSpaceOnUse" x="-0.3" y="139.7" width="88.1" height="237" id="SVGID_17_">
			<g class="st31">
				
					<image style="overflow:visible;" width="93" height="242" xlink:href="A54DA265E40A5E26.jpg"  transform="matrix(1 0 0 1 -3 137)">
				</image>
			</g>
		</mask>
		<g class="st32">
			<path class="st33" d="M87.7,189.4c-1.9-3.1-4.3-7.2-6.8-9.7c-2.3-2.8-3.2-7.4-4.9-10.7c-0.8-1.4-1.6-2.8-2.7-4
				c-1.4-1.6-3.3-2.7-5.1-3.8c2-1.7,3.5-3.9,4.4-6.3c-0.2,0.3-2.9,0.6-3.4,0.8c-1.1,0.4-2.1,1-3,1.7c-2,1.4-3.7,3.2-5.5,4.8
				c-0.3,0.2-3.7,2.2-3.5,1.8c2.7-7.7-0.6-17.4,5-24.1c-5,1.7-9.9,5.2-14.8,7.1c-4.9,1.8-9.4,4.7-13.3,8.1c-2.1,1.9-3.8,3.8-5.2,6.2
				c-0.1,0.2-0.2,0.4-0.2,0.5c-1.7,1.6-3,3.4-4.1,5.5c-1.1,2-1.9,4.2-2.6,6.4c-3.8,4.3-8.3,8.7-11.4,13.5c-1.9,2.9-3.2,5.9-5.6,8.5
				C-0.4,201-1.6,208,1,214.9c1.3,3.6,3.3,6.8,5.5,9.9c1.9,2.6,3.1,5.5,5.5,7.8c0.8,0.2,1.6,0.5,2.5,0.7c0.6,0.2,1.2,0.4,1.7,0.7
				c1,0.6,1.6,1.7,2.1,2.7c0.7,1.2,1.3,2.4,2,3.6c3.5,1.7,5.4,3.6,8.2,5.9c1.8,1.5,4.5,4.8,6.9,5.3c1.2,0.3,3.1-1.5,3.9-2.1
				c3.1-2.3,5.9-4.9,8.7-7.6c1.3-1.3,2.6-2.6,3.8-3.9c0.7-0.7,1.7-1.3,0.9-2.2c-0.8-1-2.1-1.7-3.1-2.4c-1.1-0.8-2.2-1.8-3.1-2.8
				c-0.8-0.9-1.4-2-2.3-2.8c-0.8-0.7-1.8-1.1-2.8-1.5c-1.2-0.5-2.4-0.8-3.4-1.6c-1-0.7-1.6-1.9-2.2-2.9c-0.8-1.3-1.6-2.7-3.1-3.1
				c-1.1-0.3-2.1-1.5-2.8-2.3c-0.9-1-1.9-2-2.6-3.2c-0.5-0.7-1.2-1.7-1.1-2.7c0.3-2.2,6.1-10.6,7.8-12.6c1.6-1.9,3.6-3.5,5.2-5.5
				c1-1.2,1.8-2.4,3.1-3.3c1-0.7,1.9-1.2,2.7-2.3c1-1.4,1.8-3.7,3.7-4.1c2.8-0.6,3,2.5,3.7,4.3c2.3,6,3,12.4,2.9,18.7
				c-0.1,7.3-0.9,14.6-0.8,21.9c0.1,4.4,0.5,8.7,0.4,13.1c0,5.2-0.6,10.4-0.9,15.5c-0.4,7-0.3,14,0.3,20.9c0.2,2.6,1,4.6,1.6,7
				c0.7,2.9,0.4,6.2,0.1,9.1c-0.5,6.1-1.8,12.2-1.7,18.4c0.1,4.9,1,9.7,1.2,14.5c0.1,3.9,0.5,8.7-0.6,12.5c-0.3,0.9-0.7,1.8-0.7,2.8
				c0,1.7,1,3.1,1.7,4.6c0.1,0.3,0.3,0.6,0.3,0.9c0,0.5-0.2,0.9-0.4,1.3c-2.4,4.8-1.3,9.9-3,14.8c-1,2.9-1.6,6.7-1.1,9.7
				c2.8,0.3,24.5,4.1,28.3,4c0.1-4.1,0.9-8.2,1.2-12.3c0.2-2.3-0.6-4.5-0.4-6.8c0.2-2.5,1.8-3.8,2.8-5.9c0.6-1.3,0.5-2.5,0.6-3.9
				c0.2-2.4,0.6-4.6,0.4-7c-0.3-5.2-0.1-10.4-0.1-15.6c0-4.3,0-8.7,0-13c0-1.9-0.1-3.9,0-5.8c0.2-3.1,0.7-6.3,1.7-9.2
				c1.1-3.1,1-5.5,1-8.8c0-7.2,0.4-14.4,0.4-21.6c0-15.9,0-31.7,0-47.6c0-9.8,0-19.6,0-29.5C87.7,189.6,87.7,189.4,87.7,189.4z"/>
		</g>
	</g>
	<g>
		<g>
			<linearGradient id="SVGID_18_" gradientUnits="userSpaceOnUse" x1="61.8069" y1="140.8573" x2="62.9824" y2="140.8573">
				<stop  offset="2.688540e-02" style="stop-color:#919395"/>
				<stop  offset="5.662853e-02" style="stop-color:#939597"/>
				<stop  offset="0.3861" style="stop-color:#A5A7AA"/>
				<stop  offset="0.4462" style="stop-color:#9C9DA0"/>
				<stop  offset="0.7744" style="stop-color:#6C6C6F"/>
				<stop  offset="0.9368" style="stop-color:#59595C"/>
			</linearGradient>
			<path class="st34" d="M62.9,141.3c-0.3-0.4-0.6-0.7-1-1.1c0,0-0.1,0-0.1,0c0.4,0.4,0.8,0.9,1.2,1.3
				C62.9,141.5,62.9,141.4,62.9,141.3z"/>
		</g>
		<defs>
			<filter id="Adobe_OpacityMaskFilter_7_" filterUnits="userSpaceOnUse" x="61.8" y="140.2" width="1.2" height="1.3">
				
					<feColorMatrix  type="matrix" values="-1 0 0 0 1  0 -1 0 0 1  0 0 -1 0 1  0 0 0 1 0" color-interpolation-filters="sRGB" result="source"/>
			</filter>
		</defs>
		<mask maskUnits="userSpaceOnUse" x="61.8" y="140.2" width="1.2" height="1.3" id="SVGID_19_">
			<g class="st35">
				<image style="overflow:visible;" width="6" height="6" xlink:href="A54DA265E40A5E27.jpg"  transform="matrix(1 0 0 1 59 138)">
				</image>
			</g>
		</mask>
		<g class="st36">
			<path class="st37" d="M62.9,141.3c-0.3-0.4-0.6-0.7-1-1.1c0,0-0.1,0-0.1,0c0.4,0.4,0.8,0.9,1.2,1.3
				C62.9,141.5,62.9,141.4,62.9,141.3z"/>
		</g>
	</g>
	<g>
		<g>
			<linearGradient id="SVGID_20_" gradientUnits="userSpaceOnUse" x1="86.8021" y1="258.8128" x2="200.9024" y2="258.8128">
				<stop  offset="2.688540e-02" style="stop-color:#919395"/>
				<stop  offset="3.241393e-02" style="stop-color:#929496"/>
				<stop  offset="0.1857" style="stop-color:#9D9FA1"/>
				<stop  offset="0.4012" style="stop-color:#A3A5A8"/>
				<stop  offset="1" style="stop-color:#A5A7AA"/>
			</linearGradient>
			<path class="st38" d="M88,292.9c1.7,1.4,0.3,5.6,0.4,7.6c0.1,3.2,0.2,6.3,0.5,9.5c0.4,5.3,0.6,10.6,0.5,15.9
				c-0.1,3-1.2,9.3,0.8,12c0.8,1.1,1.6,1.4,1.5,2.9c-0.1,2.1-1.5,4-2,6c-0.7,2.3,0.1,4.6,0.5,6.9c0.6,3-0.8,6.2,0.5,9.1
				c1,2.2,2.8,3.3,1.9,5.9c-0.9,2.7-0.9,5.2-0.8,8.1c1.8,0.5,3.8,0.5,5.7,0.5c3.8,0,7.7,0.2,11.5-0.3c3.3-0.5,6.6-1.3,9.9-1.7
				c0.1-2.3-0.3-4.4-1.1-6.5c-0.8-2-1.3-4.6-0.5-6.7c0.3-0.8,1.5-1.7,1.6-2.7c0.1-1-0.9-2.3-1.2-3.2c-1.4-3.5,1.7-6.4,0.5-9.8
				c-0.5-1.5-1.7-2.5-1.9-4.1c-0.4-2.6-0.1-5.5-0.1-8.1c0.1-3.6-0.2-7.2,0.1-10.9c0.2-3.1,0.7-6.2,0.5-9.2c-0.2-2.9-0.4-5.5-0.1-8.4
				c0.2-1.7-0.2-3.6,0.3-5.2c0.6-1.8,1.4-3.8,1-5.7c-0.3-1.2-1.2-2.1-1.5-3.2c-1-4.4-0.1-9.8,0.1-14.3c0.3-6.5,1-13,1.4-19.6
				c0.3-5.6-0.3-11.1-1-16.7c-0.9-7.4-2-13.9-0.6-21.2c0.4-2.4,0.6-4.8,0.8-7.2c0.7-10.8,0.5-21.5,2-32.1c0.7-5,5.3-5.7,9.4-6
				c6.5-0.4,13.2,0.4,19.7-0.2c5.1-0.4,10.1-1.8,15.3-1.6c3.6,0.1,6.9,1.9,10.6,1.4c1.7-0.2,3.1-0.8,4.9-0.7
				c1.7,0.1,3.5,0.1,5.2,0.4c3.9,0.5,7.2,1,10.6-1.2c6.5-4.2,8.1-17,3.7-23c-0.9-1.2-2-2.9-3.6-2.7c-3.3,0.3-6.6,0.6-9.8,1.5
				c-2.3,0.7-4.1,1.1-6.5,0.8c-1.4-0.2-2.2-1-3.4-1.7c-1.7-1-3.2-1-5.1-0.6c-1.5,0.3-2.8,1.1-4.3,1.1c-2.7-0.1-5.4-0.7-7.8-1.8
				c-2-0.8-4.1-1.5-6.1-2.3c-1.4-0.6-2.6-1.3-4.2-1.4c-6.8-0.4-13.7-0.4-20.6-0.4c-3.1,0-6.1-0.2-8.9-1.5c-1.5-0.7-3.9-0.2-5.6-0.1
				c-1.9,0.1-3.7,0.1-5.6,0.1c-2.8,0-5.6-0.2-8.4,0.2c1.9,3.8,4.1,7.5,6.6,11c0.1,0.1,0.2,0.2,0.2,0.4c0.1,0.6-0.8,0.8-1.4,0.8
				c-2.7-0.2-5.4,0.1-8,0.7c-2.5,0.6-5.2,2-5.9,4.5c-0.2,1,0,2.2,0.9,2.6c0.9,0.4,2.2,0,2.5,0.8c0.2,0.4,0,0.8-0.2,1.2
				c-0.6,1.3-1.4,2.6-1.9,3.9c-0.7,1.8-1.1,3.8-1.4,5.7c-0.6,3.4-1.3,6.8-1.8,10.2c-0.2,1.4-0.1,2.9-0.4,4.2
				c-0.2,1.1-1.2,1.7-1.1,2.8c0.2,3.9,0.3,7.7,0.4,11.6c0.3,13.2-0.1,26.3-0.4,39.5c-0.1,4.4-0.2,8.8-0.2,13.2
				c0,6.1,0,12.3,0.2,18.4c0.1,3.7,0.3,7.3,0.2,11c0,2.5-0.4,5-0.3,7.6c0,0.6,0.1,1.3,0.5,1.7C87.6,292.6,87.8,292.7,88,292.9z"/>
		</g>
		<defs>
			<filter id="Adobe_OpacityMaskFilter_8_" filterUnits="userSpaceOnUse" x="86.8" y="140.2" width="114.1" height="237.1">
				
					<feColorMatrix  type="matrix" values="-1 0 0 0 1  0 -1 0 0 1  0 0 -1 0 1  0 0 0 1 0" color-interpolation-filters="sRGB" result="source"/>
			</filter>
		</defs>
		<mask maskUnits="userSpaceOnUse" x="86.8" y="140.2" width="114.1" height="237.1" id="SVGID_21_">
			<g class="st39">
				
					<image style="overflow:visible;" width="119" height="242" xlink:href="A54DA265E40A5E39.jpg"  transform="matrix(1 0 0 1 84 138)">
				</image>
			</g>
		</mask>
		<g class="st40">
			<path class="st33" d="M88,292.9c1.7,1.4,0.3,5.6,0.4,7.6c0.1,3.2,0.2,6.3,0.5,9.5c0.4,5.3,0.6,10.6,0.5,15.9
				c-0.1,3-1.2,9.3,0.8,12c0.8,1.1,1.6,1.4,1.5,2.9c-0.1,2.1-1.5,4-2,6c-0.7,2.3,0.1,4.6,0.5,6.9c0.6,3-0.8,6.2,0.5,9.1
				c1,2.2,2.8,3.3,1.9,5.9c-0.9,2.7-0.9,5.2-0.8,8.1c1.8,0.5,3.8,0.5,5.7,0.5c3.8,0,7.7,0.2,11.5-0.3c3.3-0.5,6.6-1.3,9.9-1.7
				c0.1-2.3-0.3-4.4-1.1-6.5c-0.8-2-1.3-4.6-0.5-6.7c0.3-0.8,1.5-1.7,1.6-2.7c0.1-1-0.9-2.3-1.2-3.2c-1.4-3.5,1.7-6.4,0.5-9.8
				c-0.5-1.5-1.7-2.5-1.9-4.1c-0.4-2.6-0.1-5.5-0.1-8.1c0.1-3.6-0.2-7.2,0.1-10.9c0.2-3.1,0.7-6.2,0.5-9.2c-0.2-2.9-0.4-5.5-0.1-8.4
				c0.2-1.7-0.2-3.6,0.3-5.2c0.6-1.8,1.4-3.8,1-5.7c-0.3-1.2-1.2-2.1-1.5-3.2c-1-4.4-0.1-9.8,0.1-14.3c0.3-6.5,1-13,1.4-19.6
				c0.3-5.6-0.3-11.1-1-16.7c-0.9-7.4-2-13.9-0.6-21.2c0.4-2.4,0.6-4.8,0.8-7.2c0.7-10.8,0.5-21.5,2-32.1c0.7-5,5.3-5.7,9.4-6
				c6.5-0.4,13.2,0.4,19.7-0.2c5.1-0.4,10.1-1.8,15.3-1.6c3.6,0.1,6.9,1.9,10.6,1.4c1.7-0.2,3.1-0.8,4.9-0.7
				c1.7,0.1,3.5,0.1,5.2,0.4c3.9,0.5,7.2,1,10.6-1.2c6.5-4.2,8.1-17,3.7-23c-0.9-1.2-2-2.9-3.6-2.7c-3.3,0.3-6.6,0.6-9.8,1.5
				c-2.3,0.7-4.1,1.1-6.5,0.8c-1.4-0.2-2.2-1-3.4-1.7c-1.7-1-3.2-1-5.1-0.6c-1.5,0.3-2.8,1.1-4.3,1.1c-2.7-0.1-5.4-0.7-7.8-1.8
				c-2-0.8-4.1-1.5-6.1-2.3c-1.4-0.6-2.6-1.3-4.2-1.4c-6.8-0.4-13.7-0.4-20.6-0.4c-3.1,0-6.1-0.2-8.9-1.5c-1.5-0.7-3.9-0.2-5.6-0.1
				c-1.9,0.1-3.7,0.1-5.6,0.1c-2.8,0-5.6-0.2-8.4,0.2c1.9,3.8,4.1,7.5,6.6,11c0.1,0.1,0.2,0.2,0.2,0.4c0.1,0.6-0.8,0.8-1.4,0.8
				c-2.7-0.2-5.4,0.1-8,0.7c-2.5,0.6-5.2,2-5.9,4.5c-0.2,1,0,2.2,0.9,2.6c0.9,0.4,2.2,0,2.5,0.8c0.2,0.4,0,0.8-0.2,1.2
				c-0.6,1.3-1.4,2.6-1.9,3.9c-0.7,1.8-1.1,3.8-1.4,5.7c-0.6,3.4-1.3,6.8-1.8,10.2c-0.2,1.4-0.1,2.9-0.4,4.2
				c-0.2,1.1-1.2,1.7-1.1,2.8c0.2,3.9,0.3,7.7,0.4,11.6c0.3,13.2-0.1,26.3-0.4,39.5c-0.1,4.4-0.2,8.8-0.2,13.2
				c0,6.1,0,12.3,0.2,18.4c0.1,3.7,0.3,7.3,0.2,11c0,2.5-0.4,5-0.3,7.6c0,0.6,0.1,1.3,0.5,1.7C87.6,292.6,87.8,292.7,88,292.9z"/>
		</g>
	</g>
	<g>
		<g>
			<linearGradient id="SVGID_22_" gradientUnits="userSpaceOnUse" x1="49.597" y1="410.6022" x2="78.853" y2="410.9978">
				<stop  offset="0" style="stop-color:#3C2415"/>
				<stop  offset="8.980604e-02" style="stop-color:#402819"/>
				<stop  offset="0.5399" style="stop-color:#4F3A2C"/>
				<stop  offset="0.6164" style="stop-color:#4C3628"/>
				<stop  offset="1" style="stop-color:#3C2415"/>
			</linearGradient>
			<path class="st41" d="M52.6,422.8c-0.1,3.9-2.4,6.6-4.6,9.7c-2.1,3.1-3.5,7.5-4.4,11c-1.5,6.2,2.7,8.2,8.7,9.1
				c6.8,1.1,17.1,2.6,23.7,0.1c4.2-1.6,4.7-6.9,4.1-10.7c-0.3-2-0.7-4-1.5-5.9c-1.1-2.5-2.9-5-3.3-7.9c-0.6-4.4,10.4-58.6,7.2-58.7
				c-20.2,3.4-30.2-2.3-32.7-2.2c-0.2,3.4,0.5,27.3,0.6,30.7C50.6,402.5,52.6,419,52.6,422.8z"/>
		</g>
		<defs>
			<filter id="Adobe_OpacityMaskFilter_9_" filterUnits="userSpaceOnUse" x="43.3" y="367.4" width="39.8" height="86.7">
				
					<feColorMatrix  type="matrix" values="-1 0 0 0 1  0 -1 0 0 1  0 0 -1 0 1  0 0 0 1 0" color-interpolation-filters="sRGB" result="source"/>
			</filter>
		</defs>
		<mask maskUnits="userSpaceOnUse" x="43.3" y="367.4" width="39.8" height="86.7" id="SVGID_23_">
			<g class="st42">
				
					<image style="overflow:visible;" width="45" height="92" xlink:href="E43878B9F57F9BF2.jpg"  transform="matrix(1 0 0 1 41 365)">
				</image>
			</g>
		</mask>
		<g class="st43">
			<path class="st44" d="M52.6,422.8c-0.1,3.9-2.4,6.6-4.6,9.7c-2.1,3.1-3.5,7.5-4.4,11c-1.5,6.2,2.7,8.2,8.7,9.1
				c6.8,1.1,17.1,2.6,23.7,0.1c4.2-1.6,4.7-6.9,4.1-10.7c-0.3-2-0.7-4-1.5-5.9c-1.1-2.5-2.9-5-3.3-7.9c-0.6-4.4,10.4-58.6,7.2-58.7
				c-20.2,3.4-30.2-2.3-32.7-2.2c-0.2,3.4,0.5,27.3,0.6,30.7C50.6,402.5,52.6,419,52.6,422.8z"/>
		</g>
	</g>
	<g>
		<g>
			<path class="st45" d="M93.1,141.9c-0.3,2.8-0.4,5.6-1.2,8.3c-1,3.8-2.9,7.1-3.7,11c-0.9,4.2-1.4,8.5-1.7,12.8
				c-0.3,5,0.3,10.2,1,16c0.9-1.3,2.7-13.5,3.2-15.9c0.5-2.5,1.4-5,2.3-7.4c0.7-1.9,1.4-3.8,2.1-5.6c0.2-0.6,0.4-1.3-0.1-1.7
				c-0.4-0.3-0.9-0.2-1.3-0.1c-0.6,0.1-1.3,0-1.9-0.2c-0.1,0-0.2-0.1-0.3-0.2c-0.3-0.2-0.2-0.6,0-0.9c2.5-2.8,6.2-2.9,9.7-3
				c2.3-0.1,4.7-1,7-1c-2.1-3.1-4.1-6.2-6.2-9.4c-1-1.6-2.1-3.1-3.1-4.7c-0.7-1-3.5-3-4.6-3.6C93.9,138.2,93.3,140,93.1,141.9z"/>
		</g>
		<defs>
			<filter id="Adobe_OpacityMaskFilter_10_" filterUnits="userSpaceOnUse" x="86.5" y="136.3" width="21.7" height="53.7">
				
					<feColorMatrix  type="matrix" values="-1 0 0 0 1  0 -1 0 0 1  0 0 -1 0 1  0 0 0 1 0" color-interpolation-filters="sRGB" result="source"/>
			</filter>
		</defs>
		<mask maskUnits="userSpaceOnUse" x="86.5" y="136.3" width="21.7" height="53.7" id="SVGID_24_">
			<g class="st46">
				
					<image style="overflow:visible;" width="27" height="58" xlink:href="E43878B9F57F9BF5.jpg"  transform="matrix(1 0 0 1 84 134)">
				</image>
			</g>
		</mask>
		<g class="st47">
			<path class="st33" d="M93.1,141.9c-0.3,2.8-0.4,5.6-1.2,8.3c-1,3.8-2.9,7.1-3.7,11c-0.9,4.2-1.4,8.5-1.7,12.8
				c-0.3,5,0.3,10.2,1,16c0.9-1.3,2.7-13.5,3.2-15.9c0.5-2.5,1.4-5,2.3-7.4c0.7-1.9,1.4-3.8,2.1-5.6c0.2-0.6,0.4-1.3-0.1-1.7
				c-0.4-0.3-0.9-0.2-1.3-0.1c-0.6,0.1-1.3,0-1.9-0.2c-0.1,0-0.2-0.1-0.3-0.2c-0.3-0.2-0.2-0.6,0-0.9c2.5-2.8,6.2-2.9,9.7-3
				c2.3-0.1,4.7-1,7-1c-2.1-3.1-4.1-6.2-6.2-9.4c-1-1.6-2.1-3.1-3.1-4.7c-0.7-1-3.5-3-4.6-3.6C93.9,138.2,93.3,140,93.1,141.9z"/>
		</g>
	</g>
	<g>
		<g>
			<radialGradient id="SVGID_25_" cx="61.7617" cy="440.4437" r="16.2417" gradientUnits="userSpaceOnUse">
				<stop  offset="0.1551" style="stop-color:#6D5B4F"/>
				<stop  offset="0.6809" style="stop-color:#4C3628"/>
				<stop  offset="1" style="stop-color:#3C2415"/>
			</radialGradient>
			<path class="st48" d="M50.4,429c-1.2,1.5-1.6,2.3-2.4,3.4c-2.1,3.1-3.5,7.5-4.4,11c-1.5,6.2,2.7,8.2,8.7,9.1
				c6.8,1.1,17.1,2.6,23.7,0.1c4.2-1.6,4.5-6.9,4.1-10.7c-0.2-1.9-1.7-7.6-4.4-12.1C75.6,429.7,61.8,423.7,50.4,429z"/>
		</g>
		<defs>
			<filter id="Adobe_OpacityMaskFilter_11_" filterUnits="userSpaceOnUse" x="43.3" y="426.8" width="37" height="27.3">
				
					<feColorMatrix  type="matrix" values="-1 0 0 0 1  0 -1 0 0 1  0 0 -1 0 1  0 0 0 1 0" color-interpolation-filters="sRGB" result="source"/>
			</filter>
		</defs>
		<mask maskUnits="userSpaceOnUse" x="43.3" y="426.8" width="37" height="27.3" id="SVGID_26_">
			<g class="st49">
				
					<image style="overflow:visible;" width="42" height="33" xlink:href="E43878B9F57F9BF6.jpg"  transform="matrix(1 0 0 1 41 424)">
				</image>
			</g>
		</mask>
		<g class="st50">
			<path class="st44" d="M50.4,429c-1.2,1.5-1.6,2.3-2.4,3.4c-2.1,3.1-3.5,7.5-4.4,11c-1.5,6.2,2.7,8.2,8.7,9.1
				c6.8,1.1,17.1,2.6,23.7,0.1c4.2-1.6,4.5-6.9,4.1-10.7c-0.2-1.9-1.7-7.6-4.4-12.1C75.6,429.7,61.8,423.7,50.4,429z"/>
		</g>
	</g>
	<path class="st28" d="M60.8,66.9c0.1-0.5,0.1-0.9,0.2-1.1c-0.1,0-0.1,0.1-0.2,0.1C60.8,66,60.8,66.4,60.8,66.9z"/>
	<g>
		<linearGradient id="SVGID_27_" gradientUnits="userSpaceOnUse" x1="62.2662" y1="141.0709" x2="94.3302" y2="141.0709">
			<stop  offset="0" style="stop-color:#FFE5C2"/>
			<stop  offset="3.146833e-02" style="stop-color:#FFE3BD"/>
			<stop  offset="0.2151" style="stop-color:#FFDAA8"/>
			<stop  offset="0.4182" style="stop-color:#FFD498"/>
			<stop  offset="0.6542" style="stop-color:#FED08F"/>
			<stop  offset="1" style="stop-color:#FECF8D"/>
		</linearGradient>
		<path class="st51" d="M62.3,129c0.7,2.7,0.8,12.6,2.1,14.2c0.4,0.5,5.3,6.9,10.9,8.7c4.5,1.4,11.9,1.7,16.2-0.4
			c0.9-3.5,2.8-11.7,2.8-15.3"/>
	</g>
	<g>
		<g>
			<g>
				<linearGradient id="SVGID_28_" gradientUnits="userSpaceOnUse" x1="44.1383" y1="96.8765" x2="108.0837" y2="96.8765">
					<stop  offset="0.1555" style="stop-color:#FFE5C2"/>
					<stop  offset="0.652" style="stop-color:#FFD7A0"/>
					<stop  offset="1" style="stop-color:#FECF8D"/>
				</linearGradient>
				<path class="st52" d="M96.8,46.8c0,0-10.7,1.3-35.8,11.3c0,0.2-0.1,0.6-0.2,1.1c-0.8,5.2-2.7,24.4-2.9,26.1
					c-0.1,0.9-0.2,2-1.2,2.4c-0.3,0.1-0.7,0.1-1,0.1c-0.9,0-1.6-0.2-2.3-0.7c-0.9-0.6-1.6-1.4-2.1-2.3c-0.4-0.7-0.9-1.4-1.2-2.2
					c-0.2-0.6-0.4-1.3-0.7-1.9c-0.1-0.2-0.2-0.3-0.3-0.4c-0.6,0.4-3.4,2.5-4.7,6.5c-0.7,2.2-0.3,4.8,0.1,7.1
					c0.4,2.1,1.2,4.3,2.9,5.8c0.9,0.7,1.9,1,2.9,1.4c0.3,0.1,3.4,0.9,3.4,0.7c0.2,1.6-0.2,3.1-0.4,4.7c-0.1,0.9-0.3,1.7-0.4,2.6
					c-0.3,1.8-0.6,3.6-0.8,5.4c-0.2,2.3-0.1,4.5,0.7,6.5c0.3,0.8,0.7,1.6,1.2,2.3c0.4,0.6,0.8,1.1,1.3,1.7c2,2.5,4.2,4.9,6.2,7.4
					c0.1,0.1,0.1,0.2,0.2,0.2c0.3,0.4,0.6,0.8,1,1.1c0.4,0.5,0.8,0.9,1.2,1.3c1.8,1.9,3.6,3.4,5.6,4.7c5.8,3.8,14.5,8.5,21.8,7.3
					c0.4-0.1,0.8-0.2,1.2-0.3c4.9-1.7,5.4-8.2,6.2-12.6c0.1-0.6,0.2-1.1,0.4-1.7c1.6-6.9,5.1-13.3,7-20.1c0.9-3.3,2.2-6.5,1.9-10
					c-0.3-3.6-1.4-7-2.7-10.4c-1.9-4.9-3.6-10.5-4.3-15.8c-0.3-1.9-0.4-3.7,0.1-5.6c0.3-1.1,5.8-17.6,5-23.1
					C104,46.7,99.9,46.4,96.8,46.8z"/>
			</g>
			<defs>
				<filter id="Adobe_OpacityMaskFilter_12_" filterUnits="userSpaceOnUse" x="44.1" y="46.6" width="63.9" height="100.5">
					
						<feColorMatrix  type="matrix" values="-1 0 0 0 1  0 -1 0 0 1  0 0 -1 0 1  0 0 0 1 0" color-interpolation-filters="sRGB" result="source"/>
				</filter>
			</defs>
			<mask maskUnits="userSpaceOnUse" x="44.1" y="46.6" width="63.9" height="100.5" id="SVGID_29_">
				<g class="st53">
					
						<image style="overflow:visible;" width="69" height="106" xlink:href="E43878B9F57F9BF4.jpg"  transform="matrix(1 0 0 1 42 44)">
					</image>
				</g>
			</mask>
			<g class="st54">
				<path class="st55" d="M96.8,46.8c0,0-10.7,1.3-35.8,11.3c0,0.2-0.1,0.6-0.2,1.1c-0.8,5.2-2.7,24.4-2.9,26.1
					c-0.1,0.9-0.2,2-1.2,2.4c-0.3,0.1-0.7,0.1-1,0.1c-0.9,0-1.6-0.2-2.3-0.7c-0.9-0.6-1.6-1.4-2.1-2.3c-0.4-0.7-0.9-1.4-1.2-2.2
					c-0.2-0.6-0.4-1.3-0.7-1.9c-0.1-0.2-0.2-0.3-0.3-0.4c-0.6,0.4-3.4,2.5-4.7,6.5c-0.7,2.2-0.3,4.8,0.1,7.1
					c0.4,2.1,1.2,4.3,2.9,5.8c0.9,0.7,1.9,1,2.9,1.4c0.3,0.1,3.4,0.9,3.4,0.7c0.2,1.6-0.2,3.1-0.4,4.7c-0.1,0.9-0.3,1.7-0.4,2.6
					c-0.3,1.8-0.6,3.6-0.8,5.4c-0.2,2.3-0.1,4.5,0.7,6.5c0.3,0.8,0.7,1.6,1.2,2.3c0.4,0.6,0.8,1.1,1.3,1.7c2,2.5,4.2,4.9,6.2,7.4
					c0.1,0.1,0.1,0.2,0.2,0.2c0.3,0.4,0.6,0.8,1,1.1c0.4,0.5,0.8,0.9,1.2,1.3c1.8,1.9,3.6,3.4,5.6,4.7c5.8,3.8,14.5,8.5,21.8,7.3
					c0.4-0.1,0.8-0.2,1.2-0.3c4.9-1.7,5.4-8.2,6.2-12.6c0.1-0.6,0.2-1.1,0.4-1.7c1.6-6.9,5.1-13.3,7-20.1c0.9-3.3,2.2-6.5,1.9-10
					c-0.3-3.6-1.4-7-2.7-10.4c-1.9-4.9-3.6-10.5-4.3-15.8c-0.3-1.9-0.4-3.7,0.1-5.6c0.3-1.1,5.8-17.6,5-23.1
					C104,46.7,99.9,46.4,96.8,46.8z"/>
			</g>
		</g>
		<g>
			<path class="st56" d="M100.3,112.1c-7.3,2.8-14.6,3.5-22.2,2.1c-4.3-0.8-14.6-1.9-15.7-7.2c-0.1-0.7-0.9-0.7-0.7,0
				c1.1,5.7,10.9,7.4,15.4,8.2c8.2,1.6,16.1,0.7,23.9-2.3C102.1,112.5,101.1,111.8,100.3,112.1L100.3,112.1z"/>
		</g>
		<g>
			<path class="st57" d="M64,66.8c2.8-1.9,5.9-2.9,9.2-1.9c0.7,0.2,2.3-1.4,1.6-1.6c-3.9-1.2-7.7,0.1-11,2.3
				C63,66.2,62.7,67.7,64,66.8L64,66.8z"/>
		</g>
		<g>
			<path class="st57" d="M98,65.6c-2.8-1.8-5.9-2.8-9.2-1.7c-0.7,0.2-2.4-1.4-1.7-1.6c3.9-1.3,7.7-0.1,11,2.1
				C99,65,99.3,66.5,98,65.6L98,65.6z"/>
		</g>
		<g>
			<g>
				<path class="st56" d="M85.4,125.8c-2.9,3.4-1.1,8.8-1,12.8c0,0.2,1.2,0,1.1-0.3c-0.1-4-1.9-9.3,1-12.7
					C86.6,125.5,85.6,125.5,85.4,125.8L85.4,125.8z"/>
			</g>
		</g>
		<g>
			<path class="st58" d="M90.2,101.8c5.4,0,7.3-7.5,3-10.5c-0.4-0.3-0.8-0.5-1.2-0.7c-0.9-0.4-1.8-0.8-2.6-1.4
				c-0.2-0.2-0.3-0.3-0.5-0.5c-0.1-0.2-0.2-0.5-0.3-0.6c-0.3-0.3-0.1,0.6,0,0.7c0.7,1.7,2.7,2.5,4,3.7c1.2,1.1,1.6,3.3,1,4.7
				c-0.7,1.8-1.9,2.2-3.6,2.4c-2,0.2-4-1.3-5.7-2.3c-0.7-0.4-1.8-1.6-2.6-1.7c-0.4,0-2.2,5-6,3.8c-1.3-0.4-0.8-1.8,0-2.2
				c-1.3-0.6-2.7,0.2-2.2,1.7c0.4,1,2.1,1.9,3.1,2c2.9,0.2,4.2-1.7,5.6-3.9C84.9,98.9,86.7,101.8,90.2,101.8z"/>
		</g>
		<g>
			<g>
				<path class="st57" d="M51.4,84.7c0.5,0.9,1.2,1.7,2.1,2.3c0.7,0.5,1.4,0.7,2.3,0.7c0.3,0,0.8,0.1,1-0.1c0.9-0.4,1.1-1.6,1.2-2.4
					c0.2-1.7,2.1-20.9,2.9-26.1c0-0.5,0-0.8,0-1c-0.1,0-0.2,0.1-0.4,0.1c0-0.1,0-0.2,0-0.2l-0.2,0.2c0,0,0,0,0,0
					c-3.2,2-7.6,6.9-13.9,9.5c0.7,3.4,2.1,8.7,3.2,12.8c0.3,0.6,0.5,1.3,0.7,1.9C50.5,83.3,51,84,51.4,84.7z"/>
			</g>
			<defs>
				<filter id="Adobe_OpacityMaskFilter_13_" filterUnits="userSpaceOnUse" x="46.3" y="58" width="14.6" height="29.7">
					
						<feColorMatrix  type="matrix" values="-1 0 0 0 1  0 -1 0 0 1  0 0 -1 0 1  0 0 0 1 0" color-interpolation-filters="sRGB" result="source"/>
				</filter>
			</defs>
			<mask maskUnits="userSpaceOnUse" x="46.3" y="58" width="14.6" height="29.7" id="SVGID_30_">
				<g class="st59">
					
						<image style="overflow:visible;" width="19" height="34" xlink:href="E43878B9F57F9BF3.jpg"  transform="matrix(1 0 0 1 44 56)">
					</image>
				</g>
			</mask>
			<g class="st60">
				<path class="st61" d="M51.4,84.7c0.5,0.9,1.2,1.7,2.1,2.3c0.7,0.5,1.4,0.7,2.3,0.7c0.3,0,0.8,0.1,1-0.1c0.9-0.4,1.1-1.6,1.2-2.4
					c0.2-1.7,2.1-20.9,2.9-26.1c0-0.5,0-0.8,0-1c-0.1,0-0.2,0.1-0.4,0.1c0-0.1,0-0.2,0-0.2l-0.2,0.2c0,0,0,0,0,0
					c-3.2,2-7.6,6.9-13.9,9.5c0.7,3.4,2.1,8.7,3.2,12.8c0.3,0.6,0.5,1.3,0.7,1.9C50.5,83.3,51,84,51.4,84.7z"/>
			</g>
		</g>
		<g>
			<g>
				<linearGradient id="SVGID_31_" gradientUnits="userSpaceOnUse" x1="57.4281" y1="36.5053" x2="39.2939" y2="43.9955">
					<stop  offset="0.3861" style="stop-color:#8AC440"/>
					<stop  offset="0.4619" style="stop-color:#7DC142"/>
					<stop  offset="0.7796" style="stop-color:#4CB648"/>
					<stop  offset="0.9368" style="stop-color:#39B24A"/>
				</linearGradient>
				<path class="st62" d="M60.2,58.3l0.2-0.2C72.2,50.4,86,42.3,100.7,36c0.4-0.2,0.9-8.6,0.9-9.5c0-4.3,0.6-9.3-1.1-13.4
					C100,12,99.4,11,98.6,10c-1.6-2-3.8-3.4-6-4.5c-5-2.3-10.9-2.9-16.3-2c-8.2,1.3-15.2,4.1-21,9.6c-5.1,4.8-9.6,10.8-11.8,17.5
					c-2.3,7.2,1,31.8,2.6,37.3c0.1,0,0.2-0.1,0.2-0.1C52.6,65.1,56.9,60.3,60.2,58.3z"/>
			</g>
			<defs>
				<filter id="Adobe_OpacityMaskFilter_14_" filterUnits="userSpaceOnUse" x="42.6" y="3.2" width="59.1" height="64.8">
					
						<feColorMatrix  type="matrix" values="-1 0 0 0 1  0 -1 0 0 1  0 0 -1 0 1  0 0 0 1 0" color-interpolation-filters="sRGB" result="source"/>
				</filter>
			</defs>
			<mask maskUnits="userSpaceOnUse" x="42.6" y="3.2" width="59.1" height="64.8" id="SVGID_32_">
				<g class="st63">
					
						<image style="overflow:visible;" width="64" height="69" xlink:href="E43878B9F57F9BED.jpg"  transform="matrix(1 0 0 1 40 1)">
					</image>
				</g>
			</mask>
			<g class="st64">
				<path class="st21" d="M60.2,58.3l0.2-0.2C72.2,50.4,86,42.3,100.7,36c0.4-0.2,0.9-8.6,0.9-9.5c0-4.3,0.6-9.3-1.1-13.4
					C100,12,99.4,11,98.6,10c-1.6-2-3.8-3.4-6-4.5c-5-2.3-10.9-2.9-16.3-2c-8.2,1.3-15.2,4.1-21,9.6c-5.1,4.8-9.6,10.8-11.8,17.5
					c-2.3,7.2,1,31.8,2.6,37.3c0.1,0,0.2-0.1,0.2-0.1C52.6,65.1,56.9,60.3,60.2,58.3z"/>
			</g>
		</g>
		<g>
			<linearGradient id="SVGID_33_" gradientUnits="userSpaceOnUse" x1="63.1291" y1="76.0015" x2="78.8442" y2="76.0015">
				<stop  offset="0" style="stop-color:#FFFFFF"/>
				<stop  offset="0.5597" style="stop-color:#FDFEFE"/>
				<stop  offset="0.7613" style="stop-color:#F6FCFC"/>
				<stop  offset="0.9045" style="stop-color:#EBF7F8"/>
				<stop  offset="1" style="stop-color:#DDF2F3"/>
			</linearGradient>
			<circle class="st65" cx="71" cy="76" r="7.9"/>
			<g>
				<circle class="st66" cx="67.1" cy="74.4" r="3.4"/>
				<circle class="st17" cx="67.9" cy="72.6" r="0.9"/>
			</g>
		</g>
		<g>
			<linearGradient id="SVGID_34_" gradientUnits="userSpaceOnUse" x1="84.0702" y1="74.3817" x2="99.7853" y2="74.3817">
				<stop  offset="0" style="stop-color:#FFFFFF"/>
				<stop  offset="0.5597" style="stop-color:#FDFEFE"/>
				<stop  offset="0.7613" style="stop-color:#F6FCFC"/>
				<stop  offset="0.9045" style="stop-color:#EBF7F8"/>
				<stop  offset="1" style="stop-color:#DDF2F3"/>
			</linearGradient>
			<circle class="st67" cx="91.9" cy="74.4" r="7.9"/>
			<g>
				<circle class="st66" cx="88" cy="72.8" r="3.4"/>
				<circle class="st17" cx="88.9" cy="71" r="0.9"/>
			</g>
		</g>
		<g>
			<g>
				<path class="st56" d="M48.3,87.2c-1.5,1-2.1,2.9-1.2,4.5c0.4,0.7,1.1,1.4,1.9,1.6c0.4,0.1,0.9,0.1,1.4,0.1
					c0.6,0,0.7-0.1,1.2,0.4c0.5,0.6,0.2,1.1-0.5,1.7c-0.6,0.5,0.3,0.7,0.7,0.4c1.1-0.8,2.2-2.9,0.1-3.2c-1.3-0.2-2.5,0.3-3.5-1
					c-1-1.3-0.9-3.2,0.5-4.1C49.7,87.2,48.7,86.9,48.3,87.2L48.3,87.2z"/>
			</g>
		</g>
		<g>
			<linearGradient id="SVGID_35_" gradientUnits="userSpaceOnUse" x1="57.3562" y1="31.0707" x2="102.5407" y2="31.0707">
				<stop  offset="1.321349e-02" style="stop-color:#FFFFFF"/>
				<stop  offset="1" style="stop-color:#F1F1F2"/>
			</linearGradient>
			<path class="st68" d="M60.4,55.9c-2.2-7.5-3.3-14.7-3-22.6c0.3-8.2,2.5-15.2,7.1-20.2c2.4-2.6,5-5.3,8.1-7.2
				c4.3-2.7,11.8-2.4,19.1,0.8c4.3,1.8,9.4,5.7,10.3,10.4c1.2,6.4,0.1,13.1-1.1,19.3c0-0.3-40.1,21.1-39.9,21.7
				C60.8,57.4,60.6,56.6,60.4,55.9z"/>
		</g>
		<g>
			<g>
				<path class="st11" d="M77.1,37.3c0-0.9,0.9-1.7,2.3-2c1.5-0.4,2.3,0.1,2.3,0.8c0,0.1,0,0.2-0.1,0.2l-1.9,0.5
					c-0.1,0-0.2,0-0.2-0.1l0-0.3c0-0.1-0.1-0.1-0.2-0.1c-0.1,0-0.2,0.1-0.2,0.1l0,1.6c0,0.1,0.1,0.1,0.2,0c0.1,0,0.2-0.1,0.2-0.1
					l0-0.5c0,0,0-0.1,0.1-0.1l1.9-0.4c0.1,0,0.1,0,0.1,0c0,1.2-1,1.9-2.3,2.2c-1.4,0.4-2.2-0.1-2.2-0.8L77.1,37.3z"/>
				<path class="st11" d="M83.8,34.2c0.1,0,0.1,0,0.1,0l0,2.6c0,0.1,0.1,0.1,0.2,0.1c0.1,0,0.2-0.1,0.2-0.1l0-2.6
					c0,0,0.1-0.1,0.1-0.1l1.7-0.4c0.1,0,0.1,0,0.1,0l0,2.7c0,0.5-0.8,1.2-2.1,1.6c-1.3,0.3-2.1,0-2.1-0.5l0-2.7c0,0,0-0.1,0.1-0.1
					L83.8,34.2z"/>
				<path class="st11" d="M89,32.9c0.9-0.2,2-0.1,2,0.5c0,0.3-0.1,0.8-1.1,1.1l0,0c1.2-0.1,1.2,0.2,1.2,0.7c0,0.1,0.1,0.1,0.3,0.1
					c0.1,0,0.1,0,0.1,0c0,0.7-1,1-1.3,1.1c-0.7,0.2-1.2,0.1-1.2-0.4l0-0.8c0-0.2-0.1-0.2-0.3-0.2c-0.1,0-0.1,0-0.1,0.1l0,1.6
					c0,0-0.1,0.1-0.1,0.1l-1.7,0.4c-0.1,0-0.1,0-0.1,0l0-3.6c0,0,0.1-0.1,0.1-0.1L89,32.9z M88.6,34.5
					C88.6,34.6,88.6,34.6,88.6,34.5c0.3,0,0.3-0.2,0.3-0.4c0-0.1-0.1-0.1-0.2-0.1c-0.1,0-0.1,0-0.1,0.1L88.6,34.5z"/>
				<path class="st11" d="M91.7,32.2c0,0,0.1-0.1,0.1-0.1l3.6-0.9c0.1,0,0.1,0,0.1,0l0,0.9c0,0-0.1,0.1-0.1,0.1l-1.7,0.4
					c0,0-0.1,0-0.1,0.1l0,0.3c0,0,0,0,0.1,0l0.8-0.2c0,0,0.1,0,0.1,0l0,0.9c0,0,0,0.1-0.1,0.1L93.7,34c0,0-0.1,0-0.1,0.1l0,0.3
					c0,0,0,0,0.1,0l1.8-0.4c0.1,0,0.1,0,0.1,0l0,0.9c0,0-0.1,0.1-0.1,0.1l-3.6,0.9c-0.1,0-0.1,0-0.1,0L91.7,32.2z"/>
			</g>
			<g>
				<g>
					<path class="st69" d="M95.7,18.6c0-0.1-1.6-0.1-2,0c0,0-0.2,0.3-0.3,0.4c-0.6,0.7,0.2,5.7,0.1,5.6c-1.9-1.5-1.8-4.9-1.8-4.9
						c0-0.1-0.1-0.2-0.2-0.1l-2.7,0.7c0,0,0,0,0,0c0,0-0.1,0-0.1,0l-2.3,0.2c-0.1,0-0.3,0.4-0.4,0.7C86,21.4,86.4,24,85,26.4
						c0,0.1,0.9-5.4,0.2-5.2c-0.1,0-0.2,0.1-0.3,0.1l-1.3,0c-0.1,0-0.4,0.6-0.5,0.7c0,0,0.5,2.7-0.7,5c0,0.1,0.3-4.8-0.2-4.9
						c-0.1,0-0.2,0-0.3,0c0,0-1.1-0.1-1.7,0.1c-0.2,0.2-0.2,0.3-0.3,0.5c0.9,0.6,0.5,6.9,0.3,9.4c-0.8-8.5-1.6-9.1-1.7-9.1l-2.5,0.3
						c-0.3,0-0.7,0.1-0.8,0.2c-0.4,0.2-0.8,0.9-0.8,0.9c0,0,0.8,4.7-2.2,11.9c0,0,0-0.1,0-0.1c0,0,1.3-9.6,0.2-11.3
						c-0.1-0.2-0.3-0.1-0.4,0l-3.4,0.5c-0.1,0-0.4,0.6-0.4,0.7l0,15.4c0,0.1,0.1,0.3,0.2,0.2l7.5-1.9c0.1,0,0.5-0.4,0.5-0.6
						l-0.2-3.7c0,0,0,0,0,0c0-1.1,0-2.2,0.1-2.7c0.2-0.4,1.4-0.7,1.4-0.7c-0.1,2.2,0.2,3,0.4,3l3.9-1c0,0,0,0,0,0l1.3-0.3
						c0.1,0,0.4-0.5,0.4-0.5c-0.4-1.3,0.5-4,0.5-4C83.9,32,84.9,33,84.9,33c0.1,0.1,0.1,0.1,0.2,0.1l2.3-0.6c0.1,0,0.4-0.4,0.4-0.5
						c0,0-0.6-6.3,0.9-10.7c-0.2,2-0.7,6.9,0.1,10.6c0,0,0,0.2,0.2,0.2l2.4-0.6c0.1,0,0.4-0.3,0.5-0.6c0.3-1.5-0.7-4-0.6-4
						c1.2,0.8,1.3,4.1,1.3,4.1c0,0.1,0.1,0.1,0.2,0.1l2.9-0.7c0.2-0.1,0.5-0.5,0.5-0.6L95.7,18.6z M76.2,30.5
						c-0.4-1.2,0.7-3.8,0.7-3.8c0.3,1.8,0.6,3.4,0.7,3.4C77.7,30.2,76.3,30.7,76.2,30.5z"/>
				</g>
			</g>
			<g>
				<path class="st11" d="M96,18.1c0-0.1-2.1,0.4-2.2,0.5c-0.7,0.3,0.2,5.7,0.1,5.6c-1.9-1.5-1.8-4.9-1.8-4.9c0-0.1-0.1-0.2-0.2-0.1
					l-2.7,0.7c0,0,0,0,0,0c0,0-0.1,0-0.1,0l-2.5,0.6c-0.1,0-0.1,0-0.2,0.2c-0.1,0.3,0.4,2.8-1.1,5.2c0,0.1,0.9-5.4,0.2-5.2
					c-0.1,0-0.2,0.1-0.3,0.1l-1.6,0.4c-0.1,0-0.2,0.1-0.2,0.3c0,0,0.5,2.7-0.7,5c0,0.1,0.3-4.8-0.2-4.9c-0.1,0-0.2,0-0.3,0
					c0,0-1.5,0.3-2.1,0.6c0.9,0.6,0.5,6.9,0.3,9.4c-0.8-8.5-1.6-9.1-1.7-9.1l-3.1,0.8c-0.9,0.1-1,0.5-1,0.6c0,0,0.8,4.7-2.2,11.9
					c0,0,0-0.1,0-0.1c0,0,1.3-9.6,0.2-11.3c-0.1-0.2-0.3-0.1-0.4,0l-3.6,0.9c-0.1,0-0.3,0.2-0.3,0.4l0,15.4c0,0.1,0.1,0.3,0.2,0.2
					l7.5-1.9c0.1,0,0.2-0.2,0.2-0.3l0-4c0,0,0,0,0,0c0-1.1,0-2.2,0.1-2.7c0.2-0.4,1.4-0.7,1.4-0.7c-0.1,2.2,0.2,3,0.4,3l3.9-1
					c0,0,0,0,0,0l1.3-0.3c0.1,0,0.2-0.2,0.2-0.2c-0.4-1.3,0.7-4.3,0.7-4.3c-0.2,2.9,0.7,3.9,0.7,3.9c0.1,0.1,0.1,0.2,0.2,0.1
					l2.3-0.6c0.1,0,0.2-0.1,0.2-0.3c0,0-0.4-6.5,1.1-10.9c-0.2,2-0.7,6.9,0.1,10.6c0,0,0,0.2,0.2,0.2l2.4-0.6c0.1,0,0.2-0.2,0.2-0.3
					c0.4-1.5-0.4-4.4-0.4-4.3c1.2,0.8,1.3,4.1,1.3,4.1c0,0.1,0.1,0.1,0.2,0.1l2.9-0.7c0.1,0,0.2-0.1,0.2-0.2L96,18.1z M76.5,30.1
					c-0.4-1.2,0.7-3.8,0.7-3.8c0.3,1.8,0.6,3.4,0.7,3.4C78,29.7,76.6,30.2,76.5,30.1z"/>
			</g>
			<g>
				<path class="st69" d="M77.4,36.9c0-0.9,0.9-1.7,2.3-2c1.5-0.4,2.3,0.1,2.3,0.8c0,0.1,0,0.2-0.1,0.2L80,36.4
					c-0.1,0-0.2,0-0.2-0.1l0-0.3c0-0.1-0.1-0.1-0.2-0.1c-0.1,0-0.2,0.1-0.2,0.1l0,1.6c0,0.1,0.1,0.1,0.2,0c0.1,0,0.2-0.1,0.2-0.1
					l0-0.5c0,0,0-0.1,0.1-0.1l1.9-0.4c0.1,0,0.1,0,0.1,0c0,1.2-1,1.9-2.3,2.2c-1.4,0.4-2.2-0.1-2.2-0.8L77.4,36.9z"/>
				<path class="st69" d="M84.1,33.8c0.1,0,0.1,0,0.1,0l0,2.6c0,0.1,0.1,0.1,0.2,0.1c0.1,0,0.2-0.1,0.2-0.1l0-2.6
					c0,0,0.1-0.1,0.1-0.1l1.7-0.4c0.1,0,0.1,0,0.1,0l0,2.7c0,0.5-0.8,1.2-2.1,1.6c-1.3,0.3-2.1,0-2.1-0.5l0-2.7c0,0,0-0.1,0.1-0.1
					L84.1,33.8z"/>
				<path class="st69" d="M89.3,32.5c0.9-0.2,2-0.1,2,0.5c0,0.3-0.1,0.8-1.1,1.1l0,0c1.2-0.1,1.2,0.2,1.2,0.7c0,0.1,0.1,0.1,0.3,0.1
					c0.1,0,0.1,0,0.1,0c0,0.7-1,1-1.3,1.1c-0.7,0.2-1.2,0.1-1.2-0.4l0-0.8c0-0.2-0.1-0.2-0.3-0.2c-0.1,0-0.1,0-0.1,0.1l0,1.6
					c0,0-0.1,0.1-0.1,0.1l-1.7,0.4c-0.1,0-0.1,0-0.1,0l0-3.6c0,0,0.1-0.1,0.1-0.1L89.3,32.5z M88.9,34.2
					C88.9,34.2,88.9,34.2,88.9,34.2c0.3,0,0.3-0.2,0.3-0.4c0-0.1-0.1-0.1-0.2-0.1c-0.1,0-0.1,0-0.1,0.1L88.9,34.2z"/>
				<path class="st69" d="M92.1,31.9c0,0,0.1-0.1,0.1-0.1l3.6-0.9c0.1,0,0.1,0,0.1,0l0,0.9c0,0-0.1,0.1-0.1,0.1l-1.7,0.4
					c0,0-0.1,0-0.1,0.1l0,0.3c0,0,0,0,0.1,0l0.8-0.2c0,0,0.1,0,0.1,0l0,0.9c0,0,0,0.1-0.1,0.1l-0.8,0.2c0,0-0.1,0-0.1,0.1l0,0.3
					c0,0,0,0,0.1,0l1.8-0.4c0.1,0,0.1,0,0.1,0l0,0.9c0,0-0.1,0.1-0.1,0.1l-3.6,0.9c-0.1,0-0.1,0-0.1,0L92.1,31.9z"/>
			</g>
			<path class="st11" d="M74.6,21.9c0,0.4-0.5,0.9-1.6,1.4c-0.8,0.4-1.5,0.6-2.2,0.8c-0.8,0.2-1.5,0.1-2.1-0.2
				c-0.6-0.4-0.9-0.9-0.9-1.6c0-0.7,0.3-1.5,0.9-2.3c0.5-0.7,1.2-1.4,2-2c0.2-0.2,0.5-0.4,0.8-0.7c0.3-0.3,0.6-0.4,0.9-0.5
				c0.3-0.1,0.5,0,0.8,0.2c0.3,0.2,0.4,0.4,0.4,0.6c0,0.2-0.1,0.5-0.3,0.7c-0.2,0.2-0.4,0.4-0.7,0.5c-0.2,0.1-0.4,0-0.6-0.1
				c0-0.1,0.1-0.3,0.3-0.5c0.2-0.3,0.3-0.4,0.4-0.5l-0.1,0c-0.8,0.2-1.7,0.9-2.6,2c-0.9,1.1-1.4,2.1-1.4,2.8c0,0.3,0.2,0.6,0.5,0.8
				c0.3,0.2,0.7,0.3,1.1,0.2l0.6-0.1c1.1-0.3,1.9-0.6,2.3-0.9c0.2-0.1,0.3-0.3,0.3-0.6c0.1-0.2,0.2-0.3,0.3-0.3c0.1,0,0.3,0,0.4,0.1
				C74.5,21.7,74.6,21.8,74.6,21.9z"/>
			<path class="st11" d="M79.7,18.5c0,0.1-0.1,0.2-0.2,0.5c-0.1,0.1-0.2,0.3-0.2,0.5c-0.2,0.6-0.6,1.2-1,1.8
				c-0.6,0.8-1.1,1.2-1.7,1.4c-0.4,0.1-0.7,0.1-1-0.1c-0.3-0.1-0.4-0.4-0.4-0.7c0-1.4,0.1-2.3,0.2-2.7c0-0.1,0.1-0.2,0.2-0.3
				c0.1-0.1,0.2-0.2,0.2-0.2l0.3-0.1c0.1,0.1,0.2,0.2,0.2,0.4c0-0.1,0,0,0,0.5c0,0.2,0,0.5,0,0.8c0,0.4,0,0.6,0,0.8
				c0,0.2,0,0.4-0.1,0.5c0,0,0.1,0,0.2,0l0.3-0.1c0.3-0.1,0.8-0.6,1.3-1.7c0.1-0.2,0.4-0.9,1-2C79.4,17.9,79.5,18.1,79.7,18.5z"/>
			<path class="st11" d="M85,16.8c0,0.2-0.1,0.3-0.4,0.4c-0.1,0-0.1,0-0.2,0c-0.1,0-0.2,0-0.2,0c-0.8,0.2-1.6,0.8-2.3,1.7
				c-0.6,0.9-0.9,1.7-0.9,2.4c-0.1,0.1-0.2,0.2-0.3,0.2c-0.1,0-0.2,0-0.5-0.1c0-0.4,0-1,0.1-1.7c0.1-0.8,0.1-1.4,0.2-1.7
				c0.1,0,0.2-0.1,0.2-0.1c0.1,0,0.2,0.1,0.4,0.2c0.6-0.5,1-0.9,1.2-1.1c0.5-0.4,1-0.6,1.4-0.8c0.2,0,0.4,0,0.7,0
				C84.8,16.5,85,16.6,85,16.8z"/>
			<path class="st11" d="M89.5,12L89.5,12c0,0.3-0.1,0.5-0.3,0.8c-0.1,0.2-0.3,0.5-0.4,0.7c-0.2,0.6-0.6,1.4-1,2.5
				c0,0.1,0.1,0.1,0.3,0.1c0.1,0,0.2,0,0.3-0.1c0.1-0.1,0.2-0.1,0.3-0.1c0.5-0.1,0.8,0.1,0.8,0.6c-0.1,0.1-0.5,0.2-1.1,0.4
				c-0.5,0.2-0.8,0.4-1,0.5c-0.1,0.1-0.3,0.3-0.4,0.7c-0.2,0.5-0.3,0.8-0.3,0.9c0,0.1,0,0.2,0.1,0.3c0.1,0.1,0.1,0.3,0.1,0.3
				c0,0.1-0.1,0.2-0.2,0.3c-0.1,0.1-0.2,0.2-0.3,0.2c-0.3,0.1-0.5-0.3-0.5-1.2c0-0.5,0-0.8,0.1-1c-0.1,0-0.2,0-0.3,0
				c-0.1,0-0.3,0.1-0.5,0.2c-0.2,0.1-0.4,0.2-0.5,0.2c-0.2,0-0.3,0.1-0.5,0l0-0.6c0.6-0.4,1.2-0.8,1.7-1c0.2-0.1,0.3-0.1,0.4-0.1
				c0.2-0.1,0.3-0.1,0.3-0.2c0.2-0.2,0.5-0.8,0.8-1.6c0.5-1.2,0.7-1.9,0.8-2.1c0.3-0.7,0.6-1.1,0.9-1.2C89.4,11.7,89.5,11.8,89.5,12
				z"/>
			<path class="st11" d="M91.1,15.8c0,0.4-0.1,1-0.3,1.7c-0.2,0.8-0.4,1.4-0.7,1.7l-0.3,0.1c-0.1-0.1-0.2-0.3-0.2-0.6
				c0-0.5,0.1-1.1,0.4-1.8c0.1-0.4,0.4-1,0.7-1.8C91,15.2,91.1,15.4,91.1,15.8z M92.1,13.4c0,0.3-0.1,0.5-0.4,0.6
				c-0.2,0-0.3,0-0.5-0.1l0-0.1c0-0.1,0.1-0.3,0.2-0.6c0.1-0.3,0.2-0.4,0.3-0.5C91.9,12.9,92.1,13.1,92.1,13.4z"/>
			<path class="st11" d="M96.2,16.4c0,0.4-0.3,0.8-0.8,1.2c-0.5,0.4-0.9,0.6-1.5,0.7c-0.3,0.1-0.7,0-1.2-0.2l0-0.8
				c0.2,0,0.4,0,0.7,0c0.3,0,0.5,0,0.7,0c0.2-0.1,0.5-0.2,0.9-0.4c0.4-0.2,0.7-0.4,0.7-0.6c0-0.1-0.3-0.3-0.8-0.4
				c-0.2-0.1-0.5-0.1-1,0c-0.5,0.1-0.8,0.1-1,0c-0.3-0.1-0.5-0.3-0.5-0.6c0-0.4,0.3-0.8,0.8-1.2c0.5-0.4,0.9-0.6,1.4-0.7
				c0.7-0.2,1.1,0,1.1,0.5c0,0.1,0,0.2-0.1,0.3c-0.1,0.1-0.2,0.2-0.3,0.2c0,0-0.1,0-0.2-0.1c-0.1-0.1-0.2-0.1-0.3-0.1
				c-0.4,0.1-0.7,0.3-1.1,0.6c0.2,0.1,0.6,0.2,1.1,0.3c0.5,0.1,0.9,0.2,1.1,0.2C96,15.7,96.2,16,96.2,16.4z"/>
			<g>
				<path class="st69" d="M80.1,18.4c0,0.1-0.1,0.2-0.2,0.5c-0.1,0.1-0.2,0.3-0.2,0.5c-0.2,0.6-0.6,1.2-1,1.8
					c-0.6,0.8-1.1,1.2-1.7,1.4c-0.4,0.1-0.7,0.1-1-0.1c-0.3-0.1-0.4-0.4-0.4-0.7c0-1.4,0.1-2.3,0.2-2.7c0-0.1,0.1-0.2,0.2-0.3
					c0.1-0.1,0.2-0.2,0.2-0.2l0.3-0.1c0.1,0.1,0.2,0.2,0.2,0.4c0-0.1,0,0,0,0.5c0,0.2,0,0.5,0,0.8c0,0.4,0,0.6,0,0.8
					c0,0.2,0,0.4,0,0.5c0,0,0.1,0,0.2,0l0.3-0.1c0.3-0.1,0.8-0.6,1.3-1.7c0.1-0.2,0.4-0.9,1-2C79.8,17.8,80,18,80.1,18.4z"/>
			</g>
			<g>
				<path class="st69" d="M89.8,12L89.8,12c0,0.3-0.1,0.5-0.3,0.8c-0.1,0.2-0.3,0.5-0.4,0.7c-0.2,0.6-0.6,1.4-1,2.5
					c0,0.1,0.1,0.1,0.3,0.1c0.1,0,0.2,0,0.3-0.1c0.1-0.1,0.2-0.1,0.3-0.1c0.5-0.1,0.8,0.1,0.8,0.6c-0.1,0.1-0.5,0.2-1.1,0.4
					c-0.5,0.2-0.8,0.4-1,0.5c-0.1,0.1-0.3,0.3-0.4,0.7c-0.2,0.5-0.3,0.8-0.3,0.9c0,0.1,0,0.2,0.1,0.3c0.1,0.1,0.1,0.3,0.1,0.3
					c0,0.1-0.1,0.2-0.2,0.3c-0.1,0.1-0.2,0.2-0.3,0.2c-0.3,0.1-0.5-0.3-0.5-1.2c0-0.5,0-0.8,0.1-1c-0.1,0-0.2,0-0.3,0
					c-0.1,0-0.3,0.1-0.5,0.2c-0.2,0.1-0.4,0.2-0.5,0.2c-0.2,0-0.3,0.1-0.5,0l0-0.6c0.6-0.4,1.2-0.8,1.7-1c0.2-0.1,0.3-0.1,0.4-0.1
					c0.2-0.1,0.3-0.1,0.3-0.2c0.2-0.2,0.5-0.8,0.8-1.6c0.5-1.2,0.7-1.9,0.8-2.1c0.3-0.7,0.6-1.1,0.9-1.2
					C89.8,11.6,89.8,11.7,89.8,12z"/>
			</g>
			<g>
				<path class="st69" d="M91.5,15.7c0,0.4-0.1,1-0.3,1.7c-0.2,0.8-0.4,1.4-0.7,1.7l-0.3,0.1c-0.1-0.1-0.2-0.3-0.2-0.6
					c0-0.5,0.1-1.1,0.4-1.8c0.1-0.4,0.4-1,0.7-1.8C91.3,15.1,91.5,15.3,91.5,15.7z"/>
				<path class="st69" d="M92.4,13.3c0,0.3-0.1,0.5-0.4,0.6c-0.2,0-0.3,0-0.5-0.1l0-0.1c0-0.1,0.1-0.3,0.2-0.6
					c0.1-0.3,0.2-0.4,0.3-0.5C92.3,12.8,92.4,13,92.4,13.3z"/>
			</g>
			<g>
				<g>
					<path class="st69" d="M96.5,16.3c0,0.4-0.3,0.8-0.8,1.2c-0.5,0.4-0.9,0.6-1.5,0.7c-0.3,0.1-0.7,0-1.2-0.2l0-0.8
						c0.2,0,0.4,0,0.7,0c0.3,0,0.5,0,0.7,0c0.2-0.1,0.5-0.2,0.9-0.4c0.4-0.2,0.7-0.4,0.7-0.6c0-0.1-0.3-0.3-0.8-0.4
						c-0.2-0.1-0.5-0.1-1,0c-0.5,0.1-0.8,0.1-1,0c-0.3-0.1-0.5-0.3-0.5-0.6c0-0.4,0.3-0.8,0.8-1.2c0.3-0.2,0.6-0.4,0.8-0.5
						c0.3-0.1,0.6-0.2,0.9-0.2c0.1,0,0.3,0,0.4,0c0.1,0,0.3,0,0.3,0.2c0.1,0.2,0,0.4-0.1,0.6c-0.1,0.1-0.2,0.2-0.3,0.2
						c0,0-0.1,0-0.2-0.1c-0.1-0.1-0.2-0.1-0.3-0.1c-0.4,0.1-0.7,0.3-1.1,0.6c0.2,0.1,0.6,0.2,1.1,0.3c0.5,0.1,0.9,0.2,1.1,0.2
						C96.3,15.7,96.5,15.9,96.5,16.3z"/>
				</g>
				<path class="st69" d="M94.9,13.1c0-0.1-0.2-0.3-0.3-0.3c0.1,0,0.3,0.1,0.4,0.2c0.1,0.1,0.1,0.2,0.1,0.4c0-0.2,0.2-0.7,0.3-0.9
					c0.2-0.2,0.4-0.4,0.7-0.4c-0.2,0.1-0.5,0.5-0.6,0.7c-0.1,0.2-0.2,0.4-0.2,0.6c0.3-0.2,0.6-0.4,0.9-0.3c-0.1,0-0.3,0.1-0.4,0.2
					c-0.1,0.1-0.1,0.1-0.2,0.2c0.2,0,0.3-0.1,0.5-0.1c0,0.1-0.1,0.1-0.2,0.1c0,0-0.1,0.1-0.1,0.1c-0.1,0.2-0.1,0.2-0.3,0.2
					c-0.2,0-0.3,0.1-0.5,0.1c-0.2,0-0.3,0-0.4,0c-0.1,0-0.2,0-0.3,0c0.1-0.1,0.3-0.1,0.4-0.2C94.9,13.4,94.9,13.3,94.9,13.1z"/>
			</g>
			<g>
				<path class="st69" d="M75,21.8c0,0.4-0.5,0.9-1.6,1.4c-0.8,0.4-1.5,0.6-2.2,0.8c-0.8,0.2-1.5,0.1-2.1-0.2
					c-0.6-0.4-0.9-0.9-0.9-1.6c0-0.7,0.3-1.5,0.9-2.3c0.5-0.7,1.2-1.4,2-2c0.2-0.2,0.5-0.4,0.8-0.7c0.3-0.3,0.6-0.4,0.9-0.5
					c0.3-0.1,0.5,0,0.8,0.2c0.3,0.2,0.4,0.4,0.4,0.6c0,0.2-0.1,0.5-0.3,0.7c-0.2,0.2-0.4,0.4-0.7,0.5c-0.2,0.1-0.4,0-0.6-0.1
					c0-0.1,0.1-0.3,0.3-0.5c0.2-0.3,0.3-0.4,0.4-0.5l-0.1,0c-0.8,0.2-1.7,0.9-2.6,2c-0.9,1.1-1.4,2.1-1.4,2.8c0,0.3,0.2,0.6,0.5,0.8
					c0.3,0.2,0.7,0.3,1.1,0.2l0.6-0.1c1.1-0.3,1.9-0.6,2.3-0.9c0.2-0.1,0.3-0.3,0.3-0.6c0.1-0.2,0.2-0.3,0.3-0.3
					c0.1,0,0.3,0,0.4,0.1C74.9,21.6,75,21.7,75,21.8z"/>
				<path class="st69" d="M70.4,17.9c-0.1,0-0.3,0-0.5,0.1c0.1-0.1,0.3-0.2,0.4-0.2c0.2,0,0.3,0,0.4,0c-0.2-0.1-0.4-0.5-0.4-0.7
					c0-0.3,0.1-0.5,0.3-0.7c-0.1,0.2,0,0.6,0,0.8c0.1,0.2,0.2,0.3,0.3,0.5c0.1-0.3,0.2-0.7,0.5-0.9c-0.1,0.1-0.2,0.3-0.2,0.4
					c0,0.1,0,0.2,0,0.2c0.1-0.2,0.2-0.3,0.3-0.4c0,0,0,0.1,0,0.2c0,0,0,0.1,0,0.1c0.1,0.2,0.1,0.1-0.1,0.3c-0.1,0.1-0.2,0.3-0.3,0.4
					c-0.1,0.1-0.3,0.2-0.4,0.3c-0.1,0.1-0.1,0.2-0.2,0.2c0-0.2,0.2-0.3,0.2-0.5C70.7,18,70.5,17.9,70.4,17.9z"/>
			</g>
			<g>
				<g>
					<path class="st69" d="M85.4,16.7c0,0.2-0.1,0.3-0.4,0.4c-0.1,0-0.1,0-0.2,0c-0.1,0-0.2,0-0.2,0c-0.8,0.2-1.6,0.8-2.3,1.7
						c-0.6,0.9-0.9,1.7-0.9,2.4c-0.1,0.1-0.2,0.2-0.3,0.2c-0.1,0-0.2,0-0.5-0.1c0-0.4,0-1,0.1-1.7c0.1-0.8,0.1-1.4,0.2-1.7
						c0.1,0,0.2-0.1,0.2-0.1c0.1,0,0.2,0.1,0.4,0.2c0.6-0.5,1-0.9,1.2-1.1c0.5-0.4,1-0.6,1.4-0.8c0.2,0,0.4,0,0.7,0
						C85.3,16.4,85.4,16.5,85.4,16.7z"/>
				</g>
				<path class="st69" d="M82.8,16.6c-0.1-0.1-0.3-0.1-0.4-0.1c0.1-0.1,0.3-0.1,0.4-0.1c0.1,0,0.2,0.1,0.3,0.2
					C83,16.4,82.9,16,83,15.8c0.1-0.3,0.3-0.5,0.5-0.7c-0.1,0.2-0.2,0.6-0.2,0.8c0,0.2,0,0.4,0.1,0.6c0.2-0.3,0.4-0.6,0.7-0.7
					c-0.1,0.1-0.2,0.2-0.3,0.4c0,0.1-0.1,0.2-0.1,0.2c0.1-0.1,0.3-0.2,0.4-0.3c0,0.1-0.1,0.1-0.1,0.2c0,0,0,0.1,0,0.1
					c0,0.2,0,0.2-0.2,0.3c-0.2,0.1-0.3,0.2-0.4,0.3c-0.1,0.1-0.3,0.1-0.4,0.2c-0.1,0-0.2,0.1-0.2,0.1c0.1-0.1,0.3-0.3,0.3-0.4
					C82.9,16.8,82.9,16.6,82.8,16.6z"/>
			</g>
		</g>
		<g>
			<g>
				<linearGradient id="SVGID_36_" gradientUnits="userSpaceOnUse" x1="117.5594" y1="28.1879" x2="76.363" y2="61.0617">
					<stop  offset="0.5434" style="stop-color:#39B54A"/>
					<stop  offset="0.8228" style="stop-color:#139E48"/>
					<stop  offset="1" style="stop-color:#009247"/>
				</linearGradient>
				<path class="st70" d="M125.5,35.3c-0.4-0.6-1.1-1-2.1-1.4c-1.3-0.5-2.8-0.6-4.3-0.6c-11-0.2-21.4,3.2-30.7,7.2
					c-5.6,2.4-11,5.1-16,8.2c-2.5,1.5-12.2,7.6-12,9.5c0,0.1,0,0.1,0,0.2c0.2,0,0.3-0.1,0.4-0.1c0.1,0,0.2,0,0.2-0.1
					c31.1-8.3,44.8-9.1,46-8.4C111.2,47.9,128.8,39.3,125.5,35.3z"/>
			</g>
			<defs>
				<filter id="Adobe_OpacityMaskFilter_15_" filterUnits="userSpaceOnUse" x="60.4" y="33.2" width="65.5" height="25">
					
						<feColorMatrix  type="matrix" values="-1 0 0 0 1  0 -1 0 0 1  0 0 -1 0 1  0 0 0 1 0" color-interpolation-filters="sRGB" result="source"/>
				</filter>
			</defs>
			<mask maskUnits="userSpaceOnUse" x="60.4" y="33.2" width="65.5" height="25" id="SVGID_37_">
				<g class="st71">
					
						<image style="overflow:visible;" width="70" height="30" xlink:href="E43878B9F57F9BEE.jpg"  transform="matrix(1 0 0 1 58 31)">
					</image>
				</g>
			</mask>
			<g class="st72">
				<path class="st21" d="M125.5,35.3c-0.4-0.6-1.1-1-2.1-1.4c-1.3-0.5-2.8-0.6-4.3-0.6c-11-0.2-21.4,3.2-30.7,7.2
					c-5.6,2.4-11,5.1-16,8.2c-2.5,1.5-12.2,7.6-12,9.5c0,0.1,0,0.1,0,0.2c0.2,0,0.3-0.1,0.4-0.1c0.1,0,0.2,0,0.2-0.1
					c31.1-8.3,44.8-9.1,46-8.4C111.2,47.9,128.8,39.3,125.5,35.3z"/>
			</g>
		</g>
		<ellipse transform="matrix(0.982 -0.1888 0.1888 0.982 0.7369 14.4307)" class="st11" cx="76.1" cy="3.3" rx="2.6" ry="1.7"/>
	</g>
	<g>
		<g>
			<path class="st45" d="M64.1,142.8c-0.7-0.9-1-3.1-1.1-3.6c-1,0.5-2,1-2.7,1.9c-0.7,0.8-0.9,2.1-1.1,3c-1,3.7-1.6,7.5-1.9,11.3
				c-0.2,1.6-1.7,8.7-2.4,10.5c1.9-0.2,3.4-1.7,4-2.1c1.4-1,2.6-2.2,3.8-3.4c2.3-2.3,5.1-3.8,8.2-4.7c0.3-0.1-0.3,1.4-0.5,1.6
				c-0.6,1-1.7,1.9-2.7,2.6c-0.5,0.4-1.1,0.7-1.2,1.3c0.8,0.5,1.7,0.9,2.4,1.6c3.6,3.3,6.7,6.8,8.6,11.3c1.9,4.6,6.9,11.8,10.1,15.6
				c-0.4-3.7-3.1-10.3-4.3-13.7c-1.5-4.5-3.7-9.2-5.9-13.4C73.7,155.7,68.8,149.3,64.1,142.8z"/>
		</g>
		<defs>
			<filter id="Adobe_OpacityMaskFilter_16_" filterUnits="userSpaceOnUse" x="54.8" y="139.2" width="32.7" height="50.8">
				
					<feColorMatrix  type="matrix" values="-1 0 0 0 1  0 -1 0 0 1  0 0 -1 0 1  0 0 0 1 0" color-interpolation-filters="sRGB" result="source"/>
			</filter>
		</defs>
		<mask maskUnits="userSpaceOnUse" x="54.8" y="139.2" width="32.7" height="50.8" id="SVGID_38_">
			<g class="st73">
				
					<image style="overflow:visible;" width="38" height="55" xlink:href="E43878B9F57F9BEC.jpg"  transform="matrix(1 0 0 1 52 137)">
				</image>
			</g>
		</mask>
		<g class="st74">
			<path class="st33" d="M64.1,142.8c-0.7-0.9-1-3.1-1.1-3.6c-1,0.5-2,1-2.7,1.9c-0.7,0.8-0.9,2.1-1.1,3c-1,3.7-1.6,7.5-1.9,11.3
				c-0.2,1.6-1.7,8.7-2.4,10.5c1.9-0.2,3.4-1.7,4-2.1c1.4-1,2.6-2.2,3.8-3.4c2.3-2.3,5.1-3.8,8.2-4.7c0.3-0.1-0.3,1.4-0.5,1.6
				c-0.6,1-1.7,1.9-2.7,2.6c-0.5,0.4-1.1,0.7-1.2,1.3c0.8,0.5,1.7,0.9,2.4,1.6c3.6,3.3,6.7,6.8,8.6,11.3c1.9,4.6,6.9,11.8,10.1,15.6
				c-0.4-3.7-3.1-10.3-4.3-13.7c-1.5-4.5-3.7-9.2-5.9-13.4C73.7,155.7,68.8,149.3,64.1,142.8z"/>
		</g>
	</g>
	<g>
		<g>
			<path class="st45" d="M87.2,237.6c18.1-0.4,28.9-3.3,29.3-3.3c1.4,0.2,1,7.1,1,8.4c-0.9,0.3-11.9,2.5-14.4,2.8
				c-5,0.4-9.9,0.6-14.9,0.5c-9-0.1-30.3-2.1-33-7.6c0-0.1,0-0.3,0-0.4c0-0.9-0.1-1.8-0.2-2.7c-0.1-0.8-0.4-3.1-0.4-3.5
				c0.4,0.2,3.2,1.9,4.3,2.2c3.5,0.8,7.2,1.6,10.9,2.1C73.5,236.5,85.1,237.5,87.2,237.6"/>
		</g>
		<defs>
			<filter id="Adobe_OpacityMaskFilter_17_" filterUnits="userSpaceOnUse" x="54.6" y="231.7" width="63" height="14.3">
				
					<feColorMatrix  type="matrix" values="-1 0 0 0 1  0 -1 0 0 1  0 0 -1 0 1  0 0 0 1 0" color-interpolation-filters="sRGB" result="source"/>
			</filter>
		</defs>
		<mask maskUnits="userSpaceOnUse" x="54.6" y="231.7" width="63" height="14.3" id="SVGID_39_">
			<g class="st75">
				
					<image style="overflow:visible;" width="68" height="19" xlink:href="E43878B9F57F9C12.jpg"  transform="matrix(1 0 0 1 52 229)">
				</image>
			</g>
		</mask>
		<g class="st76">
			<path class="st33" d="M87.2,237.6c18.1-0.4,28.9-3.3,29.3-3.3c1.4,0.2,1,7.1,1,8.4c-0.9,0.3-11.9,2.5-14.4,2.8
				c-5,0.4-9.9,0.6-14.9,0.5c-9-0.1-30.3-2.1-33-7.6c0-0.1,0-0.3,0-0.4c0-0.9-0.1-1.8-0.2-2.7c-0.1-0.8-0.4-3.1-0.4-3.5
				c0.4,0.2,3.2,1.9,4.3,2.2c3.5,0.8,7.2,1.6,10.9,2.1C73.5,236.5,85.1,237.5,87.2,237.6"/>
		</g>
	</g>
	<g>
		<g>
			<g>
				<path class="st77" d="M25.4,205.8c-2.5-0.7-4.8-2.3-6.9-3.8c-1.6-1.2-4.1-3-4.5-5.2c0-0.3-1.2,0-1.1,0.3c0.4,2.2,2.9,4,4.5,5.3
					c2.1,1.6,4.5,3.1,7,3.9C24.8,206.4,25.8,205.9,25.4,205.8L25.4,205.8z"/>
			</g>
		</g>
		<defs>
			<filter id="Adobe_OpacityMaskFilter_18_" filterUnits="userSpaceOnUse" x="12.9" y="196.7" width="12.6" height="9.6">
				
					<feColorMatrix  type="matrix" values="-1 0 0 0 1  0 -1 0 0 1  0 0 -1 0 1  0 0 0 1 0" color-interpolation-filters="sRGB" result="source"/>
			</filter>
		</defs>
		<mask maskUnits="userSpaceOnUse" x="12.9" y="196.7" width="12.6" height="9.6" id="SVGID_40_">
			<g class="st78">
				
					<image style="overflow:visible;" width="18" height="15" xlink:href="E43878B9F57F9C15.jpg"  transform="matrix(1 0 0 1 10 194)">
				</image>
			</g>
		</mask>
		<g class="st79">
			<g>
				<path class="st80" d="M25.4,205.8c-2.5-0.7-4.8-2.3-6.9-3.8c-1.6-1.2-4.1-3-4.5-5.2c0-0.3-1.2,0-1.1,0.3c0.4,2.2,2.9,4,4.5,5.3
					c2.1,1.6,4.5,3.1,7,3.9C24.8,206.4,25.8,205.9,25.4,205.8L25.4,205.8z"/>
			</g>
		</g>
	</g>
	<g>
		<g>
			<g>
				<path class="st77" d="M26.1,209.2c-4.3-1.3-8.2-0.5-12,1.6c-0.7,0.4-0.1,0.9,0.5,0.6c3.5-1.9,7-2.7,10.9-1.5
					C25.9,210.1,26.8,209.4,26.1,209.2L26.1,209.2z"/>
			</g>
		</g>
		<defs>
			<filter id="Adobe_OpacityMaskFilter_19_" filterUnits="userSpaceOnUse" x="13.8" y="208.6" width="12.6" height="3">
				
					<feColorMatrix  type="matrix" values="-1 0 0 0 1  0 -1 0 0 1  0 0 -1 0 1  0 0 0 1 0" color-interpolation-filters="sRGB" result="source"/>
			</filter>
		</defs>
		<mask maskUnits="userSpaceOnUse" x="13.8" y="208.6" width="12.6" height="3" id="SVGID_41_">
			<g class="st81">
				
					<image style="overflow:visible;" width="18" height="8" xlink:href="E43878B9F57F9C09.jpg"  transform="matrix(1 0 0 1 11 206)">
				</image>
			</g>
		</mask>
		<g class="st82">
			<g>
				<path class="st80" d="M26.1,209.2c-4.3-1.3-8.2-0.5-12,1.6c-0.7,0.4-0.1,0.9,0.5,0.6c3.5-1.9,7-2.7,10.9-1.5
					C25.9,210.1,26.8,209.4,26.1,209.2L26.1,209.2z"/>
			</g>
		</g>
	</g>
	<g>
		<g>
			<g>
				<path class="st77" d="M143.5,174.4c3.4-4.6,2.8-10.6,4.4-15.9c0.1-0.5-1-0.3-1.2,0.1c-1.5,5.2-1,11.2-4.3,15.7
					C142.1,174.8,143.3,174.8,143.5,174.4L143.5,174.4z"/>
			</g>
		</g>
		<defs>
			<filter id="Adobe_OpacityMaskFilter_20_" filterUnits="userSpaceOnUse" x="142.4" y="158.3" width="5.5" height="16.4">
				
					<feColorMatrix  type="matrix" values="-1 0 0 0 1  0 -1 0 0 1  0 0 -1 0 1  0 0 0 1 0" color-interpolation-filters="sRGB" result="source"/>
			</filter>
		</defs>
		<mask maskUnits="userSpaceOnUse" x="142.4" y="158.3" width="5.5" height="16.4" id="SVGID_42_">
			<g class="st83">
				
					<image style="overflow:visible;" width="10" height="21" xlink:href="E43878B9F57F9C0B.jpg"  transform="matrix(1 0 0 1 140 156)">
				</image>
			</g>
		</mask>
		<g class="st84">
			<g>
				<path class="st80" d="M143.5,174.4c3.4-4.6,2.8-10.6,4.4-15.9c0.1-0.5-1-0.3-1.2,0.1c-1.5,5.2-1,11.2-4.3,15.7
					C142.1,174.8,143.3,174.8,143.5,174.4L143.5,174.4z"/>
			</g>
		</g>
	</g>
	<g>
		<g>
			<g>
				<path class="st77" d="M149.3,174.3c-2.1-5.3,4.8-11.7,8.5-14.6c0.6-0.5-0.3-0.8-0.8-0.5c-3.9,3-11.2,9.8-8.9,15.4
					C148.3,175.1,149.5,174.7,149.3,174.3L149.3,174.3z"/>
			</g>
		</g>
		<defs>
			<filter id="Adobe_OpacityMaskFilter_21_" filterUnits="userSpaceOnUse" x="147.7" y="159" width="10.3" height="15.8">
				
					<feColorMatrix  type="matrix" values="-1 0 0 0 1  0 -1 0 0 1  0 0 -1 0 1  0 0 0 1 0" color-interpolation-filters="sRGB" result="source"/>
			</filter>
		</defs>
		<mask maskUnits="userSpaceOnUse" x="147.7" y="159" width="10.3" height="15.8" id="SVGID_43_">
			<g class="st85">
				
					<image style="overflow:visible;" width="15" height="20" xlink:href="E43878B9F57F9C08.jpg"  transform="matrix(1 0 0 1 145 157)">
				</image>
			</g>
		</mask>
		<g class="st86">
			<g>
				<path class="st80" d="M149.3,174.3c-2.1-5.3,4.8-11.7,8.5-14.6c0.6-0.5-0.3-0.8-0.8-0.5c-3.9,3-11.2,9.8-8.9,15.4
					C148.3,175.1,149.5,174.7,149.3,174.3L149.3,174.3z"/>
			</g>
		</g>
	</g>
	<g>
		<g>
			<g>
				<path class="st77" d="M113.3,340.3c-2,1-4.6,2-6.8,1.1c-0.3-0.1-1.4,0.4-0.9,0.5c2.7,1,5.8,0,8.2-1.2
					C114.5,340.4,113.8,340,113.3,340.3L113.3,340.3z"/>
			</g>
		</g>
		<defs>
			<filter id="Adobe_OpacityMaskFilter_22_" filterUnits="userSpaceOnUse" x="105.5" y="340.2" width="8.6" height="2.2">
				
					<feColorMatrix  type="matrix" values="-1 0 0 0 1  0 -1 0 0 1  0 0 -1 0 1  0 0 0 1 0" color-interpolation-filters="sRGB" result="source"/>
			</filter>
		</defs>
		<mask maskUnits="userSpaceOnUse" x="105.5" y="340.2" width="8.6" height="2.2" id="SVGID_44_">
			<g class="st87">
				
					<image style="overflow:visible;" width="14" height="7" xlink:href="E43878B9F57F9C37.jpg"  transform="matrix(1 0 0 1 103 338)">
				</image>
			</g>
		</mask>
		<g class="st88">
			<g>
				<path class="st80" d="M113.3,340.3c-2,1-4.6,2-6.8,1.1c-0.3-0.1-1.4,0.4-0.9,0.5c2.7,1,5.8,0,8.2-1.2
					C114.5,340.4,113.8,340,113.3,340.3L113.3,340.3z"/>
			</g>
		</g>
	</g>
	<g>
		<g>
			<g>
				<path class="st77" d="M116.9,347c-3.9,1.4-7.5,2.4-11.6,1.1c-0.3-0.1-1.3,0.4-0.9,0.5c4.5,1.4,8.6,0.3,12.9-1.2
					C118.1,347.2,117.4,346.9,116.9,347L116.9,347z"/>
			</g>
		</g>
		<defs>
			<filter id="Adobe_OpacityMaskFilter_23_" filterUnits="userSpaceOnUse" x="104.3" y="347" width="13.4" height="2.3">
				
					<feColorMatrix  type="matrix" values="-1 0 0 0 1  0 -1 0 0 1  0 0 -1 0 1  0 0 0 1 0" color-interpolation-filters="sRGB" result="source"/>
			</filter>
		</defs>
		<mask maskUnits="userSpaceOnUse" x="104.3" y="347" width="13.4" height="2.3" id="SVGID_45_">
			<g class="st89">
				
					<image style="overflow:visible;" width="18" height="8" xlink:href="E43878B9F57F9C39.jpg"  transform="matrix(1 0 0 1 102 344)">
				</image>
			</g>
		</mask>
		<g class="st90">
			<g>
				<path class="st80" d="M116.9,347c-3.9,1.4-7.5,2.4-11.6,1.1c-0.3-0.1-1.3,0.4-0.9,0.5c4.5,1.4,8.6,0.3,12.9-1.2
					C118.1,347.2,117.4,346.9,116.9,347L116.9,347z"/>
			</g>
		</g>
	</g>
	<g>
		<g>
			<g>
				<linearGradient id="SVGID_46_" gradientUnits="userSpaceOnUse" x1="55.2166" y1="343.0773" x2="66.5763" y2="343.0773">
					<stop  offset="2.688540e-02" style="stop-color:#919395"/>
					<stop  offset="0.4503" style="stop-color:#959799"/>
					<stop  offset="0.888" style="stop-color:#A1A3A6"/>
					<stop  offset="1" style="stop-color:#A5A7AA"/>
				</linearGradient>
				<path class="st91" d="M54.9,342.3c3.2,2.7,7.9,2.2,11.7,1.2c0.7-0.2,0.6-0.5-0.1-0.3c-3.5,1-7.6,1.3-10.5-1.2
					C55.7,341.7,54.7,342.2,54.9,342.3L54.9,342.3z"/>
			</g>
		</g>
		<defs>
			<filter id="Adobe_OpacityMaskFilter_24_" filterUnits="userSpaceOnUse" x="54.9" y="341.9" width="12.1" height="2.4">
				
					<feColorMatrix  type="matrix" values="-1 0 0 0 1  0 -1 0 0 1  0 0 -1 0 1  0 0 0 1 0" color-interpolation-filters="sRGB" result="source"/>
			</filter>
		</defs>
		<mask maskUnits="userSpaceOnUse" x="54.9" y="341.9" width="12.1" height="2.4" id="SVGID_47_">
			<g class="st92">
				
					<image style="overflow:visible;" width="17" height="8" xlink:href="E43878B9F57F9C3B.jpg"  transform="matrix(1 0 0 1 52 339)">
				</image>
			</g>
		</mask>
		<g class="st93">
			<g>
				<path class="st80" d="M54.9,342.3c3.2,2.7,7.9,2.2,11.7,1.2c0.7-0.2,0.6-0.5-0.1-0.3c-3.5,1-7.6,1.3-10.5-1.2
					C55.7,341.7,54.7,342.2,54.9,342.3L54.9,342.3z"/>
			</g>
		</g>
	</g>
	<g>
		<g>
			<g>
				<linearGradient id="SVGID_48_" gradientUnits="userSpaceOnUse" x1="54.5344" y1="354.3089" x2="66.4961" y2="354.3089">
					<stop  offset="2.688540e-02" style="stop-color:#919395"/>
					<stop  offset="0.4503" style="stop-color:#959799"/>
					<stop  offset="0.888" style="stop-color:#A1A3A6"/>
					<stop  offset="1" style="stop-color:#A5A7AA"/>
				</linearGradient>
				<path class="st94" d="M54.7,354.9c3.7-1.1,7.7-0.8,11.4-0.7c0.3,0,1.3-0.5,0.7-0.5c-4.1-0.1-8.3-0.4-12.3,0.8
					C53.9,354.7,54,355.2,54.7,354.9L54.7,354.9z"/>
			</g>
		</g>
		<defs>
			<filter id="Adobe_OpacityMaskFilter_25_" filterUnits="userSpaceOnUse" x="54.1" y="353.6" width="12.9" height="1.4">
				
					<feColorMatrix  type="matrix" values="-1 0 0 0 1  0 -1 0 0 1  0 0 -1 0 1  0 0 0 1 0" color-interpolation-filters="sRGB" result="source"/>
			</filter>
		</defs>
		<mask maskUnits="userSpaceOnUse" x="54.1" y="353.6" width="12.9" height="1.4" id="SVGID_49_">
			<g class="st95">
				
					<image style="overflow:visible;" width="18" height="7" xlink:href="E43878B9F57F9C38.jpg"  transform="matrix(1 0 0 1 52 351)">
				</image>
			</g>
		</mask>
		<g class="st96">
			<g>
				<path class="st80" d="M54.7,354.9c3.7-1.1,7.7-0.8,11.4-0.7c0.3,0,1.3-0.5,0.7-0.5c-4.1-0.1-8.3-0.4-12.3,0.8
					C53.9,354.7,54,355.2,54.7,354.9L54.7,354.9z"/>
			</g>
		</g>
	</g>
	<g>
		<path class="st27" d="M96.9,446.2c-3.5,10.8,11.6,10.7,18,9.2c2.2-0.5,3.8-1,6.1-1.1c2.3-0.1,4.2,0.1,6.4,0.6
			c7.4,1.7,16.4,4.8,23.5,0.4c1.3-0.8,2.9-2.1,3.7-3.5c5.8-10.9-7-16.6-8.4-16.7"/>
	</g>
	<g>
		<g>
			<linearGradient id="SVGID_50_" gradientUnits="userSpaceOnUse" x1="90.3077" y1="413.544" x2="123.1063" y2="411.9995">
				<stop  offset="0" style="stop-color:#3C2415"/>
				<stop  offset="8.980604e-02" style="stop-color:#402819"/>
				<stop  offset="0.5399" style="stop-color:#4F3A2C"/>
				<stop  offset="0.6164" style="stop-color:#4C3628"/>
				<stop  offset="1" style="stop-color:#3C2415"/>
			</linearGradient>
			<path class="st97" d="M120.1,369.6c-1.6,0.4-10.8,2.9-29.7,1c-0.9,0.3,5,51.8,7.1,58.6c1.5,4.7,0.2,8.6-0.5,12.7
				c-1.6,9.5,6.3,12.4,13.9,10.2c3.9-1.1,9-1.4,13-0.5c3.7,0.9,6.5,2.4,10.5,2.6c2.6,0.1,5.6,0.3,8.3-0.2c5.5-1,10.8-2.8,11.2-7.2
				c0.4-3.7-0.5-9.9-3.5-12.3c-2.6-2-6.1-2.2-9.4-2.3c-4-0.1-7.9-0.2-11.9-0.4c-1.8-0.1-3.9-0.1-5.6-0.8c-1.9-0.8-1.8-1.3-1.8-3.3
				c-0.3-12.9-0.5-25.9-0.9-38.8C120.7,387.7,119.8,369.6,120.1,369.6z"/>
		</g>
		<defs>
			<filter id="Adobe_OpacityMaskFilter_26_" filterUnits="userSpaceOnUse" x="90.2" y="369.6" width="63.7" height="84.7">
				
					<feColorMatrix  type="matrix" values="-1 0 0 0 1  0 -1 0 0 1  0 0 -1 0 1  0 0 0 1 0" color-interpolation-filters="sRGB" result="source"/>
			</filter>
		</defs>
		<mask maskUnits="userSpaceOnUse" x="90.2" y="369.6" width="63.7" height="84.7" id="SVGID_51_">
			<g class="st98">
				
					<image style="overflow:visible;" width="68" height="90" xlink:href="E43878B9F57F9C3F.jpg"  transform="matrix(1 0 0 1 88 367)">
				</image>
			</g>
		</mask>
		<g class="st99">
			<path class="st44" d="M120.1,369.6c-1.6,0.4-10.8,2.9-29.7,1c-0.9,0.3,5,51.8,7.1,58.6c1.5,4.7,0.2,8.6-0.5,12.7
				c-1.6,9.5,6.3,12.4,13.9,10.2c3.9-1.1,9-1.4,13-0.5c3.7,0.9,6.5,2.4,10.5,2.6c2.6,0.1,5.6,0.3,8.3-0.2c5.5-1,10.8-2.8,11.2-7.2
				c0.4-3.7-0.5-9.9-3.5-12.3c-2.6-2-6.1-2.2-9.4-2.3c-4-0.1-7.9-0.2-11.9-0.4c-1.8-0.1-3.9-0.1-5.6-0.8c-1.9-0.8-1.8-1.3-1.8-3.3
				c-0.3-12.9-0.5-25.9-0.9-38.8C120.7,387.7,119.8,369.6,120.1,369.6z"/>
		</g>
	</g>
	<g>
		<radialGradient id="SVGID_52_" cx="156.0587" cy="429.6066" r="18.9333" gradientUnits="userSpaceOnUse">
			<stop  offset="0.6353" style="stop-color:#635043"/>
			<stop  offset="0.862" style="stop-color:#483123"/>
			<stop  offset="1" style="stop-color:#3C2415"/>
		</radialGradient>
		<path class="st100" d="M131.4,434.1c-2.1,0.7-4.1,1.6-5.9,2.8c-2.8,1.8-2.3,6-0.1,8.1c1.7,1.6,4,2.4,6.2,3c3.7,1,7.4,1.7,11.2,1.7
			c1.9,0,3.8-0.2,5.7-0.6c1.9-0.4,4-0.5,4.2-2.7c0.4-3.4-0.4-9.1-3.3-11.4c-2.9-2.3-6.5-2-9.9-1.9c-2.4,0-4.9,0-7.2,0.6
			C132.1,433.9,131.8,434,131.4,434.1z"/>
	</g>
	<g>
		<g>
			<g>
				
					<linearGradient id="SVGID_53_" gradientUnits="userSpaceOnUse" x1="-131.6593" y1="539.4387" x2="-97.4986" y2="539.4387" gradientTransform="matrix(-0.5783 0.8158 -0.8158 -0.5783 430.5955 654.2126)">
					<stop  offset="0" style="stop-color:#FECF8D"/>
					<stop  offset="0.3174" style="stop-color:#FFDDAE"/>
					<stop  offset="0.5399" style="stop-color:#FFE5C2"/>
				</linearGradient>
				<path class="st101" d="M41.8,257.6c-0.2-0.1-0.3-0.2-0.5-0.3c-2.3-1.6-4-3.8-5.6-6c-1.4-1.9-0.6-3.2,0.3-5.1
					c1.4-3,3.3-5.9,4.8-8.7c4.1,2.3,8.5,5.1,13.4,4c2.4-0.5,4.7-1.4,7.1-2.1c2.3-0.6,3.8-0.7,6,0c1.7,0.5,3.4,0.7,5.1,0.8
					c1.5,0.1,2.6,0.1,3.4,1.6c0.9,1.7,1.1,3.7,2.1,5.2c0.4,0.6,1.3,1.5,1.2,2.2c-0.1,1.5-1.6,1.1-2.5,0.4c0.2,1.6,0.8,2.2,0,3.7
					c-0.6,1.2-1.5,1.6-2.9,1.7c1.8,2.7-1.5,5.9-3.7,5.7c0,1.8-0.4,2.3-1.8,3.4c-1,0.8-2.3,1.2-3.2,2.1c-1,1.1-1.8,2.3-3.3,2.6
					c-1.5,0.3-3,0.1-4.5,0.1c-0.9,0-1-0.2-1.6-0.8c-0.6-0.7-0.9-0.8-1.8-1.1c-2.5-0.9-4.1-2.4-5.9-4.3C46,260.9,44,259.1,41.8,257.6
					z"/>
			</g>
			<defs>
				<filter id="Adobe_OpacityMaskFilter_27_" filterUnits="userSpaceOnUse" x="34.9" y="237.5" width="44.3" height="31.7">
					
						<feColorMatrix  type="matrix" values="-1 0 0 0 1  0 -1 0 0 1  0 0 -1 0 1  0 0 0 1 0" color-interpolation-filters="sRGB" result="source"/>
				</filter>
			</defs>
			<mask maskUnits="userSpaceOnUse" x="34.9" y="237.5" width="44.3" height="31.7" id="SVGID_54_">
				<g class="st102">
					
						<image style="overflow:visible;" width="50" height="37" xlink:href="E43878B9F57F9C3A.jpg"  transform="matrix(1 0 0 1 32 235)">
					</image>
				</g>
			</mask>
			<g class="st103">
				<path class="st7" d="M41.8,257.6c-0.2-0.1-0.3-0.2-0.5-0.3c-2.3-1.6-4-3.8-5.6-6c-1.4-1.9-0.6-3.2,0.3-5.1
					c1.4-3,3.3-5.9,4.8-8.7c4.1,2.3,8.5,5.1,13.4,4c2.4-0.5,4.7-1.4,7.1-2.1c2.3-0.6,3.8-0.7,6,0c1.7,0.5,3.4,0.7,5.1,0.8
					c1.5,0.1,2.6,0.1,3.4,1.6c0.9,1.7,1.1,3.7,2.1,5.2c0.4,0.6,1.3,1.5,1.2,2.2c-0.1,1.5-1.6,1.1-2.5,0.4c0.2,1.6,0.8,2.2,0,3.7
					c-0.6,1.2-1.5,1.6-2.9,1.7c1.8,2.7-1.5,5.9-3.7,5.7c0,1.8-0.4,2.3-1.8,3.4c-1,0.8-2.3,1.2-3.2,2.1c-1,1.1-1.8,2.3-3.3,2.6
					c-1.5,0.3-3,0.1-4.5,0.1c-0.9,0-1-0.2-1.6-0.8c-0.6-0.7-0.9-0.8-1.8-1.1c-2.5-0.9-4.1-2.4-5.9-4.3C46,260.9,44,259.1,41.8,257.6
					z"/>
			</g>
		</g>
		
			<linearGradient id="SVGID_55_" gradientUnits="userSpaceOnUse" x1="112.6731" y1="268.226" x2="117.9763" y2="268.226" gradientTransform="matrix(0.9493 -0.3144 0.3144 0.9493 -120.8957 27.9974)">
			<stop  offset="0" style="stop-color:#FECF8D"/>
			<stop  offset="0.3174" style="stop-color:#FFDDAE"/>
			<stop  offset="0.5399" style="stop-color:#FFE5C2"/>
		</linearGradient>
		<path class="st104" d="M73.1,245.5c-1.1-1.3-2.7-2.4-4.3-2.9c0.3,0.6,1.3,1.3,1.8,1.8c0.9,0.8,1.7,1.7,2.5,2.6
			c1,1.2,2.2,2.8,3.8,3.1c-0.5-0.7-1.3-1.2-1.8-1.9C74.5,247.3,73.9,246.4,73.1,245.5z"/>
		
			<linearGradient id="SVGID_56_" gradientUnits="userSpaceOnUse" x1="100.8565" y1="284.0252" x2="102.7303" y2="284.0252" gradientTransform="matrix(0.9493 -0.3144 0.3144 0.9493 -120.8957 27.9974)">
			<stop  offset="0" style="stop-color:#FECF8D"/>
			<stop  offset="0.3174" style="stop-color:#FFDDAE"/>
			<stop  offset="0.5399" style="stop-color:#FFE5C2"/>
		</linearGradient>
		<path class="st105" d="M65.3,265.3c0.2,0.1,0.5,0.3,0.7,0.3c-0.6,0.4-0.9,1.1-1.5,1.5c-0.2-0.5,0-0.9-0.3-1.3
			c-0.2-0.3-0.5-0.7-0.5-1.1C64.4,264.8,64.8,265,65.3,265.3z"/>
		
			<linearGradient id="SVGID_57_" gradientUnits="userSpaceOnUse" x1="107.4223" y1="280.7217" x2="109.2148" y2="280.7217" gradientTransform="matrix(0.9493 -0.3144 0.3144 0.9493 -120.8957 27.9974)">
			<stop  offset="0" style="stop-color:#FECF8D"/>
			<stop  offset="0.3174" style="stop-color:#FFDDAE"/>
			<stop  offset="0.5399" style="stop-color:#FFE5C2"/>
		</linearGradient>
		<path class="st106" d="M70.5,260.3c0.3,0.2,0.6,0.3,0.7,0.4c-0.3,0.1-0.9,0.3-1.2,0.1c-0.2,0.3-0.1,0.7-0.1,1
			c-0.3-0.2-0.3-0.7-0.4-1c-0.1-0.4-0.4-0.7-0.4-1.1C69,259.5,69.9,259.9,70.5,260.3z"/>
		
			<linearGradient id="SVGID_58_" gradientUnits="userSpaceOnUse" x1="137.3434" y1="291.8754" x2="139.3177" y2="291.8754" gradientTransform="matrix(0.8647 -0.5023 0.5023 0.8647 -192.2655 72.194)">
			<stop  offset="0" style="stop-color:#FECF8D"/>
			<stop  offset="0.3174" style="stop-color:#FFDDAE"/>
			<stop  offset="0.5399" style="stop-color:#FFE5C2"/>
		</linearGradient>
		<path class="st107" d="M74.1,254.7c0.3,0.1,0.6,0.2,0.9,0.3c-0.4,0.2-0.9,0-1.3,0.2c0.2,0.3,0.4,0.8,0.4,1.2
			c-0.5-0.3-1.5-1.3-1.6-2C73.1,254.4,73.6,254.6,74.1,254.7z"/>
	</g>
	<g>
		<g>
			<g>
				
					<linearGradient id="SVGID_59_" gradientUnits="userSpaceOnUse" x1="-32.077" y1="411.1132" x2="-1.1346" y2="411.1132" gradientTransform="matrix(-0.129 -0.9916 -0.9916 0.129 614.4519 93.8471)">
					<stop  offset="0" style="stop-color:#FECF8D"/>
					<stop  offset="0.3174" style="stop-color:#FFDDAE"/>
					<stop  offset="0.5399" style="stop-color:#FFE5C2"/>
				</linearGradient>
				<path class="st108" d="M208.9,176.1c0.7,0.7,1.5,1.3,2.3,1.8c0.4,0.2,0.8,0.4,1.2,0.6c0.5,0.1,0.8-0.1,1.2-0.3
					c1.3-0.5,2.7-0.9,4-1.4c1.5-0.6,3-0.9,4.5-1.1c1.1-0.2,2.3-0.1,3.4-0.4c0.6-0.2,1.1-0.5,1.5-0.9c0.2-0.2,0.4-0.6,0.6-0.8
					c0.2-0.2,0.5-0.4,0.7-0.7c0.4-0.6,0.6-1.2,0.6-2c0-1.3-0.6-2.1-1.8-2.8c2.9-1.6,1.5-5.9-0.6-6.8c0.8-1.6,0.8-2.2,0.1-3.9
					c-0.5-1.2-1.5-2.1-1.8-3.4c-0.4-1.5-0.5-2.8-1.7-3.9c-1.1-1-2.6-1.5-3.9-2.2c-0.8-0.4-1-0.3-1.8,0c-0.9,0.3-1.1,0.3-2.1,0.1
					c-2.6-0.4-4.7,0.2-7.2,1c-2.6,0.8-5.3,1.5-8,1.9c-0.4,0.1-0.9,0.1-1.3,0.1c-1.6,0.1-3.2,0.1-4.9,0c-0.7-0.1-2.1-0.5-4.4-0.8
					c-0.2,1.2,0.2,6.3,0.1,8c-0.2,3.3,0.1,6.8,0.2,10c4.7-0.1,9.9-0.5,13.8,2.7C205.5,172.5,207.1,174.4,208.9,176.1z"/>
			</g>
			<defs>
				<filter id="Adobe_OpacityMaskFilter_28_" filterUnits="userSpaceOnUse" x="189.5" y="147.7" width="39.5" height="30.8">
					
						<feColorMatrix  type="matrix" values="-1 0 0 0 1  0 -1 0 0 1  0 0 -1 0 1  0 0 0 1 0" color-interpolation-filters="sRGB" result="source"/>
				</filter>
			</defs>
			<mask maskUnits="userSpaceOnUse" x="189.5" y="147.7" width="39.5" height="30.8" id="SVGID_60_">
				<g class="st109">
					
						<image style="overflow:visible;" width="44" height="36" xlink:href="E43878B9F57F9C06.jpg"  transform="matrix(1 0 0 1 187 145)">
					</image>
				</g>
			</mask>
			<g class="st110">
				<path class="st7" d="M208.9,176.1c0.7,0.7,1.5,1.3,2.3,1.8c0.4,0.2,0.8,0.4,1.2,0.6c0.5,0.1,0.8-0.1,1.2-0.3
					c1.3-0.5,2.7-0.9,4-1.4c1.5-0.6,3-0.9,4.5-1.1c1.1-0.2,2.3-0.1,3.4-0.4c0.6-0.2,1.1-0.5,1.5-0.9c0.2-0.2,0.4-0.6,0.6-0.8
					c0.2-0.2,0.5-0.4,0.7-0.7c0.4-0.6,0.6-1.2,0.6-2c0-1.3-0.6-2.1-1.8-2.8c2.9-1.6,1.5-5.9-0.6-6.8c0.8-1.6,0.8-2.2,0.1-3.9
					c-0.5-1.2-1.5-2.1-1.8-3.4c-0.4-1.5-0.5-2.8-1.7-3.9c-1.1-1-2.6-1.5-3.9-2.2c-0.8-0.4-1-0.3-1.8,0c-0.9,0.3-1.1,0.3-2.1,0.1
					c-2.6-0.4-4.7,0.2-7.2,1c-2.6,0.8-5.3,1.5-8,1.9c-0.4,0.1-0.9,0.1-1.3,0.1c-1.6,0.1-3.2,0.1-4.9,0c-0.7-0.1-2.1-0.5-4.4-0.8
					c-0.2,1.2,0.2,6.3,0.1,8c-0.2,3.3,0.1,6.8,0.2,10c4.7-0.1,9.9-0.5,13.8,2.7C205.5,172.5,207.1,174.4,208.9,176.1z"/>
			</g>
		</g>
		
			<linearGradient id="SVGID_61_" gradientUnits="userSpaceOnUse" x1="99.8849" y1="444.0643" x2="101.7588" y2="444.0643" gradientTransform="matrix(0.6916 0.7223 0.7223 -0.6916 -166.0673 388.9367)">
			<stop  offset="0" style="stop-color:#FECF8D"/>
			<stop  offset="0.3174" style="stop-color:#FFDDAE"/>
			<stop  offset="0.5399" style="stop-color:#FFE5C2"/>
		</linearGradient>
		<path class="st111" d="M224.5,155.1c0.2,0,0.6,0,0.8,0c-0.4-0.6-0.2-1.4-0.6-2c-0.4,0.3-0.4,0.7-0.9,1c-0.3,0.2-0.8,0.4-0.9,0.8
			C223.4,155.1,223.9,155.1,224.5,155.1z"/>
		
			<linearGradient id="SVGID_62_" gradientUnits="userSpaceOnUse" x1="106.4507" y1="440.7608" x2="108.2433" y2="440.7608" gradientTransform="matrix(0.6916 0.7223 0.7223 -0.6916 -166.0673 388.9367)">
			<stop  offset="0" style="stop-color:#FECF8D"/>
			<stop  offset="0.3174" style="stop-color:#FFDDAE"/>
			<stop  offset="0.5399" style="stop-color:#FFE5C2"/>
		</linearGradient>
		<path class="st112" d="M226.7,161.9c0.4,0,0.7,0,0.8,0c-0.2-0.3-0.6-0.7-1-0.6c0-0.4,0.3-0.6,0.3-0.9c-0.3,0-0.6,0.4-0.8,0.7
			c-0.3,0.3-0.7,0.5-0.9,0.8C225.1,161.9,226,161.9,226.7,161.9z"/>
		
			<linearGradient id="SVGID_63_" gradientUnits="userSpaceOnUse" x1="103.5887" y1="448.3174" x2="105.563" y2="448.3174" gradientTransform="matrix(0.5289 0.8487 0.8487 -0.5289 -208.4347 316.4661)">
			<stop  offset="0" style="stop-color:#FECF8D"/>
			<stop  offset="0.3174" style="stop-color:#FFDDAE"/>
			<stop  offset="0.5399" style="stop-color:#FFE5C2"/>
		</linearGradient>
		<path class="st113" d="M227.3,168.5c0.3,0.1,0.6,0.1,0.9,0.2c-0.3-0.4-0.8-0.4-1-0.8c0.4-0.2,0.7-0.5,0.9-0.9
			c-0.6,0.1-2,0.4-2.3,1C226.3,168.3,226.8,168.4,227.3,168.5z"/>
	</g>
	<g>
		<g>
			<path class="st45" d="M46.3,253.6c-1.1,1.4-2.2,2.8-3.5,4c-1,0.9-2,0.9-3,0c-1.4-1.2-2.6-2.8-4-4.1c-1.5-1.4-3.3-2.6-4.9-4
				c-1-0.9-3.3-2.2-2.8-3.9c0.2-0.5,0.6-1,1-1.3c1.5-1.4,3.3-2.5,4.9-3.8c3.1-2.5,5.7-5.6,8.2-8.8c0.7-0.9,1.4-2,2.5-2.5
				c2.2-1.1,3.2,0.7,4.7,2.1c1.3,1.2,3,1.9,4.5,2.9c1.8,1.2,6.9,3.7,5.5,6.6c-0.2,0.5-0.6,0.8-0.9,1.2c-3.4,3.6-7.5,6.5-10.8,10.1
				C47.1,252.6,46.7,253.1,46.3,253.6z"/>
		</g>
		<defs>
			<filter id="Adobe_OpacityMaskFilter_29_" filterUnits="userSpaceOnUse" x="28" y="228.9" width="31.5" height="29.3">
				
					<feColorMatrix  type="matrix" values="-1 0 0 0 1  0 -1 0 0 1  0 0 -1 0 1  0 0 0 1 0" color-interpolation-filters="sRGB" result="source"/>
			</filter>
		</defs>
		<mask maskUnits="userSpaceOnUse" x="28" y="228.9" width="31.5" height="29.3" id="SVGID_64_">
			<g class="st114">
				
					<image style="overflow:visible;" width="36" height="35" xlink:href="E43878B9F57F9C5C.jpg"  transform="matrix(1 0 0 1 26 226)">
				</image>
			</g>
		</mask>
		<g class="st115">
			<path class="st33" d="M46.3,253.6c-1.1,1.4-2.2,2.8-3.5,4c-1,0.9-2,0.9-3,0c-1.4-1.2-2.6-2.8-4-4.1c-1.5-1.4-3.3-2.6-4.9-4
				c-1-0.9-3.3-2.2-2.8-3.9c0.2-0.5,0.6-1,1-1.3c1.5-1.4,3.3-2.5,4.9-3.8c3.1-2.5,5.7-5.6,8.2-8.8c0.7-0.9,1.4-2,2.5-2.5
				c2.2-1.1,3.2,0.7,4.7,2.1c1.3,1.2,3,1.9,4.5,2.9c1.8,1.2,6.9,3.7,5.5,6.6c-0.2,0.5-0.6,0.8-0.9,1.2c-3.4,3.6-7.5,6.5-10.8,10.1
				C47.1,252.6,46.7,253.1,46.3,253.6z"/>
		</g>
	</g>
	<g>
		<g>
			<path class="st45" d="M183,148.3c-0.1,0.1-0.3,0.1-0.4,0.3c-0.3,0.3-0.3,0.7-0.4,1.1c-0.1,1.5,0.1,3.1,0.3,4.6
				c0.6,5.7,0.3,11.5-0.8,17.1c-0.4,1.9-0.3,3.4,1.7,4c2.6,0.7,5.6,0.5,8.2,0.3c2.5-0.1,5-0.2,7.5-0.4c0.8,0,1.5-17.1,1.6-18.5
				c0-1.3,0-2.7-0.3-4c-0.6-2.4-0.8-4.7-1.8-6.9c-0.5-1-1.9-1-3.1-0.8c-4.1,0.7-8.2,1.7-12.2,3C183.3,148.2,183.2,148.3,183,148.3z"
				/>
			<path class="st45" d="M183,148.3c-0.1,0.1-0.3,0.1-0.4,0.3c-0.3,0.3-0.3,0.7-0.4,1.1c-0.1,1.5,0.1,3.1,0.3,4.6
				c0.6,5.7,0.3,11.5-0.8,17.1c-0.4,1.9-0.3,3.4,1.7,4c2.6,0.7,5.6,0.5,8.2,0.3c2.5-0.1,5-0.2,7.5-0.4c0.8,0,1.5-17.1,1.6-18.5
				c0-1.3,0-2.7-0.3-4c-0.6-2.4-0.8-4.7-1.8-6.9c-0.5-1-1.9-1-3.1-0.8c-4.1,0.7-8.2,1.7-12.2,3C183.3,148.2,183.2,148.3,183,148.3z"
				/>
		</g>
		<defs>
			<filter id="Adobe_OpacityMaskFilter_30_" filterUnits="userSpaceOnUse" x="181.6" y="145.1" width="19.2" height="30.8">
				
					<feColorMatrix  type="matrix" values="-1 0 0 0 1  0 -1 0 0 1  0 0 -1 0 1  0 0 0 1 0" color-interpolation-filters="sRGB" result="source"/>
			</filter>
		</defs>
		<mask maskUnits="userSpaceOnUse" x="181.6" y="145.1" width="19.2" height="30.8" id="SVGID_65_">
			<g class="st116">
				
					<image style="overflow:visible;" width="24" height="35" xlink:href="E43878B9F57F9C63.jpg"  transform="matrix(1 0 0 1 179 143)">
				</image>
			</g>
		</mask>
		<g class="st117">
			<path class="st33" d="M183,148.3c-0.1,0.1-0.3,0.1-0.4,0.3c-0.3,0.3-0.3,0.7-0.4,1.1c-0.1,1.5,0.1,3.1,0.3,4.6
				c0.6,5.7,0.3,11.5-0.8,17.1c-0.4,1.9-0.3,3.4,1.7,4c2.6,0.7,5.6,0.5,8.2,0.3c2.5-0.1,5-0.2,7.5-0.4c0.8,0,1.5-17.1,1.6-18.5
				c0-1.3,0-2.7-0.3-4c-0.6-2.4-0.8-4.7-1.8-6.9c-0.5-1-1.9-1-3.1-0.8c-4.1,0.7-8.2,1.7-12.2,3C183.3,148.2,183.2,148.3,183,148.3z"
				/>
			<path class="st33" d="M183,148.3c-0.1,0.1-0.3,0.1-0.4,0.3c-0.3,0.3-0.3,0.7-0.4,1.1c-0.1,1.5,0.1,3.1,0.3,4.6
				c0.6,5.7,0.3,11.5-0.8,17.1c-0.4,1.9-0.3,3.4,1.7,4c2.6,0.7,5.6,0.5,8.2,0.3c2.5-0.1,5-0.2,7.5-0.4c0.8,0,1.5-17.1,1.6-18.5
				c0-1.3,0-2.7-0.3-4c-0.6-2.4-0.8-4.7-1.8-6.9c-0.5-1-1.9-1-3.1-0.8c-4.1,0.7-8.2,1.7-12.2,3C183.3,148.2,183.2,148.3,183,148.3z"
				/>
		</g>
	</g>
</g>
</svg>
