<?xml version="1.0" encoding="utf-8"?>
<!-- Generator: Adobe Illustrator 21.0.2, SVG Export Plug-In . SVG Version: 6.00 Build 0)  -->
<svg version="1.1" id="Layer_1" xmlns="http://www.w3.org/2000/svg" xmlns:xlink="http://www.w3.org/1999/xlink" x="0px" y="0px"
	 viewBox="0 0 9.1 9.4" style="enable-background:new 0 0 9.1 9.4;" xml:space="preserve">
<style type="text/css">
	.st0{fill:#39B54A;}
	.st1{fill:url(#SVGID_1_);}
</style>
<g>
	<g>
		<path class="st0" d="M0.1,4.7c0-1.2,0.4-2.3,1.3-3.1c0.9-0.9,1.9-1.3,3.1-1.3c1.2,0,2.3,0.4,3.1,1.3C8.5,2.4,9,3.5,9,4.7
			C9,5.9,8.5,7,7.7,7.9C6.8,8.7,5.8,9.2,4.5,9.2c-1.2,0-2.3-0.4-3.1-1.3C0.5,7,0.1,5.9,0.1,4.7z"/>
		
			<linearGradient id="SVGID_1_" gradientUnits="userSpaceOnUse" x1="-1400.778" y1="626.0161" x2="-1393.4818" y2="626.0161" gradientTransform="matrix(0 1 -1 0 630.5596 1401.4111)">
			<stop  offset="0" style="stop-color:#FFFFFF;stop-opacity:0.5"/>
			<stop  offset="1" style="stop-color:#FFFFFF;stop-opacity:0"/>
		</linearGradient>
		<path class="st1" d="M0.9,4.3c0-1,0.3-1.8,1.1-2.6C2.7,1,3.5,0.6,4.5,0.6c1,0,1.9,0.3,2.6,1.1c0.7,0.7,1.1,1.5,1.1,2.6
			c0,1-0.3,1.9-1.1,2.6C6.4,7.6,5.6,7.9,4.5,7.9c-1,0-1.9-0.3-2.6-1.1C1.2,6.1,0.9,5.3,0.9,4.3z"/>
	</g>
</g>
</svg>
