<?xml version="1.0" encoding="utf-8"?>
<!-- Generator: Adobe Illustrator 21.0.2, SVG Export Plug-In . SVG Version: 6.00 Build 0)  -->
<svg version="1.1" id="Layer_1" xmlns="http://www.w3.org/2000/svg" xmlns:xlink="http://www.w3.org/1999/xlink" x="0px" y="0px"
	 viewBox="0 0 957 161" style="enable-background:new 0 0 957 161;" xml:space="preserve">
<style type="text/css">
	.st0{fill:none;enable-background:new    ;}
	.st1{fill:url(#SVGID_1_);}
	.st2{fill:url(#SVGID_2_);}
	.st3{fill:url(#SVGID_3_);}
	.st4{fill:url(#SVGID_4_);}
	.st5{fill:url(#SVGID_5_);}
	.st6{fill:url(#SVGID_6_);}
	.st7{fill:url(#SVGID_7_);}
	.st8{fill:url(#SVGID_8_);}
	.st9{fill:url(#SVGID_9_);}
	.st10{fill:url(#SVGID_10_);}
	.st11{fill:url(#SVGID_11_);}
	.st12{fill:url(#SVGID_12_);}
	.st13{fill:url(#SVGID_13_);}
	.st14{fill:url(#SVGID_14_);}
	.st15{fill:url(#SVGID_15_);}
	.st16{fill:url(#SVGID_16_);}
	.st17{fill:url(#SVGID_17_);}
	.st18{fill:url(#SVGID_18_);}
	.st19{fill:url(#SVGID_19_);}
	.st20{fill:url(#SVGID_20_);}
	.st21{fill:url(#SVGID_21_);}
	.st22{fill:url(#SVGID_22_);}
	.st23{fill:url(#SVGID_23_);}
	.st24{fill:url(#SVGID_24_);}
	.st25{fill:url(#SVGID_25_);}
	.st26{fill:url(#SVGID_26_);}
	.st27{fill:url(#SVGID_27_);}
	.st28{fill:url(#SVGID_28_);}
	.st29{fill:url(#SVGID_29_);}
	.st30{fill:url(#SVGID_30_);}
	.st31{fill:url(#SVGID_31_);}
	.st32{fill:url(#SVGID_32_);}
	.st33{fill:url(#SVGID_33_);}
	.st34{fill:url(#SVGID_34_);}
	.st35{fill:url(#SVGID_35_);}
	.st36{fill:url(#SVGID_36_);}
	.st37{fill:url(#SVGID_37_);}
	.st38{fill:url(#SVGID_38_);}
	.st39{fill:url(#SVGID_39_);}
	.st40{fill:url(#SVGID_40_);}
	.st41{fill:url(#SVGID_41_);}
	.st42{fill:url(#SVGID_42_);}
	.st43{fill:url(#SVGID_43_);}
	.st44{fill:url(#SVGID_44_);}
	.st45{fill:url(#SVGID_45_);}
	.st46{fill:url(#SVGID_46_);}
	.st47{fill:url(#SVGID_47_);}
	.st48{fill:url(#SVGID_48_);}
	.st49{fill:url(#SVGID_49_);}
	.st50{fill:url(#SVGID_50_);}
	.st51{fill:url(#SVGID_51_);}
	.st52{fill:url(#SVGID_52_);}
	.st53{fill:url(#SVGID_53_);}
</style>
<path class="st0" d="z"/>
<g>
	<g>
		<g>
			<linearGradient id="SVGID_1_" gradientUnits="userSpaceOnUse" x1="785.1796" y1="96.0624" x2="775.5003" y2="95.4698">
				<stop  offset="0" style="stop-color:#8BC53F"/>
				<stop  offset="1" style="stop-color:#006838"/>
			</linearGradient>
			<path class="st1" d="M775.2,91.8c0,0,13.3-20.2,31.6-21.3c0,0-29,9.7-26.5,51.5h-7.3L775.2,91.8z"/>
			<linearGradient id="SVGID_2_" gradientUnits="userSpaceOnUse" x1="770.1251" y1="64.5834" x2="761.0396" y2="119.1012">
				<stop  offset="0" style="stop-color:#8BC53F"/>
				<stop  offset="1" style="stop-color:#006838"/>
			</linearGradient>
			<path class="st2" d="M758.3,101.2c0,0,14-32.5,11.7-58.5c0,0,9.8,28.1-5.7,79.4h-7.8L758.3,101.2z"/>
			<linearGradient id="SVGID_3_" gradientUnits="userSpaceOnUse" x1="730.4505" y1="82.8443" x2="744.6019" y2="82.8443">
				<stop  offset="0" style="stop-color:#8BC53F"/>
				<stop  offset="1" style="stop-color:#006838"/>
			</linearGradient>
			<path class="st3" d="M735.8,68.9c0,0,3.9-15.1,8.8-25.3c0,0-5.3,44.2-6.2,78.6h-8L735.8,68.9z"/>
			<linearGradient id="SVGID_4_" gradientUnits="userSpaceOnUse" x1="727.321" y1="101.2091" x2="733.579" y2="101.2091">
				<stop  offset="0" style="stop-color:#8BC53F"/>
				<stop  offset="1" style="stop-color:#006838"/>
			</linearGradient>
			<path class="st4" d="M727.3,91c0,0,2-6.1,6.3-10.7c0,0-4,29.5-1.4,41.8h-2.9L727.3,91z"/>
			<linearGradient id="SVGID_5_" gradientUnits="userSpaceOnUse" x1="712.7449" y1="88.5612" x2="732.741" y2="88.5612">
				<stop  offset="0" style="stop-color:#8BC53F"/>
				<stop  offset="1" style="stop-color:#006838"/>
			</linearGradient>
			<path class="st5" d="M712.7,55c0,0,23.9,27.8,19.4,67.1h-5.9C726.3,122.1,719.5,67.6,712.7,55z"/>
			<linearGradient id="SVGID_6_" gradientUnits="userSpaceOnUse" x1="707.2936" y1="86.9894" x2="726.3002" y2="86.9894">
				<stop  offset="0" style="stop-color:#8BC53F"/>
				<stop  offset="1" style="stop-color:#006838"/>
			</linearGradient>
			<path class="st6" d="M707.3,51.9c0,0,11.6,30.1,7.2,70.3h11.8C726.3,122.1,726.3,68.3,707.3,51.9z"/>
			<linearGradient id="SVGID_7_" gradientUnits="userSpaceOnUse" x1="736.3984" y1="85.9976" x2="752.185" y2="85.9976">
				<stop  offset="0" style="stop-color:#8BC53F"/>
				<stop  offset="1" style="stop-color:#006838"/>
			</linearGradient>
			<path class="st7" d="M751,122.1c0,0,7.5-42.3-14.6-72.3c0,0,18.7,45.1,5.7,72.3H751z"/>
			<linearGradient id="SVGID_8_" gradientUnits="userSpaceOnUse" x1="738.4259" y1="94.2017" x2="761.0101" y2="94.2017">
				<stop  offset="0" style="stop-color:#8BC53F"/>
				<stop  offset="1" style="stop-color:#006838"/>
			</linearGradient>
			<path class="st8" d="M738.4,122.1c0,0-1.6-36.2,22.6-55.9c0,0-17.8,25.2-14.8,55.9H738.4z"/>
			<linearGradient id="SVGID_9_" gradientUnits="userSpaceOnUse" x1="749.7186" y1="86.9894" x2="770.0344" y2="86.9894">
				<stop  offset="0" style="stop-color:#8BC53F"/>
				<stop  offset="1" style="stop-color:#006838"/>
			</linearGradient>
			<path class="st9" d="M752.2,97.9c0,0,3.3-28.8,17.9-46c0,0-16.8,40.6-10.5,70.3h-9.9L752.2,97.9z"/>
			<linearGradient id="SVGID_10_" gradientUnits="userSpaceOnUse" x1="763.0611" y1="91.8429" x2="780.357" y2="91.8429">
				<stop  offset="0" style="stop-color:#8BC53F"/>
				<stop  offset="1" style="stop-color:#006838"/>
			</linearGradient>
			<path class="st10" d="M773.1,122.1c0,0,2.3-38.9,7.3-60.6c0,0-16.1,29.1-17.3,60.6H773.1z"/>
			<linearGradient id="SVGID_11_" gradientUnits="userSpaceOnUse" x1="788.2874" y1="95.5859" x2="799.977" y2="95.5859">
				<stop  offset="0" style="stop-color:#8BC53F"/>
				<stop  offset="1" style="stop-color:#006838"/>
			</linearGradient>
			<polygon class="st11" points="798,108.7 800,69 788.3,122.1 796.6,122.1 			"/>
			<linearGradient id="SVGID_12_" gradientUnits="userSpaceOnUse" x1="792.1843" y1="106.507" x2="822.1282" y2="106.507">
				<stop  offset="0" style="stop-color:#8BC53F"/>
				<stop  offset="1" style="stop-color:#006838"/>
			</linearGradient>
			<path class="st12" d="M800,122.1c0,0,8.7-26.1,22.2-31.2c0,0-20.5,0.5-29.9,31.2H800z"/>
			<linearGradient id="SVGID_13_" gradientUnits="userSpaceOnUse" x1="784.6984" y1="92.4581" x2="792.1843" y2="92.4581">
				<stop  offset="0" style="stop-color:#8BC53F"/>
				<stop  offset="1" style="stop-color:#006838"/>
			</linearGradient>
			<path class="st13" d="M791.6,62.8c0,0-4.9,4.9-6.2,46.9l-0.7,12.5h7.5L791.6,62.8z"/>
			<linearGradient id="SVGID_14_" gradientUnits="userSpaceOnUse" x1="777.6487" y1="97.0216" x2="785.1081" y2="97.0216">
				<stop  offset="0" style="stop-color:#8BC53F"/>
				<stop  offset="1" style="stop-color:#006838"/>
			</linearGradient>
			<path class="st14" d="M785.1,122.1H778c0,0-2.7-36.5,6-50.2C784.1,71.9,780.8,87.7,785.1,122.1z"/>
		</g>
		<g>
			
				<linearGradient id="SVGID_15_" gradientUnits="userSpaceOnUse" x1="1583.1417" y1="64.5834" x2="1574.0563" y2="119.1012" gradientTransform="matrix(-1 0 0 1 2242.7031 0)">
				<stop  offset="0" style="stop-color:#8BC53F"/>
				<stop  offset="1" style="stop-color:#006838"/>
			</linearGradient>
			<path class="st15" d="M671.4,101.2c0,0-14-32.5-11.7-58.5c0,0-9.8,28.1,5.7,79.4h7.8L671.4,101.2z"/>
			
				<linearGradient id="SVGID_16_" gradientUnits="userSpaceOnUse" x1="1543.4673" y1="82.8443" x2="1557.6185" y2="82.8443" gradientTransform="matrix(-1 0 0 1 2242.7031 0)">
				<stop  offset="0" style="stop-color:#8BC53F"/>
				<stop  offset="1" style="stop-color:#006838"/>
			</linearGradient>
			<path class="st16" d="M693.9,68.9c0,0-3.9-15.1-8.8-25.3c0,0,5.3,44.2,6.2,78.6h8L693.9,68.9z"/>
			
				<linearGradient id="SVGID_17_" gradientUnits="userSpaceOnUse" x1="1536.4594" y1="101.2091" x2="1542.7172" y2="101.2091" gradientTransform="matrix(-1 0 0 1 2242.7031 0)">
				<stop  offset="0" style="stop-color:#8BC53F"/>
				<stop  offset="1" style="stop-color:#006838"/>
			</linearGradient>
			<path class="st17" d="M706.2,91c0,0-2-6.1-6.3-10.7c0,0,4,29.5,1.4,41.8h2.9L706.2,91z"/>
			
				<linearGradient id="SVGID_18_" gradientUnits="userSpaceOnUse" x1="1525.9062" y1="88.5612" x2="1545.9023" y2="88.5612" gradientTransform="matrix(-1 0 0 1 2242.7031 0)">
				<stop  offset="0" style="stop-color:#8BC53F"/>
				<stop  offset="1" style="stop-color:#006838"/>
			</linearGradient>
			<path class="st18" d="M716.8,55c0,0-23.9,27.8-19.4,67.1h5.9C703.2,122.1,710.1,67.6,716.8,55z"/>
			
				<linearGradient id="SVGID_19_" gradientUnits="userSpaceOnUse" x1="1519.5453" y1="86.9894" x2="1538.5519" y2="86.9894" gradientTransform="matrix(-1 0 0 1 2242.7031 0)">
				<stop  offset="0" style="stop-color:#8BC53F"/>
				<stop  offset="1" style="stop-color:#006838"/>
			</linearGradient>
			<path class="st19" d="M723.2,51.9c0,0-13,27.5-8.6,67.7l-3.5,2.5h-6.8C704.2,122.1,704.2,68.3,723.2,51.9z"/>
			
				<linearGradient id="SVGID_20_" gradientUnits="userSpaceOnUse" x1="1529.0485" y1="80.5642" x2="1553.0905" y2="80.5642" gradientTransform="matrix(-1 0 0 1 2242.7031 0)">
				<stop  offset="0" style="stop-color:#8BC53F"/>
				<stop  offset="1" style="stop-color:#006838"/>
			</linearGradient>
			<path class="st20" d="M713.7,39c0,0-28.4,38.8-7.4,83.1h-12.5C693.7,122.1,676.2,73.5,713.7,39z"/>
			
				<linearGradient id="SVGID_21_" gradientUnits="userSpaceOnUse" x1="1549.415" y1="85.9976" x2="1565.2017" y2="85.9976" gradientTransform="matrix(-1 0 0 1 2242.7031 0)">
				<stop  offset="0" style="stop-color:#8BC53F"/>
				<stop  offset="1" style="stop-color:#006838"/>
			</linearGradient>
			<path class="st21" d="M678.7,122.1c0,0-7.5-42.3,14.6-72.3c0,0-18.7,45.1-5.7,72.3H678.7z"/>
			
				<linearGradient id="SVGID_22_" gradientUnits="userSpaceOnUse" x1="1551.4426" y1="94.2017" x2="1574.0269" y2="94.2017" gradientTransform="matrix(-1 0 0 1 2242.7031 0)">
				<stop  offset="0" style="stop-color:#8BC53F"/>
				<stop  offset="1" style="stop-color:#006838"/>
			</linearGradient>
			<path class="st22" d="M691.2,122.1c0,0,1.6-36.2-22.6-55.9c0,0,17.8,25.2,14.8,55.9H691.2z"/>
			
				<linearGradient id="SVGID_23_" gradientUnits="userSpaceOnUse" x1="1562.7355" y1="86.9894" x2="1583.051" y2="86.9894" gradientTransform="matrix(-1 0 0 1 2242.7031 0)">
				<stop  offset="0" style="stop-color:#8BC53F"/>
				<stop  offset="1" style="stop-color:#006838"/>
			</linearGradient>
			<path class="st23" d="M677.5,97.9c0,0-3.3-28.8-17.9-46c0,0,16.8,40.6,10.5,70.3h9.9L677.5,97.9z"/>
			
				<linearGradient id="SVGID_24_" gradientUnits="userSpaceOnUse" x1="1521.1193" y1="104.5585" x2="1534.2452" y2="104.5585" gradientTransform="matrix(-1 0 0 1 2242.7031 0)">
				<stop  offset="0" style="stop-color:#8BC53F"/>
				<stop  offset="1" style="stop-color:#006838"/>
			</linearGradient>
			<path class="st24" d="M714.5,122.1c0,0,6.2-9.3,7.1-35.1c0,0-6.4,28.2-13.1,35.1H714.5z"/>
			
				<linearGradient id="SVGID_25_" gradientUnits="userSpaceOnUse" x1="1576.0778" y1="91.8429" x2="1593.3737" y2="91.8429" gradientTransform="matrix(-1 0 0 1 2242.7031 0)">
				<stop  offset="0" style="stop-color:#8BC53F"/>
				<stop  offset="1" style="stop-color:#006838"/>
			</linearGradient>
			<path class="st25" d="M656.6,122.1c0,0-2.3-38.9-7.3-60.6c0,0,16.1,29.1,17.3,60.6H656.6z"/>
			
				<linearGradient id="SVGID_26_" gradientUnits="userSpaceOnUse" x1="1597.5994" y1="95.5859" x2="1609.2888" y2="95.5859" gradientTransform="matrix(-1 0 0 1 2242.7031 0)">
				<stop  offset="0" style="stop-color:#8BC53F"/>
				<stop  offset="1" style="stop-color:#006838"/>
			</linearGradient>
			<polygon class="st26" points="635.4,108.7 633.4,69 645.1,122.1 636.8,122.1 			"/>
			
				<linearGradient id="SVGID_27_" gradientUnits="userSpaceOnUse" x1="1594.0101" y1="92.4581" x2="1601.4962" y2="92.4581" gradientTransform="matrix(-1 0 0 1 2242.7031 0)">
				<stop  offset="0" style="stop-color:#8BC53F"/>
				<stop  offset="1" style="stop-color:#006838"/>
			</linearGradient>
			<path class="st27" d="M641.8,62.8c0,0,4.9,4.9,6.2,46.9l0.7,12.5h-7.5L641.8,62.8z"/>
			
				<linearGradient id="SVGID_28_" gradientUnits="userSpaceOnUse" x1="1586.9606" y1="97.0216" x2="1594.4199" y2="97.0216" gradientTransform="matrix(-1 0 0 1 2242.7031 0)">
				<stop  offset="0" style="stop-color:#8BC53F"/>
				<stop  offset="1" style="stop-color:#006838"/>
			</linearGradient>
			<path class="st28" d="M648.3,122.1h7.1c0,0,2.7-36.5-6-50.2C649.3,71.9,652.6,87.7,648.3,122.1z"/>
		</g>
		<g>
			<linearGradient id="SVGID_29_" gradientUnits="userSpaceOnUse" x1="621.0715" y1="96.0624" x2="611.3923" y2="95.4698">
				<stop  offset="0" style="stop-color:#8BC53F"/>
				<stop  offset="1" style="stop-color:#006838"/>
			</linearGradient>
			<path class="st29" d="M611.1,91.8c0,0,13.3-20.2,31.6-21.3c0,0-29,9.7-26.5,51.5H609L611.1,91.8z"/>
			<linearGradient id="SVGID_30_" gradientUnits="userSpaceOnUse" x1="606.0172" y1="64.5834" x2="596.9316" y2="119.1012">
				<stop  offset="0" style="stop-color:#8BC53F"/>
				<stop  offset="1" style="stop-color:#006838"/>
			</linearGradient>
			<path class="st30" d="M594.2,101.2c0,0,14-32.5,11.7-58.5c0,0,9.8,28.1-5.7,79.4h-7.8L594.2,101.2z"/>
			<linearGradient id="SVGID_31_" gradientUnits="userSpaceOnUse" x1="566.3426" y1="82.8443" x2="580.4939" y2="82.8443">
				<stop  offset="0" style="stop-color:#8BC53F"/>
				<stop  offset="1" style="stop-color:#006838"/>
			</linearGradient>
			<path class="st31" d="M571.7,68.9c0,0,3.9-15.1,8.8-25.3c0,0-5.3,44.2-6.2,78.6h-8L571.7,68.9z"/>
			<linearGradient id="SVGID_32_" gradientUnits="userSpaceOnUse" x1="559.3346" y1="101.2091" x2="565.5926" y2="101.2091">
				<stop  offset="0" style="stop-color:#8BC53F"/>
				<stop  offset="1" style="stop-color:#006838"/>
			</linearGradient>
			<path class="st32" d="M559.3,91c0,0,2-6.1,6.3-10.7c0,0-4,29.5-1.4,41.8h-2.9L559.3,91z"/>
			<linearGradient id="SVGID_33_" gradientUnits="userSpaceOnUse" x1="541.9252" y1="88.5612" x2="561.9214" y2="88.5612">
				<stop  offset="0" style="stop-color:#8BC53F"/>
				<stop  offset="1" style="stop-color:#006838"/>
			</linearGradient>
			<path class="st33" d="M541.9,55c0,0,23.9,27.8,19.4,67.1h-5.9C555.5,122.1,548.6,67.6,541.9,55z"/>
			<linearGradient id="SVGID_34_" gradientUnits="userSpaceOnUse" x1="536.4682" y1="86.9894" x2="555.4748" y2="86.9894">
				<stop  offset="0" style="stop-color:#8BC53F"/>
				<stop  offset="1" style="stop-color:#006838"/>
			</linearGradient>
			<path class="st34" d="M536.5,51.9c0,0,13,27.5,8.6,67.7l3.5,2.5h6.8C555.5,122.1,555.5,68.3,536.5,51.9z"/>
			<linearGradient id="SVGID_35_" gradientUnits="userSpaceOnUse" x1="551.9239" y1="80.5642" x2="575.9658" y2="80.5642">
				<stop  offset="0" style="stop-color:#8BC53F"/>
				<stop  offset="1" style="stop-color:#006838"/>
			</linearGradient>
			<path class="st35" d="M551.9,39c0,0,28.4,38.8,7.4,83.1h12.5C571.9,122.1,589.4,73.5,551.9,39z"/>
			<linearGradient id="SVGID_36_" gradientUnits="userSpaceOnUse" x1="572.2903" y1="85.9976" x2="588.0771" y2="85.9976">
				<stop  offset="0" style="stop-color:#8BC53F"/>
				<stop  offset="1" style="stop-color:#006838"/>
			</linearGradient>
			<path class="st36" d="M586.9,122.1c0,0,7.5-42.3-14.6-72.3c0,0,18.7,45.1,5.7,72.3H586.9z"/>
			<linearGradient id="SVGID_37_" gradientUnits="userSpaceOnUse" x1="574.3179" y1="94.2017" x2="596.9021" y2="94.2017">
				<stop  offset="0" style="stop-color:#8BC53F"/>
				<stop  offset="1" style="stop-color:#006838"/>
			</linearGradient>
			<path class="st37" d="M574.3,122.1c0,0-1.6-36.2,22.6-55.9c0,0-17.8,25.2-14.8,55.9H574.3z"/>
			<linearGradient id="SVGID_38_" gradientUnits="userSpaceOnUse" x1="585.6107" y1="86.9894" x2="605.9263" y2="86.9894">
				<stop  offset="0" style="stop-color:#8BC53F"/>
				<stop  offset="1" style="stop-color:#006838"/>
			</linearGradient>
			<path class="st38" d="M588.1,97.9c0,0,3.3-28.8,17.9-46c0,0-16.8,40.6-10.5,70.3h-9.9L588.1,97.9z"/>
			<linearGradient id="SVGID_39_" gradientUnits="userSpaceOnUse" x1="535.5109" y1="104.5585" x2="548.6368" y2="104.5585">
				<stop  offset="0" style="stop-color:#8BC53F"/>
				<stop  offset="1" style="stop-color:#006838"/>
			</linearGradient>
			<path class="st39" d="M542.6,122.1c0,0-6.2-9.3-7.1-35.1c0,0,6.4,28.2,13.1,35.1H542.6z"/>
			<linearGradient id="SVGID_40_" gradientUnits="userSpaceOnUse" x1="598.9531" y1="91.8429" x2="616.2491" y2="91.8429">
				<stop  offset="0" style="stop-color:#8BC53F"/>
				<stop  offset="1" style="stop-color:#006838"/>
			</linearGradient>
			<path class="st40" d="M609,122.1c0,0,2.3-38.9,7.3-60.6c0,0-16.1,29.1-17.3,60.6H609z"/>
			<linearGradient id="SVGID_41_" gradientUnits="userSpaceOnUse" x1="624.1794" y1="95.5859" x2="633.8493" y2="95.5859">
				<stop  offset="0" style="stop-color:#8BC53F"/>
				<stop  offset="1" style="stop-color:#006838"/>
			</linearGradient>
			<polygon class="st41" points="633.8,108.7 631.1,69 624.2,122.1 632.5,122.1 			"/>
			<linearGradient id="SVGID_42_" gradientUnits="userSpaceOnUse" x1="628.0764" y1="106.507" x2="658.0203" y2="106.507">
				<stop  offset="0" style="stop-color:#8BC53F"/>
				<stop  offset="1" style="stop-color:#006838"/>
			</linearGradient>
			<path class="st42" d="M635.9,122.1c0,0,8.7-26.1,22.2-31.2c0,0-20.5,0.5-29.9,31.2H635.9z"/>
			<linearGradient id="SVGID_43_" gradientUnits="userSpaceOnUse" x1="620.5903" y1="92.4581" x2="628.0764" y2="92.4581">
				<stop  offset="0" style="stop-color:#8BC53F"/>
				<stop  offset="1" style="stop-color:#006838"/>
			</linearGradient>
			<path class="st43" d="M627.5,62.8c0,0-4.9,4.9-6.2,46.9l-0.7,12.5h7.5L627.5,62.8z"/>
			<linearGradient id="SVGID_44_" gradientUnits="userSpaceOnUse" x1="613.5407" y1="97.0216" x2="621.0002" y2="97.0216">
				<stop  offset="0" style="stop-color:#8BC53F"/>
				<stop  offset="1" style="stop-color:#006838"/>
			</linearGradient>
			<path class="st44" d="M621,122.1h-7.1c0,0-2.7-36.5,6-50.2C620,71.9,616.7,87.7,621,122.1z"/>
		</g>
	</g>
	<linearGradient id="SVGID_45_" gradientUnits="userSpaceOnUse" x1="-3.0991" y1="84.3934" x2="957" y2="84.3934">
		<stop  offset="0" style="stop-color:#8BC53F"/>
		<stop  offset="1" style="stop-color:#006838"/>
	</linearGradient>
	<path class="st45" d="M956.9,161.2c0,0-960,0-960,0c0-55,0-77.2,0-153.7c85.6,15.3,302.2,73.5,425,90c38.1,5.1,76.4,9.2,114.7,12.1
		c51.4,4,103.6,5.2,155.3,2.8c15.1-0.7,30.2-1.7,45.3-3.1c70.9-6.4,154-25.5,219.7-53.6C957.2,99.7,956.9,161.2,956.9,161.2z"/>
	<g>
		<linearGradient id="SVGID_46_" gradientUnits="userSpaceOnUse" x1="218.0534" y1="42.6768" x2="214.6113" y2="70.4811">
			<stop  offset="0" style="stop-color:#8BC53F"/>
			<stop  offset="1" style="stop-color:#006838"/>
		</linearGradient>
		<path class="st46" d="M216,73.2c0,0-3.9-29.5-4.5-38.7c0,0,7,19,6.8,20.6l3.7,18.1H216z"/>
		<linearGradient id="SVGID_47_" gradientUnits="userSpaceOnUse" x1="217.9963" y1="36.4991" x2="238.8923" y2="36.4991">
			<stop  offset="0" style="stop-color:#8BC53F"/>
			<stop  offset="1" style="stop-color:#006838"/>
		</linearGradient>
		<path class="st47" d="M219.2,60.2c0,0-8.6-52.8,19.7-60.4c0,0-18,5.5-14.5,52.6c1.2,16.2,1.8,20.9,1.8,20.9h-4.3L219.2,60.2z"/>
		<linearGradient id="SVGID_48_" gradientUnits="userSpaceOnUse" x1="224.4648" y1="55.1967" x2="248.7259" y2="55.1967">
			<stop  offset="0" style="stop-color:#8BC53F"/>
			<stop  offset="1" style="stop-color:#006838"/>
		</linearGradient>
		<path class="st48" d="M224.5,53.9c0,0,5-16,24.3-16.7c0,0-21.1,3.9-21.7,27.5l1.4,8.5h-2.3L224.5,53.9z"/>
		<linearGradient id="SVGID_49_" gradientUnits="userSpaceOnUse" x1="227.0134" y1="59.1891" x2="258.1482" y2="59.1891">
			<stop  offset="0" style="stop-color:#8BC53F"/>
			<stop  offset="1" style="stop-color:#006838"/>
		</linearGradient>
		<path class="st49" d="M258.1,45.1c0,0-23.4,2.3-31.1,19.6l1.4,8.5h1.8C230.3,73.2,229.1,53.9,258.1,45.1z"/>
	</g>
	<g>
		
			<linearGradient id="SVGID_50_" gradientUnits="userSpaceOnUse" x1="266.2831" y1="44.3772" x2="289.0955" y2="44.3772" gradientTransform="matrix(0.9998 1.870000e-02 -1.870000e-02 0.9998 5.0586 -5.6762)">
			<stop  offset="0" style="stop-color:#8BC53F"/>
			<stop  offset="1" style="stop-color:#006838"/>
		</linearGradient>
		<path class="st50" d="M269.8,78c0,0,2.1-55.2,24.1-68.3c0,0-19.6,28.7-13.3,68.5L269.8,78z"/>
		
			<linearGradient id="SVGID_51_" gradientUnits="userSpaceOnUse" x1="257.0952" y1="46.3041" x2="273.8389" y2="46.3041" gradientTransform="matrix(0.9998 1.870000e-02 -1.870000e-02 0.9998 5.0586 -5.6762)">
			<stop  offset="0" style="stop-color:#8BC53F"/>
			<stop  offset="1" style="stop-color:#006838"/>
		</linearGradient>
		<path class="st51" d="M261.8,13c0,0,7.3,54.8,4.7,65l10.8,0.2C277.4,78.2,271.2,27.4,261.8,13z"/>
		
			<linearGradient id="SVGID_52_" gradientUnits="userSpaceOnUse" x1="242.5775" y1="54.0079" x2="268.9503" y2="54.0079" gradientTransform="matrix(0.9998 1.870000e-02 -1.870000e-02 0.9998 5.0586 -5.6762)">
			<stop  offset="0" style="stop-color:#8BC53F"/>
			<stop  offset="1" style="stop-color:#006838"/>
		</linearGradient>
		<path class="st52" d="M261.8,77.9c0,0,1.1-24.9-14.8-49.8c0,0,25.4,20.9,25.4,50L261.8,77.9z"/>
		
			<linearGradient id="SVGID_53_" gradientUnits="userSpaceOnUse" x1="1923.9503" y1="54.5653" x2="1964.2446" y2="54.5653" gradientTransform="matrix(-0.9998 -1.870000e-02 -1.870000e-02 0.9998 2237.8201 35.3825)">
			<stop  offset="0" style="stop-color:#8BC53F"/>
			<stop  offset="1" style="stop-color:#006838"/>
		</linearGradient>
		<path class="st53" d="M283.1,78.3c0,0,1.1-45.6,30.5-48.9c0,0-29.8-7.7-41.2,48.7L283.1,78.3z"/>
	</g>
</g>
</svg>
