<?xml version="1.0" encoding="utf-8"?>
<!-- Generator: Adobe Illustrator 21.0.2, SVG Export Plug-In . SVG Version: 6.00 Build 0)  -->
<svg version="1.1" id="Layer_1" xmlns="http://www.w3.org/2000/svg" xmlns:xlink="http://www.w3.org/1999/xlink" x="0px" y="0px"
	 viewBox="0 0 216 88.6" style="enable-background:new 0 0 216 88.6;" xml:space="preserve">
<style type="text/css">
	.st0{fill:none;enable-background:new    ;}
	.st1{fill:#006838;}
	.st2{fill:none;stroke:#FFFFFF;stroke-miterlimit:10;}
	.st3{fill:url(#SVGID_1_);}
	.st4{fill:#FFFFFF;}
	.st5{font-family:'GillSans-SemiBoldItalic';}
	.st6{font-size:24.224px;}
</style>
<path class="st0" d="z"/>
<g>
	<path class="st1" d="M195.8,0.5H20.2C9,0.5,0,9.5,0,20.7v32.5c0,11.2,9,20.2,20.2,20.2h72.5L108,88.6l15.3-15.3h72.5
		c11.2,0,20.2-9,20.2-20.2V20.7C216,9.5,207,0.5,195.8,0.5z"/>
	<g>
		<path class="st2" d="M20.2,64.4C14,64.4,9,59.3,9,53.2V20.7c0-6.2,5-11.2,11.2-11.2h175.6c6.2,0,11.2,5,11.2,11.2v32.5
			c0,6.2-5,11.2-11.2,11.2H20.2z"/>
		<linearGradient id="SVGID_1_" gradientUnits="userSpaceOnUse" x1="107.9995" y1="-8.6524" x2="107.9995" y2="33.3476">
			<stop  offset="0" style="stop-color:#FFFFFF;stop-opacity:0.6"/>
			<stop  offset="1" style="stop-color:#FFFFFF;stop-opacity:0"/>
		</linearGradient>
		<path class="st3" d="M20.2,55.4C14,55.4,9,50.3,9,44.2V11.7C9,5.5,14,0.5,20.2,0.5h175.6c6.2,0,11.2,5,11.2,11.2v32.5
			c0,6.2-5,11.2-11.2,11.2H20.2z"/>
		<text transform="matrix(1 0 0 1 63.5852 31.9005)"><tspan x="0" y="0" class="st4 st5 st6">SPRING </tspan><tspan x="-30" y="24.3" class="st4 st5 st6">TREATMENTS</tspan></text>
	</g>
</g>
</svg>
