<?xml version="1.0" encoding="utf-8"?>
<!-- Generator: Adobe Illustrator 21.0.2, SVG Export Plug-In . SVG Version: 6.00 Build 0)  -->
<svg version="1.1" id="Layer_1" xmlns="http://www.w3.org/2000/svg" xmlns:xlink="http://www.w3.org/1999/xlink" x="0px" y="0px"
	 viewBox="0 0 216 88.2" style="enable-background:new 0 0 216 88.2;" xml:space="preserve">
<style type="text/css">
	.st0{fill:none;enable-background:new    ;}
	.st1{fill:#006838;}
	.st2{fill:none;stroke:#FFFFFF;stroke-miterlimit:10;}
	.st3{fill:url(#SVGID_1_);}
	.st4{fill:#FFFFFF;}
	.st5{font-family:'GillSans-SemiBoldItalic';}
	.st6{font-size:24.224px;}
</style>
<path class="st0" d="M0,0"/>
<g>
	<path class="st1" d="M195.8,0H20.2C9,0,0,9.1,0,20.2v32.5c0,11.2,9,20.2,20.2,20.2h72.5L108,88.2l15.3-15.3h72.5
		c11.2,0,20.2-9,20.2-20.2V20.2C216,9.1,207,0,195.8,0z"/>
	<path class="st2" d="M20.2,63.9C14,63.9,9,58.9,9,52.7V20.2C9,14,14,9,20.2,9h175.6C202,9,207,14,207,20.2v32.5
		c0,6.2-5,11.2-11.2,11.2H20.2z"/>
	<linearGradient id="SVGID_1_" gradientUnits="userSpaceOnUse" x1="107.9998" y1="-9.1065" x2="107.9998" y2="32.8935">
		<stop  offset="0" style="stop-color:#FFFFFF;stop-opacity:0.6"/>
		<stop  offset="1" style="stop-color:#FFFFFF;stop-opacity:0"/>
	</linearGradient>
	<path class="st3" d="M20.2,54.9C14,54.9,9,49.9,9,43.7V11.2C9,5,14,0,20.2,0h175.6C202,0,207,5,207,11.2v32.5
		c0,6.2-5,11.2-11.2,11.2H20.2z"/>
	<text transform="matrix(1 0 0 1 62.2898 31.4476)"><tspan x="0" y="0" class="st4 st5 st6">TREES &amp;</tspan><tspan x="-39.2" y="24.3" class="st4 st5 st6">ORNAMENTALS</tspan></text>
</g>
</svg>
