<?xml version="1.0" encoding="utf-8"?>
<!-- Generator: Adobe Illustrator 21.0.2, SVG Export Plug-In . SVG Version: 6.00 Build 0)  -->
<svg version="1.1" id="Layer_1" xmlns="http://www.w3.org/2000/svg" xmlns:xlink="http://www.w3.org/1999/xlink" x="0px" y="0px"
	 viewBox="0 0 122 56" style="enable-background:new 0 0 122 56;" xml:space="preserve">
<style type="text/css">
	.st0{fill:url(#SVGID_1_);}
	.st1{fill:url(#SVGID_2_);}
	.st2{fill:#FFFFFF;}
</style>
<g>
	<linearGradient id="SVGID_1_" gradientUnits="userSpaceOnUse" x1="0.5876" y1="28.3447" x2="121.5964" y2="28.3447">
		<stop  offset="0" style="stop-color:#62C470"/>
		<stop  offset="1" style="stop-color:#39B54A"/>
	</linearGradient>
	<path class="st0" d="M106.1,55.6h-90C7.5,55.6,0.6,48.6,0.6,40V16.6c0-8.6,6.9-15.5,15.5-15.5h90c8.6,0,15.5,6.9,15.5,15.5V40
		C121.6,48.6,114.6,55.6,106.1,55.6z"/>
	<linearGradient id="SVGID_2_" gradientUnits="userSpaceOnUse" x1="61.0919" y1="5.9466" x2="61.0919" y2="42.76">
		<stop  offset="0" style="stop-color:#FFFFFF;stop-opacity:0.6"/>
		<stop  offset="1" style="stop-color:#FFFFFF;stop-opacity:0"/>
	</linearGradient>
	<path class="st1" d="M16.1,47.6c-5.3,0-9.7-4.3-9.7-9.7V14.5c0-5.3,4.3-9.7,9.7-9.7h90c5.3,0,9.7,4.3,9.7,9.7v23.4
		c0,5.3-4.3,9.7-9.7,9.7H16.1z"/>
	<g>
		<path class="st2" d="M31.1,28.8l-1.6-1c-1-0.6-1.7-1.2-2.1-1.8s-0.6-1.3-0.6-2.1c0-1.2,0.4-2.1,1.2-2.8c0.8-0.7,1.8-1.1,3.1-1.1
			c1.2,0,2.4,0.3,3.4,1v2.4c-1.1-1-2.2-1.5-3.4-1.5c-0.7,0-1.3,0.2-1.7,0.5c-0.4,0.3-0.7,0.7-0.7,1.2c0,0.4,0.2,0.9,0.5,1.2
			c0.3,0.4,0.9,0.8,1.6,1.2l1.6,1c1.8,1.1,2.7,2.4,2.7,4.1c0,1.2-0.4,2.1-1.2,2.9c-0.8,0.7-1.8,1.1-3.1,1.1c-1.5,0-2.8-0.4-4-1.3
			v-2.7c1.1,1.4,2.5,2.2,4,2.2c0.7,0,1.2-0.2,1.6-0.6s0.7-0.8,0.7-1.4C33,30.4,32.4,29.6,31.1,28.8z"/>
		<path class="st2" d="M47.5,20.2h2.1v8.4c0,1.1-0.1,2-0.2,2.6s-0.4,1.1-0.6,1.4s-0.5,0.7-0.9,1c-1.2,1-2.7,1.5-4.6,1.5
			c-1.9,0-3.5-0.5-4.6-1.5c-0.4-0.3-0.6-0.7-0.9-1c-0.2-0.4-0.4-0.9-0.6-1.4c-0.2-0.6-0.2-1.4-0.2-2.6v-8.3h2.1v8.4
			c0,1.4,0.2,2.3,0.5,2.9s0.8,1,1.4,1.3c0.6,0.3,1.4,0.5,2.3,0.5c1.2,0,2.3-0.3,3.1-1c0.4-0.4,0.7-0.8,0.9-1.2
			c0.2-0.5,0.3-1.3,0.3-2.5V20.2z"/>
		<path class="st2" d="M57.6,35h-5V20.2h3.9c1.2,0,2.2,0.2,2.8,0.5s1.2,0.8,1.6,1.3c0.4,0.6,0.5,1.2,0.5,2c0,1.4-0.7,2.5-2.2,3.1
			c1.1,0.2,1.9,0.6,2.6,1.3c0.6,0.7,1,1.5,1,2.4c0,0.8-0.2,1.4-0.6,2c-0.4,0.6-1,1.1-1.7,1.4C59.6,34.8,58.7,35,57.6,35z M56.5,22.1
			h-1.8v4.4h1.4c1.1,0,1.9-0.2,2.4-0.6c0.5-0.4,0.7-1,0.7-1.7C59.2,22.8,58.3,22.1,56.5,22.1z M56.7,28.4h-2v4.7h2.1
			c1.2,0,1.9-0.1,2.3-0.3s0.7-0.5,1-0.8c0.2-0.4,0.4-0.8,0.4-1.2c0-0.4-0.1-0.9-0.4-1.2s-0.6-0.7-1.1-0.8
			C58.5,28.5,57.7,28.4,56.7,28.4z"/>
		<path class="st2" d="M76.4,20.2h2V35h-2.1V23.5l-4.5,5.7h-0.4l-4.6-5.7V35h-2.1V20.2h2l4.9,6L76.4,20.2z"/>
		<path class="st2" d="M81.6,20.2h2.1V35h-2.1V20.2z"/>
		<path class="st2" d="M85.7,20.2H98v1.9h-5.1V35h-2.1V22.1h-5V20.2z"/>
	</g>
</g>
</svg>
