<?xml version="1.0" encoding="utf-8"?>
<!-- Generator: Adobe Illustrator 21.0.2, SVG Export Plug-In . SVG Version: 6.00 Build 0)  -->
<svg version="1.1" id="Layer_1" xmlns="http://www.w3.org/2000/svg" xmlns:xlink="http://www.w3.org/1999/xlink" x="0px" y="0px"
	 viewBox="0 0 250.8 47.8" style="enable-background:new 0 0 250.8 47.8;" xml:space="preserve">
<style type="text/css">
	.st0{fill:#575251;}
	.st1{fill:#39B54A;}
</style>
<g>
	<g>
		<path class="st0" d="M18.1,4.8c1.5,0,2.9,0.2,4.3,0.5c1.4,0.3,2.9,0.9,4.5,1.7v4.6c-1.6-0.9-3-1.6-4.4-2c-1.3-0.4-2.7-0.6-4.2-0.6
			c-1.8,0-3.5,0.4-4.9,1.1C12,11,10.8,12,10,13.4c-0.8,1.4-1.2,2.9-1.2,4.6c0,1.7,0.4,3.2,1.2,4.6c0.8,1.4,1.9,2.4,3.4,3.1
			c1.5,0.7,3.1,1.1,4.9,1.1c1.4,0,2.7-0.2,4-0.6s2.9-1.1,4.8-2.2v4.6c-1.7,0.9-3.2,1.5-4.6,1.8c-1.4,0.4-3,0.5-4.9,0.5
			c-2.7,0-5.1-0.5-7.2-1.6c-2.1-1.1-3.8-2.6-5-4.6c-1.2-2-1.8-4.2-1.8-6.6c0-2.6,0.6-4.9,1.9-6.9s3-3.6,5.2-4.7
			C12.9,5.4,15.4,4.8,18.1,4.8z"/>
		<path class="st0" d="M44.6,4.8c2.6,0,5,0.5,7.1,1.6c2.1,1.1,3.8,2.7,5.1,4.7c1.3,2.1,1.9,4.3,1.9,6.8c0,2.4-0.6,4.6-1.8,6.6
			c-1.2,2-2.9,3.6-5,4.8c-2.1,1.1-4.5,1.7-7.2,1.7c-2.6,0-5-0.6-7.2-1.7c-2.2-1.1-3.8-2.7-5.1-4.7c-1.2-2-1.8-4.2-1.8-6.6
			c0-2.3,0.6-4.5,1.8-6.6c1.2-2.1,2.9-3.7,5-4.8C39.4,5.4,41.8,4.8,44.6,4.8z M35.6,18c0,1.7,0.4,3.2,1.2,4.6
			c0.8,1.4,1.8,2.4,3.2,3.1c1.4,0.7,2.9,1.1,4.7,1.1c2.6,0,4.8-0.8,6.5-2.5s2.5-3.8,2.5-6.4c0-1.7-0.4-3.2-1.1-4.6
			c-0.8-1.4-1.8-2.4-3.2-3.2s-2.9-1.1-4.7-1.1c-1.7,0-3.3,0.4-4.7,1.1c-1.4,0.7-2.4,1.8-3.2,3.1C35.9,14.7,35.6,16.2,35.6,18z"/>
		<path class="st0" d="M67.6,5.2L82.8,23V5.2h4.8v25.5h-4.2L68.1,12.6v18.1h-4.8V5.2H67.6z"/>
		<path class="st0" d="M114.4,5.2V9h-9.1v21.7h-4.9V9h-9.1V5.2H114.4z"/>
		<path class="st0" d="M128.1,5.2l11.3,25.5h-5.2l-2.6-6.2h-11.3l-2.5,6.2h-5.2L123,5.2H128.1z M121.6,20.7h8.2l-4.3-10.1
			L121.6,20.7z"/>
		<path class="st0" d="M154.6,4.8c1.5,0,2.9,0.2,4.3,0.5c1.4,0.3,2.9,0.9,4.5,1.7v4.6c-1.6-0.9-3-1.6-4.4-2
			c-1.3-0.4-2.7-0.6-4.2-0.6c-1.8,0-3.5,0.4-4.9,1.1c-1.5,0.7-2.6,1.8-3.4,3.2c-0.8,1.4-1.2,2.9-1.2,4.6c0,1.7,0.4,3.2,1.2,4.6
			c0.8,1.4,1.9,2.4,3.4,3.1c1.5,0.7,3.1,1.1,4.9,1.1c1.4,0,2.7-0.2,4-0.6s2.9-1.1,4.8-2.2v4.6c-1.7,0.9-3.2,1.5-4.6,1.8
			c-1.4,0.4-3,0.5-4.9,0.5c-2.7,0-5.1-0.5-7.2-1.6c-2.1-1.1-3.8-2.6-5-4.6c-1.2-2-1.8-4.2-1.8-6.6c0-2.6,0.6-4.9,1.9-6.9
			s3-3.6,5.2-4.7C149.4,5.4,151.9,4.8,154.6,4.8z"/>
		<path class="st0" d="M189.5,5.2V9h-9.1v21.7h-4.9V9h-9.1V5.2H189.5z"/>
		<path class="st0" d="M208.4,5.2V20c0,1.5,0.2,2.7,0.7,3.6c0.5,0.9,1.2,1.6,2.2,2.2c1,0.6,2.2,0.9,3.6,0.9c1.5,0,2.8-0.3,3.8-0.8
			c1.1-0.6,1.8-1.3,2.3-2.3c0.5-1,0.7-2.3,0.7-4V5.2h4.9v15.2c0,3.4-1,6.1-3.1,7.9c-2.1,1.8-5,2.8-8.7,2.8c-2.4,0-4.4-0.4-6.2-1.3
			c-1.7-0.8-3.1-2.1-4-3.6c-0.9-1.6-1.4-3.5-1.4-5.6V5.2H208.4z"/>
		<path class="st0" d="M239.7,4.8c2.5,0,4.9,0.6,7.2,1.9v4.4c-2.6-1.6-5-2.4-7-2.4c-1.2,0-2.2,0.2-2.9,0.7c-0.7,0.5-1.1,1.1-1.1,1.9
			c0,1,0.7,1.9,2,2.7c0.4,0.2,1.8,0.9,4.2,2c2.1,1,3.6,2.1,4.5,3.3c0.9,1.2,1.4,2.7,1.4,4.3c0,2.2-0.8,4-2.4,5.3
			c-1.6,1.3-3.6,2-6.1,2c-1.6,0-3-0.2-4.2-0.5c-1.2-0.4-2.5-1-4-1.9v-4.9c2.7,2.3,5.3,3.4,7.7,3.4c1.2,0,2.2-0.3,2.9-0.8
			c0.7-0.5,1.1-1.2,1.1-2.1c0-1.2-0.6-2.1-1.9-2.9c-1.1-0.6-2.5-1.3-4.1-2.1c-2-0.9-3.5-2-4.5-3.2c-1-1.2-1.5-2.6-1.5-4.2
			c0-2.1,0.8-3.9,2.4-5.1C234.9,5.5,237,4.8,239.7,4.8z"/>
	</g>
</g>
<rect x="2" y="43.1" class="st1" width="245.3" height="3.4"/>
</svg>
