<?xml version="1.0" encoding="utf-8"?>
<!-- Generator: Adobe Illustrator 21.0.2, SVG Export Plug-In . SVG Version: 6.00 Build 0)  -->
<svg version="1.1" id="Layer_1" xmlns="http://www.w3.org/2000/svg" xmlns:xlink="http://www.w3.org/1999/xlink" x="0px" y="0px"
	 viewBox="0 0 216 88.2" style="enable-background:new 0 0 216 88.2;" xml:space="preserve">
<style type="text/css">
	.st0{fill:none;enable-background:new    ;}
	.st1{fill:#006838;}
	.st2{fill:none;stroke:#FFFFFF;stroke-miterlimit:10;}
	.st3{fill:url(#SVGID_1_);}
	.st4{fill:#FFFFFF;}
</style>
<path class="st0" d="z"/>
<g>
	<path class="st1" d="M195.8,0H20.2C9,0,0,9,0,20.2v32.5c0,11.2,9,20.2,20.2,20.2h72.5L108,88.2l15.3-15.3h72.5
		c11.2,0,20.2-9,20.2-20.2V20.2C216,9,207,0,195.8,0z"/>
	<path class="st2" d="M20.2,63.9C14,63.9,9,58.9,9,52.7V20.2C9,14,14,9,20.2,9h175.6C202,9,207,14,207,20.2v32.5
		c0,6.2-5,11.2-11.2,11.2H20.2z"/>
	<linearGradient id="SVGID_1_" gradientUnits="userSpaceOnUse" x1="107.9998" y1="-9.1162" x2="107.9998" y2="32.8838">
		<stop  offset="0" style="stop-color:#FFFFFF;stop-opacity:0.6"/>
		<stop  offset="1" style="stop-color:#FFFFFF;stop-opacity:0"/>
	</linearGradient>
	<path class="st3" d="M20.2,54.9C14,54.9,9,49.9,9,43.7V11.2C9,5,14,0,20.2,0h175.6C202,0,207,5,207,11.2v32.5
		c0,6.2-5,11.2-11.2,11.2H20.2z"/>
	<g>
		<path class="st4" d="M92,17.5c-0.2-0.1-0.6-0.1-1.1-0.2c-0.5-0.1-1-0.1-1.4-0.1c-1.2,0-2.3,0.2-3.3,0.5c-1,0.3-1.8,0.8-2.5,1.5
			c-0.7,0.6-1.2,1.4-1.6,2.3c-0.4,0.9-0.6,1.9-0.6,2.9c0,0.9,0.2,1.8,0.6,2.5c0.4,0.7,0.9,1.3,1.6,1.7c0.7,0.4,1.5,0.6,2.4,0.6
			c0.8,0,1.7-0.2,2.6-0.5c0.9-0.3,1.9-0.8,2.8-1.5L91,30.3c-1.8,0.9-3.6,1.4-5.3,1.4c-1.4,0-2.6-0.3-3.7-0.9
			c-1.1-0.6-1.9-1.5-2.5-2.6c-0.6-1.1-0.9-2.3-0.9-3.7c0-1.9,0.5-3.6,1.4-5.1s2.2-2.6,3.9-3.5c1.7-0.8,3.6-1.2,5.8-1.2
			c0.4,0,0.9,0,1.5,0.1c0.6,0.1,1,0.1,1.4,0.2L92,17.5z"/>
		<path class="st4" d="M109.2,21.9c0,1.8-0.4,3.5-1.1,5s-1.8,2.7-3.1,3.5c-1.3,0.8-2.8,1.3-4.4,1.3c-1.3,0-2.5-0.3-3.6-0.9
			c-1.1-0.6-1.9-1.5-2.5-2.6c-0.6-1.1-0.9-2.4-0.9-3.7c0-1.3,0.2-2.5,0.7-3.7c0.4-1.2,1.1-2.2,1.9-3.1c0.8-0.9,1.7-1.6,2.8-2.1
			c1.1-0.5,2.2-0.7,3.4-0.7c1.3,0,2.5,0.3,3.6,0.9c1.1,0.6,1.9,1.5,2.4,2.6C108.9,19.3,109.2,20.5,109.2,21.9z M106.4,21.8
			c0-0.9-0.2-1.7-0.5-2.4c-0.3-0.7-0.8-1.2-1.4-1.6c-0.6-0.4-1.4-0.6-2.2-0.6c-1,0-2,0.3-2.9,0.9c-0.9,0.6-1.6,1.5-2.1,2.7
			s-0.8,2.4-0.8,3.7c0,0.9,0.2,1.8,0.5,2.5c0.3,0.7,0.8,1.3,1.5,1.7c0.6,0.4,1.4,0.6,2.2,0.6c1,0,2-0.3,2.9-1
			c0.9-0.7,1.6-1.6,2.1-2.7S106.4,23.1,106.4,21.8z"/>
		<path class="st4" d="M124.1,31.4h-3l-1.8-3.7c-0.5-1-0.9-1.7-1.1-2.1c-0.2-0.4-0.4-0.6-0.7-0.8c-0.2-0.2-0.4-0.3-0.7-0.4
			c-0.3-0.1-0.6-0.1-1-0.1H115l-1,7h-2.8l2.3-16.5h4.2c1,0,1.9,0.1,2.6,0.4c0.7,0.3,1.3,0.6,1.7,1c0.4,0.4,0.8,0.9,1,1.5
			c0.2,0.6,0.3,1.1,0.3,1.7c0,1-0.3,1.9-1,2.7c-0.7,0.8-1.5,1.3-2.7,1.5v0.1c0.3,0.2,0.6,0.4,0.9,0.8s0.5,0.7,0.6,1.1L124.1,31.4z
			 M120.4,19.5c0-0.7-0.2-1.3-0.7-1.7c-0.5-0.4-1.2-0.6-2.1-0.6H116l-0.7,4.9h1.4c0.8,0,1.4-0.1,2-0.3s1-0.5,1.2-0.9
			C120.2,20.5,120.4,20,120.4,19.5z"/>
		<path class="st4" d="M138.1,14.9l-0.3,2.3h-6.7l-0.7,4.6h5.9l-0.3,2.3h-5.9l-0.7,4.9h8.4l-0.3,2.3h-11.2l2.3-16.5H138.1z"/>
		<path class="st4" d="M64.4,55.8h-2.7l-0.8-4.5h-5.2l-1.9,4.5h-3l7.6-16.7h2.8L64.4,55.8z M60.5,49.3l-1.1-7h-0.1l-2.9,7H60.5z"/>
		<path class="st4" d="M78.6,39.3l-0.3,2.3h-6.7l-0.7,4.6h5.9l-0.3,2.3h-5.9l-0.7,4.9h8.4L78,55.8H66.8l2.3-16.5H78.6z"/>
		<path class="st4" d="M93.3,55.8h-3l-1.8-3.7c-0.5-1-0.9-1.7-1.1-2.1c-0.2-0.4-0.4-0.6-0.7-0.8c-0.2-0.2-0.4-0.3-0.7-0.4
			c-0.3-0.1-0.6-0.1-1-0.1h-0.8l-1,7h-2.8l2.3-16.5h4.2c1,0,1.9,0.1,2.6,0.4c0.7,0.3,1.3,0.6,1.7,1s0.8,0.9,1,1.5
			c0.2,0.6,0.3,1.1,0.3,1.7c0,1-0.3,1.9-1,2.7c-0.7,0.8-1.5,1.3-2.7,1.5v0.1c0.3,0.2,0.6,0.4,0.9,0.8s0.5,0.7,0.6,1.1L93.3,55.8z
			 M89.6,43.8c0-0.7-0.2-1.3-0.7-1.7c-0.5-0.4-1.2-0.6-2.1-0.6h-1.5l-0.7,4.9H86c0.8,0,1.4-0.1,2-0.3s1-0.5,1.2-0.9
			C89.5,44.8,89.6,44.4,89.6,43.8z"/>
		<path class="st4" d="M106.9,55.8h-2.7l-0.8-4.5h-5.2l-1.9,4.5h-3l7.6-16.7h2.8L106.9,55.8z M103.1,49.3l-1.1-7H102l-2.9,7H103.1z"
			/>
		<path class="st4" d="M122.5,39.3l-0.3,2.4h-5l-2,14.1h-2.8l2-14.1h-4.9l0.3-2.4H122.5z"/>
		<path class="st4" d="M128.1,39.3l-2.3,16.5h-2.8l2.3-16.5H128.1z"/>
		<path class="st4" d="M145.6,46.2c0,1.8-0.4,3.5-1.1,5s-1.8,2.7-3.1,3.5c-1.3,0.8-2.8,1.3-4.4,1.3c-1.3,0-2.5-0.3-3.6-0.9
			c-1.1-0.6-1.9-1.5-2.5-2.6c-0.6-1.1-0.9-2.4-0.9-3.7c0-1.3,0.2-2.5,0.7-3.7c0.4-1.2,1.1-2.2,1.9-3.1c0.8-0.9,1.7-1.6,2.8-2.1
			c1.1-0.5,2.2-0.7,3.4-0.7c1.3,0,2.5,0.3,3.6,0.9s1.9,1.5,2.4,2.6C145.3,43.6,145.6,44.9,145.6,46.2z M142.7,46.1
			c0-0.9-0.2-1.7-0.5-2.4c-0.3-0.7-0.8-1.2-1.4-1.6c-0.6-0.4-1.4-0.6-2.2-0.6c-1,0-2,0.3-2.9,0.9c-0.9,0.6-1.6,1.5-2.1,2.7
			s-0.8,2.4-0.8,3.7c0,0.9,0.2,1.8,0.5,2.5c0.3,0.7,0.8,1.3,1.5,1.7c0.6,0.4,1.4,0.6,2.2,0.6c1,0,2-0.3,2.9-1
			c0.9-0.7,1.6-1.6,2.1-2.7S142.7,47.5,142.7,46.1z"/>
		<path class="st4" d="M163.9,39.3l-2.3,16.5h-2.2l-7.6-11.7h0l-1.6,11.7h-2.7l2.3-16.5h2.2l7.6,11.5h0l1.6-11.5H163.9z"/>
	</g>
</g>
</svg>
