<?xml version="1.0" encoding="utf-8"?>
<!-- Generator: Adobe Illustrator 21.0.2, SVG Export Plug-In . SVG Version: 6.00 Build 0)  -->
<svg version="1.1" id="Layer_1" xmlns="http://www.w3.org/2000/svg" xmlns:xlink="http://www.w3.org/1999/xlink" x="0px" y="0px"
	 viewBox="0 0 168 46" style="enable-background:new 0 0 168 46;" xml:space="preserve">
<style type="text/css">
	.st0{fill:none;enable-background:new    ;}
	.st1{fill:#FFFFFF;}
	.st2{fill:#39B54A;}
</style>
<path class="st0" d="z"/>
<g>
	<g>
		<path class="st1" d="M11,5.3c2.5,0,4.9,0.6,7.2,1.9v4.4c-2.6-1.6-5-2.4-7-2.4C9.9,9.2,9,9.4,8.3,9.9c-0.7,0.5-1.1,1.1-1.1,1.9
			c0,1,0.7,1.9,2,2.7c0.4,0.2,1.8,0.9,4.2,2c2.1,1,3.6,2.1,4.5,3.3c0.9,1.2,1.4,2.7,1.4,4.3c0,2.2-0.8,4-2.4,5.3
			c-1.6,1.3-3.6,2-6.1,2c-1.6,0-3-0.2-4.2-0.5c-1.2-0.4-2.5-1-4-1.9v-4.9c2.7,2.3,5.3,3.4,7.7,3.4c1.2,0,2.2-0.3,2.9-0.8
			c0.7-0.5,1.1-1.2,1.1-2.1c0-1.2-0.6-2.1-1.9-2.9c-1.1-0.6-2.5-1.3-4.1-2.1c-2-0.9-3.5-2-4.5-3.2c-1-1.2-1.5-2.6-1.5-4.2
			c0-2.1,0.8-3.9,2.4-5.1C6.3,5.9,8.4,5.3,11,5.3z"/>
		<path class="st1" d="M40.1,5.6v3.9H28.5v6.7h11.1v3.9H28.5v7.3h11.8v3.9H23.6V5.6H40.1z"/>
		<path class="st1" d="M54.2,5.6c2.4,0,4.4,0.7,5.9,2s2.3,3.1,2.3,5.2c0,1.4-0.4,2.7-1.1,3.8c-0.8,1.1-1.9,1.9-3.3,2.5
			c0.8,0.4,1.5,1,2.2,1.8c0.6,0.8,1.4,2,2.4,3.8c1.6,3.1,2.7,5.2,3.5,6.4h-5.5c-0.4-0.6-0.9-1.5-1.5-2.7c-1.4-2.7-2.4-4.5-3.1-5.5
			s-1.3-1.6-1.9-2c-0.6-0.4-1.3-0.6-2.1-0.6h-1.8v10.8H45V5.6H54.2z M53.1,16.5c1.3,0,2.3-0.3,3-1s1.1-1.5,1.1-2.7
			c0-1.2-0.4-2-1.1-2.6c-0.7-0.6-1.8-0.9-3.1-0.9h-3.1v7.1H53.1z"/>
		<path class="st1" d="M69.8,5.6L77,22l7-16.4h5.2L77.9,31.5h-1.7L64.6,5.6H69.8z"/>
		<path class="st1" d="M97.3,5.6v25.5h-4.9V5.6H97.3z"/>
		<path class="st1" d="M116.4,5.3c1.4,0,2.9,0.2,4.3,0.5s2.9,0.9,4.5,1.7v4.6c-1.6-0.9-3-1.6-4.4-2c-1.3-0.4-2.7-0.6-4.2-0.6
			c-1.8,0-3.5,0.4-4.9,1.1c-1.5,0.7-2.6,1.8-3.4,3.2c-0.8,1.4-1.2,2.9-1.2,4.6c0,1.7,0.4,3.2,1.2,4.6c0.8,1.4,1.9,2.4,3.4,3.1
			c1.5,0.7,3.1,1.1,4.9,1.1c1.4,0,2.7-0.2,4-0.6c1.3-0.4,2.9-1.1,4.8-2.2v4.6c-1.7,0.9-3.2,1.5-4.6,1.8c-1.4,0.4-3,0.5-4.9,0.5
			c-2.7,0-5.1-0.5-7.2-1.6s-3.8-2.6-5-4.6c-1.2-2-1.8-4.2-1.8-6.6c0-2.6,0.6-4.9,1.9-6.9c1.2-2,3-3.6,5.2-4.7
			C111.2,5.9,113.7,5.3,116.4,5.3z"/>
		<path class="st1" d="M146.6,5.6v3.9h-11.6v6.7h11.1v3.9h-11.1v7.3h11.8v3.9h-16.8V5.6H146.6z"/>
		<path class="st1" d="M158.9,5.3c2.5,0,4.9,0.6,7.2,1.9v4.4c-2.6-1.6-5-2.4-7-2.4c-1.2,0-2.2,0.2-2.9,0.7c-0.7,0.5-1.1,1.1-1.1,1.9
			c0,1,0.7,1.9,2,2.7c0.4,0.2,1.8,0.9,4.2,2c2.1,1,3.6,2.1,4.5,3.3s1.4,2.7,1.4,4.3c0,2.2-0.8,4-2.4,5.3c-1.6,1.3-3.6,2-6.1,2
			c-1.6,0-3-0.2-4.2-0.5s-2.5-1-4-1.9v-4.9c2.7,2.3,5.3,3.4,7.7,3.4c1.2,0,2.2-0.3,2.9-0.8c0.7-0.5,1.1-1.2,1.1-2.1
			c0-1.2-0.6-2.1-1.9-2.9c-1.1-0.6-2.5-1.3-4.1-2.1c-2-0.9-3.5-2-4.5-3.2c-1-1.2-1.5-2.6-1.5-4.2c0-2.1,0.8-3.9,2.4-5.1
			S156.3,5.3,158.9,5.3z"/>
	</g>
</g>
<rect x="1" y="42.7" class="st2" width="165" height="3.4"/>
</svg>
