<?xml version="1.0" encoding="utf-8"?>
<!-- Generator: Adobe Illustrator 21.0.2, SVG Export Plug-In . SVG Version: 6.00 Build 0)  -->
<svg version="1.1" id="Layer_1" xmlns="http://www.w3.org/2000/svg" xmlns:xlink="http://www.w3.org/1999/xlink" x="0px" y="0px"
	 viewBox="0 0 185 190" style="enable-background:new 0 0 185 190;" xml:space="preserve">
<style type="text/css">
	.st0{fill:none;enable-background:new    ;}
	.st1{fill:#006838;}
	.st2{fill:#37B24A;}
	.st3{fill:none;}
	.st4{fill:#39B54A;}
	.st5{font-family:'GillSans-SemiBoldItalic';}
	.st6{font-size:16.9244px;}
</style>
<path class="st0" d="M0,0"/>
<g>
	<g>
		<path class="st1" d="M59.7,143.2c0-5.8,5.6-9.2,14.5-9.2c9.6,0,14.6,4,14.6,8.6c0,0.9,0,1-0.6,1l-12.1,0.2c-0.6,0-1.2-0.3-1.2-0.6
			v-2c0-0.4-0.5-0.6-1-0.6s-1,0.2-1,0.6v10c0,0.3,0.5,0.5,1,0.5c0.7,0,1-0.3,1-0.6v-3.2c0-0.2,0.3-0.5,0.8-0.4l12.4,0.2
			c0.3,0,0.5,0.1,0.5,0.3c0,7.7-6.5,10.4-14.7,10.4c-9.1,0-14.2-4-14.2-8.6C59.7,149.8,59.7,143.2,59.7,143.2z"/>
		<path class="st1" d="M102.8,134.1c0.4,0,0.7,0.1,0.7,0.4v16.3c0,0.4,0.3,0.7,1.1,0.7c0.8,0,1.1-0.3,1.1-0.7v-16.3
			c0-0.2,0.3-0.3,0.7-0.3h11.1c0.3,0,0.7,0.1,0.7,0.3v17.2c0,3.4-5,6.5-13.6,6.5c-8.7,0-13.6-3.2-13.6-6.5v-17.1
			c0-0.2,0.3-0.4,0.7-0.4L102.8,134.1L102.8,134.1z"/>
		<path class="st1" d="M136.2,134.1c5.8,0,12.6,2.2,12.6,6.1c0,1.7-0.7,4.9-6.9,5.4v0.1c8,1.1,8,3.2,8,6.5c0,0.4,0.3,0.8,1.8,1.1
			c0.3,0.1,0.6,0.3,0.6,0.5c0,4.4-6.5,4.6-8.7,4.6c-4.7,0-7.9-1.6-7.9-4.6v-4.9c0-1-0.9-1.5-1.6-1.5c-0.4,0-0.5,0.2-0.5,0.4v10.3
			c0,0.2-0.3,0.4-0.8,0.4h-11.2c-0.5,0-0.8-0.2-0.8-0.4v-23.2c0-0.2,0.3-0.4,0.7-0.4h14.7V134.1z M133.6,144c0,0.2,0.1,0.3,0.5,0.3
			c1.6,0,1.6-0.9,1.6-2.4c0-0.7-0.9-1.2-1.5-1.2c-0.3,0-0.5,0.1-0.5,0.3v3H133.6z"/>
		<path class="st1" d="M154,134.5c0-0.2,0.4-0.4,0.8-0.4H178c0.4,0,0.7,0.2,0.7,0.4v5.8c0,0.2-0.3,0.3-0.7,0.3h-10.9
			c-0.3,0-0.5,0.1-0.5,0.2v1.8c0,0.1,0.3,0.2,0.5,0.2h5.2c0.3,0,0.5,0.1,0.5,0.2v5.8c0,0.2-0.3,0.3-0.5,0.3H167
			c-0.3,0-0.5,0.1-0.5,0.3v1.9c0,0.1,0.2,0.2,0.4,0.2h11.3c0.5,0,0.7,0.2,0.7,0.3v6c0,0.2-0.3,0.3-0.7,0.3h-23.4
			c-0.4,0-0.7-0.2-0.7-0.4v-23.2H154z"/>
	</g>
	<g>
		<g>
			<path class="st2" d="M179.6,53.7c0-0.7-10.1-3-12.6-2.9c-0.2,0-1.3,1.9-1.7,2.3c-3.9,3.7,1,36.4,0.8,36.1
				C154,76.9,154.6,55,154.6,55c-0.2-0.8-0.7-1.2-1.4-1.2h-17.1c-0.1,0-0.1,0-0.2,0c-0.2-0.1-0.4-0.1-0.6-0.1l-14.9-2.4
				c-0.6,0-2.2,2-2.7,3.6c-0.4,1.7,2.3,18.5-7,31.5c-0.2,0.3,6-32.9,1.3-32.7c-0.7,0-1.4,0-1.9,0l-8.6-2.4c-0.7,0-2.8,2.9-3,3.7
				c0,0,2.9,18-4.9,30.7c-0.2,0.3,1.9-29.8-1.3-31.6c-0.8-0.4-1-0.5-1.8-0.5c0,0-6.9-2.5-11.3-2.2c-1.1,0.8-1.3,1.5-2,2.4
				c5.7,5.2,3.2,45,2.1,60.1c-5.1-55.6-10.2-60.4-10.9-60.4l-16.2-2c-1.6-0.1-4.4-0.5-5.3-0.3c-2.6,0.5-4.9,4.3-4.9,4.7
				c-0.2,0.8-3.2,62.1-6.5,72.2c-1.7,0-3.7,0.2-5.4,0.6c-0.3,0.1-0.6,0.1-0.8-0.1c-0.2-0.1-0.2-0.3-0.3-0.5
				c-1.6-5.4,0-10.8,0.5-16.3c0.4-3.3,0.7-6.6,1-9.9c0.6-7.3,1.1-14.5,1.3-21.8c0.1-4.9,0.1-9.9-0.4-14.8c-0.3-3.2-0.7-6.9-2.3-9.8
				c-1-1.7-1.9-0.8-2.7-0.8L4.8,53.1c-0.9,0-2.9,3-2.9,3.8v97.9c0,0.9,0.7,1.8,1.5,1.8h48.5c0.8,0,3-2,3-2.8l-1.5-23.9
				c0-0.1,0-0.1,0-0.2c0-7-0.3-14.3,0.8-17c1-2.4,9.1-2.5,9.1-2.5c-0.8,14,1.6,19.4,2.7,19.6l25,0.1c0.1,0,0.1,0,0.1-0.1h8.6
				c0.6,0,2.5-2.3,2.5-2.6c-2.4-8.9,3-25,3-24.6c-1.5,18.2,4.7,26.1,4.7,26.1c0.4,0.7,0.9,1.1,1.2,1.1h14.8c0.6,0,2.7-1.8,2.8-2.8
				c0,0-4.1-40.8,5.6-66.5c-1.6,12.2-4.6,42.9,0.7,68c0,0.1,0,1.3,1,1.4h15.4c0.7,0,2.7-1.4,3-3.1c1.7-8.8-4.3-26.6-4.1-26.4
				c7.6,6.7,8.3,28.5,8.3,28.5c0.1,0.6,0.7,1,1.1,1h19c1.2,0,3-2.3,3-3L179.6,53.7z M54.2,99.2c-2.5-8.1,4.3-22.9,4.3-22.9
				c2.2,11.7,4,22.4,4.3,22.5C63.4,99.1,54.5,100.2,54.2,99.2z"/>
		</g>
	</g>
	<g>
		<path class="st1" d="M181.6,51.2c0-0.7-13.5-0.7-14.3-0.5c-4.4,0.7,1,36.4,0.8,36.1c-12-12.4-11.4-34.3-11.4-34.3
			c-0.2-0.8-0.7-1.2-1.4-1.2h-17.1c-0.1,0-0.1,0-0.2,0c-0.2-0.1-0.4-0.1-0.6-0.1H121c-0.6,0-0.7-0.4-1.1,1.2
			c-0.4,1.7,2.3,18.5-7,31.5c-0.2,0.3,6-32.9,1.3-32.7c-0.7,0-1.4,0-1.9,0H102c-0.7,0-1,0.5-1.2,1.3c0,0,2.9,18-4.9,30.7
			c-0.2,0.3,1.9-29.8-1.3-31.6c-0.8-0.4-1-0.5-1.8-0.5c0,0-9.6-0.8-13.3,0.3c5.7,5.2,3.2,45,2.1,60.1c-5.1-55.6-10.2-60.4-10.9-60.4
			H50.9c-6.1-0.6-6.6,1.9-6.7,2.4c-0.4,1.8-4.1,70.8-4.6,71.4c-1.2,0.3-7.8,4-7.7,1.4c0.4-17.4,0.2-63.8-0.3-72
			c-0.1-2-2.1-1.9-2.9-1.9H5.8c-1,0-1.8,1.1-1.8,1.9v97.9c0,0.9,0.7,1.8,1.5,1.8H54c0.8,0,1.5-0.7,1.5-1.5v-25.2c0-0.1,0-0.1,0-0.2
			c0-7-0.3-14.3,0.8-17c1-2.4,9.1-2.5,9.1-2.5c-0.8,14,1.6,19.4,2.7,19.6l25,0.1c0.1,0,0.1,0,0.1-0.1h8.6c0.6,0,1.1-0.9,1.1-1.2
			c-2.4-8.9,4.4-26.4,4.4-26c-1.5,18.2,4.7,26.1,4.7,26.1c0.4,0.6,0.6,1.1,1.2,1.1H128c0.6,0,1.2-0.5,1.3-1.5c0,0-2.6-42.1,7.1-67.8
			c-1.6,12.2-4.6,42.9,0.7,68c0,0.1,0,1.3,1,1.4h15.4c0.7,0,1.2-0.9,1.3-1.3c2.7-8.6-2.6-28.4-2.4-28.1c7.6,6.7,8.3,28.5,8.3,28.5
			c0.1,0.6,0.7,1,1.1,1h19c0.7,0,1.1-0.6,1.1-1.3L181.6,51.2z M56.2,96.7c-2.5-8.1,4.3-22.9,4.3-22.9c2.2,11.7,4,22.4,4.3,22.5
			C65.4,96.6,56.6,97.8,56.2,96.7z"/>
	</g>
	<g>
		<path class="st2" d="M61.9,141.6c0-5.8,5.6-9.2,14.5-9.2c9.6,0,14.6,4,14.6,8.6c0,0.9,0,1-0.6,1l-12.1,0.2c-0.6,0-1.2-0.3-1.2-0.6
			v-2c0-0.5-0.5-0.6-1-0.6s-1,0.2-1,0.6v10c0,0.3,0.5,0.5,1,0.5c0.7,0,1-0.3,1-0.6v-3.2c0-0.2,0.3-0.5,0.8-0.4l12.4,0.2
			c0.3,0,0.5,0.1,0.5,0.3c0,7.7-6.5,10.4-14.7,10.4c-9.1,0-14.2-4-14.2-8.6L61.9,141.6L61.9,141.6z"/>
		<path class="st2" d="M105,132.5c0.4,0,0.7,0.1,0.7,0.4v16.3c0,0.4,0.3,0.7,1.1,0.7c0.8,0,1.1-0.3,1.1-0.7v-16.3
			c0-0.2,0.3-0.3,0.7-0.3h11.1c0.3,0,0.7,0.1,0.7,0.3V150c0,3.4-5,6.5-13.6,6.5c-8.7,0-13.6-3.2-13.6-6.5v-17.1
			c0-0.2,0.3-0.4,0.7-0.4H105z"/>
		<path class="st2" d="M138.4,132.5c5.8,0,12.6,2.2,12.6,6.1c0,1.7-0.7,4.9-6.9,5.3v0.1c8,1.1,8,3.2,8,6.5c0,0.4,0.3,0.8,1.8,1.1
			c0.3,0.1,0.6,0.3,0.6,0.5c0,4.4-6.5,4.6-8.7,4.6c-4.7,0-7.9-1.6-7.9-4.6V147c0-1-0.9-1.5-1.6-1.5c-0.4,0-0.5,0.2-0.5,0.4v10.3
			c0,0.2-0.3,0.4-0.8,0.4h-11.2c-0.5,0-0.8-0.2-0.8-0.4V133c0-0.2,0.3-0.4,0.7-0.4h14.7V132.5z M135.8,142.5c0,0.2,0.1,0.3,0.5,0.3
			c1.6,0,1.6-0.9,1.6-2.4c0-0.7-0.9-1.1-1.5-1.1c-0.3,0-0.5,0.1-0.5,0.3v2.9H135.8z"/>
		<path class="st2" d="M156.2,132.9c0-0.2,0.4-0.4,0.8-0.4h23.2c0.4,0,0.7,0.2,0.7,0.4v5.8c0,0.2-0.3,0.3-0.7,0.3h-10.9
			c-0.3,0-0.5,0.1-0.5,0.2v1.8c0,0.1,0.3,0.2,0.5,0.2h5.2c0.3,0,0.5,0.1,0.5,0.2v5.8c0,0.2-0.3,0.3-0.5,0.3h-5.3
			c-0.3,0-0.5,0.1-0.5,0.3v1.9c0,0.1,0.2,0.2,0.4,0.2h11.3c0.5,0,0.7,0.2,0.7,0.3v6c0,0.2-0.3,0.4-0.7,0.4H157
			c-0.4,0-0.7-0.2-0.7-0.4v-23.3H156.2z"/>
	</g>
	<path class="st1" d="M44,41.3c0,2.6-3.3,4.7-10,6.2c-4.9,1.2-9.6,1.7-14,1.7c-5.2,0-9.7-1.6-13.5-4.9C2.6,41.2,0.7,37.4,0.7,33
		c0-4.6,2-9.1,5.9-13.4c3.3-3.6,7.6-6.8,12.9-9.6c1.1-0.7,2.9-1.7,5.3-3.1c2-1.1,4-1.7,6-1.7c1.7,0,3.5,0.8,5.3,2.4
		c1.9,1.6,2.8,3.1,2.8,4.4c0,1.6-0.6,3-1.7,4.2c-1.1,1.2-2.6,1.9-4.4,1.9c-1.5,0-2.9-0.5-4.2-1.5c0.2-0.7,0.8-1.6,1.9-2.7
		c1.3-1.3,2-2.1,2.3-2.5l-0.4-0.3c-5.4,0-11,2.9-16.9,8.6S6.6,30.6,6.6,35.3c0,2,1.1,4,3.2,5.9s4.4,2.8,6.8,2.9h3.8
		c7.3,0.1,12.3-0.6,14.9-2.1c1-0.6,1.7-1.6,2.1-3.1c0.3-1.1,1-1.7,2-1.7c0.7,0,1.7,0.5,2.9,1.5C43.4,39.9,44,40.7,44,41.3z"/>
	<path class="st1" d="M76.7,27.7c-0.1,0.5-0.4,1.4-1.1,2.6c-0.5,0.8-1,1.8-1.6,2.8c-1.5,3.6-3.6,7-6.5,10.1c-3.7,4-7.3,6-10.7,6
		c-2.3,0-4.4-0.7-6.3-2c-1.9-1.4-2.9-3-2.9-5c0-9.1,0.4-14.7,1.1-16.9c0.2-0.4,0.6-0.9,1.5-1.4c0.8-0.5,1.3-0.9,1.5-1.1h2.1
		c0.8,0.7,1.2,1.7,1.2,2.9c0-0.9,0,0.2,0,3.1c0,1.2,0.1,3,0.2,5.3c0.1,2.4,0.2,4.1,0.2,5.3s-0.1,2.2-0.3,2.9
		c0.3,0.2,0.7,0.3,1.1,0.3h2.2c2,0,4.9-2.8,8.6-8.4c0.7-1,2.9-4.7,6.6-11.1C74.7,23.9,75.7,25.4,76.7,27.7z"/>
	<path class="st1" d="M110.9,25.5c0,1.2-0.8,1.8-2.5,1.8c-0.3,0-0.8,0-1.4-0.1c-0.6,0-1.1-0.1-1.4-0.1c-5.4,0-10.3,2.4-14.6,7.3
		c-4,4.5-6,9.1-6.1,13.8c-0.8,0.7-1.5,1-2.2,1c-0.3,0-1.4-0.4-3.3-1.3c0-2.5,0.3-6,0.8-10.5c0.6-5,1-8.5,1.1-10.5
		c0.6-0.1,1.1-0.2,1.5-0.2c0.6,0,1.6,0.7,2.9,2.2c3.7-2.6,6.3-4.3,7.9-5.1c3.2-1.7,6.3-2.5,9.3-2.5c1.3,0,2.8,0.4,4.7,1.2
		C109.8,23.6,110.9,24.5,110.9,25.5z"/>
	<path class="st1" d="M139.9,2.4v0.5c0,1.2-0.6,2.6-1.8,4.1c-0.9,1.2-1.9,2.4-2.9,3.7c-1.5,3.5-3.8,8.2-6.7,14c-0.1,0.6,0.5,1,1.6,1
		c0.4,0,1-0.1,1.8-0.2s1.4-0.2,1.8-0.2c3.2,0,4.9,1.7,5.1,5.2c-0.8,0.2-3.2,0.5-7.2,1c-3.2,0.4-5.4,0.9-6.6,1.5
		c-0.9,0.5-1.7,1.7-2.4,3.7c-1.1,3.1-1.6,4.9-1.6,5.5s0.3,1.3,0.9,2.4c0.6,1,0.9,1.8,0.9,2.4c0,0.4-0.4,0.9-1.3,1.4s-1.5,0.8-2,0.8
		c-2.2,0-3.3-2.7-3.3-8.2c0-3,0.3-4.9,0.9-6c-0.5-0.2-1-0.3-1.6-0.3c-0.7,0-1.8,0.2-3.2,0.5c-1.4,0.3-2.5,0.5-3.2,0.5
		c-1.1,0-2.2-0.2-3.3-0.6v-3.9c3.9-1.8,7.5-3,11-3.5c1.3-0.1,2.1-0.2,2.5-0.2c1-0.1,1.7-0.4,2.1-0.8c1.3-1.1,3-4,5.1-8.8
		c2.9-6.8,4.8-10.8,5.5-12c2.2-4,4.2-6,6.1-6C139.4,0,139.9,0.8,139.9,2.4z"/>
	<path class="st1" d="M150.3,28.9c0,2.5-0.7,6-2.2,10.6c-1.4,4.6-2.9,7.9-4.4,9.9h-1.6c-0.7-1-1-2.3-1-4c0-3,0.8-6.5,2.4-10.6
		c0.9-2.3,2.3-5.7,4.2-10.3C149.5,24.6,150.3,26.1,150.3,28.9z M156.4,15.3c0,2-0.8,3-2.4,3c-1,0-2.1-0.5-3.4-1.5l-0.1-0.4
		c0-0.8,0.3-1.9,1-3.4s1.4-2.3,2.1-2.5C155.5,11.5,156.4,13.1,156.4,15.3z"/>
	<path class="st1" d="M182.8,40.5c0,2.6-1.7,4.8-5.1,6.5c-3,1.5-6.1,2.3-9.4,2.3c-2,0-4.7-1-7.9-2.9v-5.1c1,0,2.4,0.3,4.3,1
		c1.9,0.6,3.3,1,4.3,1c1.4,0,3.3-0.3,5.8-1c2.9-0.8,4.3-1.6,4.3-2.5c0-0.7-1.7-2-5.1-3.8c-1.2-0.6-3.3-1.1-6.4-1.5
		c-3-0.3-5.1-0.8-6.3-1.3c-2-0.9-2.9-2.4-2.9-4.4c0-2.5,1.7-4.7,5.1-6.5c3-1.6,6.1-2.4,9.2-2.4c4.6,0,6.9,1.6,6.9,4.9
		c0,0.6-0.3,1.3-0.9,2c-0.6,0.7-1.2,1-2,1c-0.2,0-0.7-0.3-1.4-1s-1.4-1-2.1-1c-2.3,0-4.7,0.7-7.3,2.2c1.4,1.1,3.7,2.2,6.9,3.5
		c3.2,1.2,5.5,2.3,6.8,3.3C181.8,36.2,182.8,38.1,182.8,40.5z"/>
	<g>
		<path class="st2" d="M79.5,27.7c-0.1,0.5-0.4,1.4-1.1,2.6c-0.5,0.8-1,1.8-1.6,2.8c-1.5,3.6-3.6,7-6.5,10.1c-3.7,4-7.3,6-10.7,6
			c-2.3,0-4.4-0.7-6.3-2c-1.9-1.4-2.9-3-2.9-5c0-9.1,0.4-14.7,1.1-16.9c0.2-0.4,0.6-0.9,1.5-1.4c0.8-0.5,1.3-0.9,1.5-1.1h2.1
			c0.8,0.7,1.2,1.7,1.2,2.9c0-0.9,0,0.2,0,3.1c0,1.2,0.1,3,0.2,5.3c0.1,2.4,0.2,4.1,0.2,5.3s-0.1,2.2-0.3,2.9
			c0.3,0.2,0.7,0.3,1.1,0.3h2.2c2,0,4.9-2.8,8.6-8.4c0.7-1,2.9-4.7,6.6-11.1C77.5,23.9,78.5,25.4,79.5,27.7z"/>
	</g>
	<g>
		<path class="st2" d="M142.1,2.4v0.5c0,1.2-0.6,2.6-1.8,4.1c-0.9,1.2-1.9,2.4-2.9,3.7c-1.5,3.5-3.8,8.2-6.7,14
			c-0.1,0.6,0.5,1,1.6,1c0.4,0,1-0.1,1.8-0.2s1.4-0.2,1.8-0.2c3.2,0,4.9,1.7,5.1,5.2c-0.8,0.2-3.2,0.5-7.2,1
			c-3.2,0.4-5.4,0.9-6.6,1.5c-0.9,0.5-1.7,1.7-2.4,3.7c-1.1,3.1-1.6,4.9-1.6,5.5s0.3,1.3,0.9,2.4c0.6,1,0.9,1.8,0.9,2.4
			c0,0.4-0.4,0.9-1.3,1.4s-1.5,0.8-2,0.8c-2.2,0-3.3-2.7-3.3-8.2c0-3,0.3-4.9,0.9-6c-0.5-0.2-1-0.3-1.6-0.3c-0.7,0-1.8,0.2-3.2,0.5
			c-1.4,0.3-2.5,0.5-3.2,0.5c-1.1,0-2.2-0.2-3.3-0.6v-3.9c3.9-1.8,7.5-3,11-3.5c1.3-0.1,2.1-0.2,2.4-0.2c1-0.1,1.7-0.4,2.1-0.8
			c1.3-1.1,3-4,5.1-8.8c2.9-6.8,4.8-10.8,5.5-12c2.2-4,4.2-6,6.1-6C141.5,0,142.1,0.8,142.1,2.4z"/>
	</g>
	<g>
		<path class="st2" d="M152.5,28.9c0,2.5-0.7,6-2.2,10.6c-1.4,4.6-2.9,7.9-4.4,9.9h-1.6c-0.7-1-1-2.3-1-4c0-3,0.8-6.5,2.4-10.6
			c0.9-2.3,2.3-5.7,4.2-10.3C151.6,24.6,152.5,26.1,152.5,28.9z"/>
		<path class="st2" d="M158.6,15.3c0,2-0.8,3-2.4,3c-1,0-2.1-0.5-3.4-1.5l-0.1-0.4c0-0.8,0.3-1.9,1-3.4s1.4-2.3,2.1-2.5
			C157.6,11.5,158.6,13.1,158.6,15.3z"/>
	</g>
	<g>
		<g>
			<path class="st2" d="M185,40.5c0,2.6-1.7,4.8-5.1,6.5c-3,1.5-6.1,2.3-9.4,2.3c-2,0-4.7-1-7.9-2.9v-5.1c1,0,2.4,0.3,4.3,1
				c1.9,0.6,3.3,1,4.3,1c1.4,0,3.3-0.3,5.8-1c2.9-0.8,4.3-1.6,4.3-2.5c0-0.7-1.7-2-5.1-3.8c-1.2-0.6-3.3-1.1-6.4-1.5
				c-3-0.3-5.1-0.8-6.3-1.3c-2-0.9-2.9-2.4-2.9-4.4c0-2.5,1.7-4.7,5.1-6.5c1.7-0.9,3.6-1.6,5.5-2s3.8-0.3,5.7,0.1
				c1,0.2,1.9,0.6,2.8,1c0.7,0.3,1.7,0.7,2,1.6c0.4,1.3,0.2,2.8-0.7,3.9c-0.6,0.7-1.2,1-2,1c-0.2,0-0.7-0.3-1.4-1s-1.4-1-2.1-1
				c-2.3,0-4.7,0.7-7.3,2.2c1.4,1.1,3.7,2.2,6.9,3.5c3.2,1.2,5.5,2.3,6.8,3.3C183.9,36.2,185,38.1,185,40.5z"/>
		</g>
		<path class="st2" d="M174.4,17.8c-0.2-1-1.1-1.9-1.9-2.4c0.8,0,1.8,1.1,2.3,1.6c0.7,0.7,0.9,1.5,0.9,2.5c0-1.5,1.1-4,2.2-5
			c1.2-1.1,2.8-1.6,4.4-1.6c-1.4,0.5-3,2.2-3.7,3.4c-0.6,1.1-1,2.4-1.4,3.6c1.8-0.6,3.8-1.6,5.7-0.6c-0.9,0.1-1.9,0.2-2.7,0.6
			c-0.5,0.2-0.8,0.7-1.2,0.9c1-0.1,2-0.2,3-0.1c-0.2,0.3-0.7,0.3-1,0.6c-0.2,0.1-0.4,0.5-0.6,0.7c-0.6,1-0.5,0.9-1.9,0.7
			c-1-0.2-2.1-0.1-3.1-0.2s-1.8-0.7-2.7-0.9c-0.5-0.1-1.1,0-1.6-0.3c0.9-0.4,2.1-0.2,2.8-0.8C174.5,19.8,174.5,18.7,174.4,17.8z"/>
	</g>
	<g>
		<path class="st2" d="M46.4,41.3c0,2.6-3.3,4.7-10,6.2c-4.9,1.2-9.6,1.7-14,1.7c-5.2,0-9.7-1.6-13.5-4.9C5,41.2,3.1,37.4,3.1,33
			c0-4.6,2-9.1,5.9-13.4c3.3-3.6,7.6-6.8,12.9-9.6c1.1-0.7,2.9-1.7,5.3-3.1c2-1.1,4-1.7,6-1.7c1.7,0,3.5,0.8,5.3,2.4
			c1.9,1.6,2.8,3.1,2.8,4.4c0,1.6-0.6,3-1.7,4.2c-1.1,1.2-2.6,1.9-4.4,1.9c-1.5,0-2.9-0.5-4.2-1.5c0.2-0.7,0.8-1.6,1.9-2.7
			c1.2-1.3,2-2.1,2.3-2.5l-0.4-0.3c-5.4,0-11,2.9-16.9,8.6C12,25.5,9,30.7,9,35.4c0,2,1.1,4,3.2,5.9s4.4,2.8,6.8,2.9h3.8
			c7.3,0.1,12.3-0.6,14.9-2.1c1-0.6,1.7-1.6,2.1-3.1c0.3-1.1,1-1.7,2-1.7c0.7,0,1.7,0.5,2.9,1.5C45.8,39.9,46.4,40.7,46.4,41.3z"/>
		<path class="st2" d="M16.9,9.2c-0.9-0.5-2.1-0.4-3-0.1c0.5-0.6,2-0.7,2.7-0.7c1,0,1.8,0.3,2.5,0.9c-1.2-1-2.3-3.5-2.4-5
			c-0.1-1.6,0.6-3.1,1.6-4.4C17.8,1.3,18,3.6,18.5,5c0.4,1.2,1.2,2.4,1.8,3.4c0.7-1.8,1.3-4,3.3-4.7c-0.5,0.8-1.1,1.6-1.3,2.5
			c-0.1,0.5,0,1-0.1,1.5c0.6-0.8,1.2-1.6,1.9-2.4c0.1,0.3-0.2,0.8-0.2,1.1c0,0.2,0.1,0.6,0.2,0.9c0.4,1.1,0.4,1-0.7,1.9
			c-0.8,0.6-1.4,1.5-2.2,2.2c-0.7,0.6-1.7,0.9-2.5,1.5c-0.5,0.3-0.7,0.8-1.3,1c0.3-0.9,1.2-1.7,1.2-2.7C18.6,10.4,17.7,9.6,16.9,9.2
			z"/>
	</g>
	<g>
		<g>
			<path class="st2" d="M113.7,25.5c0,1.2-0.8,1.8-2.5,1.8c-0.3,0-0.8,0-1.4-0.1c-0.6,0-1.1-0.1-1.4-0.1c-5.4,0-10.3,2.4-14.6,7.3
				c-4,4.5-6,9.1-6.1,13.8c-0.8,0.7-1.5,1-2.2,1c-0.3,0-1.4-0.4-3.3-1.3c0-2.5,0.3-6,0.8-10.5c0.6-5,1-8.5,1.1-10.5
				c0.6-0.1,1.1-0.2,1.6-0.2c0.6,0,1.5,0.7,2.9,2.2c3.7-2.6,6.3-4.3,7.9-5.1c3.2-1.7,6.3-2.5,9.3-2.5c1.3,0,2.8,0.4,4.7,1.2
				C112.6,23.6,113.7,24.5,113.7,25.5z"/>
		</g>
		<path class="st2" d="M96.5,20.4c-0.6-0.7-1.9-1.1-2.8-1.1c0.7-0.4,2.1,0.1,2.8,0.3c0.9,0.3,1.6,0.8,2,1.7c-0.8-1.3-1-4-0.6-5.5
			c0.5-1.6,1.6-2.8,3-3.6c-1,1.1-1.5,3.4-1.6,4.8c0,1.3,0.3,2.6,0.6,3.9c1.3-1.4,2.5-3.3,4.7-3.3c-0.8,0.5-1.5,1.1-2,1.9
			c-0.3,0.5-0.3,1-0.6,1.4c0.8-0.6,1.6-1.1,2.6-1.6c0,0.4-0.5,0.6-0.6,1c-0.1,0.2-0.1,0.6-0.1,0.9c0,1.2,0,1.1-1.3,1.5
			c-1,0.3-1.8,0.9-2.8,1.3c-0.9,0.4-1.9,0.3-2.8,0.5c-0.5,0.1-1,0.5-1.6,0.5c0.6-0.8,1.7-1.2,2-2.1C97.6,22.1,97,21.1,96.5,20.4z"/>
	</g>
</g>
<rect x="5.5" y="169.4" class="st3" width="174.8" height="20.2"/>
<text transform="matrix(1 0 0 1 11.832 180.9207)" class="st4 st5 st6">37 YEARS OF SERVICE</text>
</svg>
