<?xml version="1.0" encoding="utf-8"?>
<!-- Generator: Adobe Illustrator 21.0.2, SVG Export Plug-In . SVG Version: 6.00 Build 0)  -->
<svg version="1.1" id="Layer_1" xmlns="http://www.w3.org/2000/svg" xmlns:xlink="http://www.w3.org/1999/xlink" x="0px" y="0px"
	 viewBox="0 0 84 18" style="enable-background:new 0 0 84 18;" xml:space="preserve">
<style type="text/css">
	.st0{fill:none;enable-background:new    ;}
	.st1{fill:#575251;}
</style>
<path class="st0" d="z"/>
<g>
	<g>
		<path class="st1" d="M6.7,3.2l4.8,10.9H9.3l-1.1-2.7H3.3l-1.1,2.7H0L4.5,3.2H6.7z M3.9,9.9h3.5L5.6,5.5L3.9,9.9z"/>
		<path class="st1" d="M16.8,3.2c1,0,1.8,0.3,2.4,0.8c0.6,0.5,0.9,1.2,0.9,2c0,0.5-0.1,0.9-0.4,1.3c-0.3,0.4-0.6,0.7-1.1,0.9v0.1
			c0.8,0.2,1.4,0.5,1.8,1c0.4,0.5,0.6,1.1,0.6,1.8c0,0.6-0.2,1.1-0.5,1.6c-0.3,0.5-0.7,0.8-1.3,1.1c-0.5,0.2-1.2,0.4-1.9,0.4h-4.6
			V3.2H16.8z M16.2,7.7c0.6,0,1-0.1,1.3-0.4C17.9,7.1,18,6.7,18,6.2c0-0.4-0.1-0.8-0.4-1c-0.3-0.2-0.7-0.4-1.2-0.4h-1.5v2.9H16.2z
			 M16.7,12.5c0.7,0,1.3-0.1,1.6-0.4c0.4-0.3,0.5-0.7,0.5-1.2c0-0.5-0.2-0.8-0.5-1.1c-0.4-0.3-0.8-0.4-1.5-0.4h-2v3.1H16.7z"/>
		<path class="st1" d="M28.4,3.1c1.1,0,2.1,0.2,3.1,0.7c0.9,0.5,1.6,1.1,2.2,2c0.5,0.9,0.8,1.8,0.8,2.9c0,1-0.3,2-0.8,2.8
			c-0.5,0.9-1.2,1.6-2.2,2c-0.9,0.5-1.9,0.7-3.1,0.7c-1.1,0-2.2-0.2-3.1-0.7c-0.9-0.5-1.6-1.2-2.2-2c-0.5-0.9-0.8-1.8-0.8-2.8
			c0-1,0.3-1.9,0.8-2.8c0.5-0.9,1.2-1.6,2.1-2.1C26.2,3.3,27.2,3.1,28.4,3.1z M24.6,8.7c0,0.7,0.2,1.4,0.5,2s0.8,1,1.4,1.3
			c0.6,0.3,1.2,0.5,2,0.5c1.1,0,2-0.4,2.8-1.1c0.7-0.7,1.1-1.6,1.1-2.7c0-0.7-0.2-1.4-0.5-2c-0.3-0.6-0.8-1-1.4-1.3
			c-0.6-0.3-1.3-0.5-2-0.5c-0.7,0-1.4,0.2-2,0.5c-0.6,0.3-1,0.8-1.4,1.3C24.7,7.3,24.6,7.9,24.6,8.7z"/>
		<path class="st1" d="M38.4,3.2v6.4c0,0.7,0.1,1.2,0.3,1.6c0.2,0.4,0.5,0.7,1,1s1,0.4,1.5,0.4c0.6,0,1.2-0.1,1.6-0.4
			c0.4-0.2,0.8-0.6,1-1c0.2-0.4,0.3-1,0.3-1.7V3.2h2.1v6.5c0,1.5-0.4,2.6-1.3,3.4s-2.1,1.2-3.7,1.2c-1,0-1.9-0.2-2.6-0.5
			s-1.3-0.9-1.7-1.6s-0.6-1.5-0.6-2.4V3.2H38.4z"/>
		<path class="st1" d="M57.7,3.2v1.6h-3.9v9.3h-2.1V4.9h-3.9V3.2H57.7z"/>
		<path class="st1" d="M65.8,3.2v6.4c0,0.7,0.1,1.2,0.3,1.6c0.2,0.4,0.5,0.7,1,1s1,0.4,1.5,0.4c0.6,0,1.2-0.1,1.6-0.4
			c0.5-0.2,0.8-0.6,1-1c0.2-0.4,0.3-1,0.3-1.7V3.2h2.1v6.5c0,1.5-0.4,2.6-1.3,3.4s-2.1,1.2-3.7,1.2c-1,0-1.9-0.2-2.6-0.5
			s-1.3-0.9-1.7-1.6s-0.6-1.5-0.6-2.4V3.2H65.8z"/>
		<path class="st1" d="M79.1,3.1c1.1,0,2.1,0.3,3.1,0.8v1.9c-1.1-0.7-2.1-1-3-1c-0.5,0-0.9,0.1-1.2,0.3c-0.3,0.2-0.4,0.5-0.4,0.8
			c0,0.4,0.3,0.8,0.8,1.1c0.2,0.1,0.8,0.4,1.8,0.9C81,8.3,81.6,8.8,82,9.3s0.6,1.1,0.6,1.9c0,0.9-0.3,1.7-1,2.3
			c-0.7,0.6-1.5,0.9-2.6,0.9c-0.7,0-1.3-0.1-1.8-0.2c-0.5-0.2-1.1-0.4-1.7-0.8v-2.1c1.2,1,2.3,1.5,3.3,1.5c0.5,0,0.9-0.1,1.2-0.3
			c0.3-0.2,0.5-0.5,0.5-0.9c0-0.5-0.3-0.9-0.8-1.2c-0.5-0.2-1-0.5-1.8-0.9c-0.9-0.4-1.5-0.8-1.9-1.4c-0.4-0.5-0.6-1.1-0.6-1.8
			c0-0.9,0.3-1.6,1-2.2C77.1,3.3,78,3.1,79.1,3.1z"/>
	</g>
</g>
</svg>
