<?xml version="1.0" encoding="utf-8"?>
<!-- Generator: Adobe Illustrator 21.0.2, SVG Export Plug-In . SVG Version: 6.00 Build 0)  -->
<svg version="1.1" id="Layer_1" xmlns="http://www.w3.org/2000/svg" xmlns:xlink="http://www.w3.org/1999/xlink" x="0px" y="0px"
	 viewBox="0 0 35 18" style="enable-background:new 0 0 35 18;" xml:space="preserve">
<style type="text/css">
	.st0{fill:none;enable-background:new    ;}
	.st1{fill:#575251;}
</style>
<path class="st0" d="z"/>
<g>
	<g>
		<path class="st1" d="M8.9,3v1.6H4.3v2.8h4.5v1.7H4.3V14H2.2V3H8.9z"/>
		<path class="st1" d="M15.9,3L20.7,14h-2.2l-1.1-2.7h-4.9L11.4,14H9.2L13.7,3H15.9z M13.1,9.7h3.5l-1.8-4.3L13.1,9.7z"/>
		<path class="st1" d="M27.2,2.9c1.1,0,2.1,0.2,3,0.7c0.9,0.5,1.6,1.2,2.1,2c0.5,0.9,0.8,1.8,0.8,2.8c0,0.8-0.2,1.6-0.5,2.4
			s-0.8,1.4-1.5,1.9s-1.4,0.9-2.2,1.1l0,0.1c1.2,0.6,2.2,0.8,3.1,0.8c0.3,0,0.7,0,0.9-0.1l0.1,0.1l-1.8,1.6
			c-1.8-0.1-3.7-0.9-5.7-2.4c-0.9-0.2-1.6-0.5-2.3-1S22,11.7,21.6,11S21,9.4,21,8.5c0-1,0.3-2,0.8-2.9s1.2-1.6,2.2-2.1
			S26,2.9,27.2,2.9z M23.2,8.5c0,1.1,0.4,2,1.1,2.7s1.7,1,2.8,1c0.7,0,1.4-0.2,2-0.5s1-0.8,1.4-1.3s0.5-1.2,0.5-1.9
			c0-0.7-0.2-1.4-0.5-2c-0.3-0.6-0.8-1-1.4-1.4c-0.6-0.3-1.2-0.5-2-0.5c-1.2,0-2.1,0.3-2.8,1S23.2,7.4,23.2,8.5z"/>
	</g>
</g>
</svg>
