<?xml version="1.0" encoding="utf-8"?>
<!-- Generator: Adobe Illustrator 21.0.2, SVG Export Plug-In . SVG Version: 6.00 Build 0)  -->
<svg version="1.1" id="Layer_1" xmlns="http://www.w3.org/2000/svg" xmlns:xlink="http://www.w3.org/1999/xlink" x="0px" y="0px"
	 viewBox="0 0 107 18" style="enable-background:new 0 0 107 18;" xml:space="preserve">
<style type="text/css">
	.st0{fill:none;enable-background:new    ;}
	.st1{fill:#575251;}
</style>
<path class="st0" d="z"/>
<g>
	<g>
		<path class="st1" d="M7.5,3.4c0.6,0,1.2,0.1,1.8,0.2s1.2,0.4,1.9,0.7v2c-0.7-0.4-1.3-0.7-1.9-0.8S8.2,5.2,7.6,5.2
			c-0.8,0-1.5,0.2-2.1,0.5S4.3,6.5,4,7.1S3.5,8.3,3.5,9c0,0.7,0.2,1.4,0.5,2s0.8,1,1.5,1.3s1.3,0.5,2.1,0.5c0.6,0,1.2-0.1,1.7-0.3
			s1.2-0.5,2.1-0.9v2c-0.7,0.4-1.4,0.6-2,0.8s-1.3,0.2-2.1,0.2c-1.2,0-2.2-0.2-3.1-0.7s-1.6-1.1-2.1-2s-0.8-1.8-0.8-2.8
			c0-1.1,0.3-2.1,0.8-3s1.3-1.5,2.2-2C5.2,3.6,6.3,3.4,7.5,3.4z"/>
		<path class="st1" d="M18.8,3.4c1.1,0,2.1,0.2,3.1,0.7c0.9,0.5,1.6,1.1,2.2,2C24.5,7,24.8,8,24.8,9c0,1-0.3,2-0.8,2.8
			s-1.2,1.5-2.2,2s-1.9,0.7-3.1,0.7c-1.1,0-2.2-0.2-3.1-0.7s-1.6-1.2-2.2-2S12.7,10,12.7,9c0-1,0.3-1.9,0.8-2.8s1.2-1.6,2.1-2.1
			C16.6,3.6,17.6,3.4,18.8,3.4z M14.9,9c0,0.7,0.2,1.4,0.5,2s0.8,1,1.4,1.3s1.2,0.5,2,0.5c1.1,0,2-0.4,2.8-1.1s1.1-1.6,1.1-2.7
			c0-0.7-0.2-1.4-0.5-2c-0.3-0.6-0.8-1-1.4-1.3c-0.6-0.3-1.3-0.5-2-0.5s-1.4,0.2-2,0.5s-1,0.8-1.4,1.3S14.9,8.3,14.9,9z"/>
		<path class="st1" d="M28.6,3.5l6.5,7.6V3.5h2.1v10.9h-1.8l-6.5-7.7v7.7h-2.1V3.5H28.6z"/>
		<path class="st1" d="M48.6,3.5v1.6h-3.9v9.3h-2.1V5.2h-3.9V3.5H48.6z"/>
		<path class="st1" d="M54.5,3.5l4.8,10.9h-2.2l-1.1-2.7h-4.9L50,14.5h-2.2l4.5-10.9H54.5z M51.7,10.2h3.5l-1.8-4.3L51.7,10.2z"/>
		<path class="st1" d="M65.8,3.4c0.6,0,1.2,0.1,1.8,0.2s1.2,0.4,1.9,0.7v2c-0.7-0.4-1.3-0.7-1.9-0.8s-1.2-0.3-1.8-0.3
			c-0.8,0-1.5,0.2-2.1,0.5s-1.1,0.8-1.5,1.4S61.8,8.3,61.8,9c0,0.7,0.2,1.4,0.5,2s0.8,1,1.5,1.3s1.3,0.5,2.1,0.5
			c0.6,0,1.2-0.1,1.7-0.3s1.2-0.5,2.1-0.9v2c-0.7,0.4-1.4,0.6-2,0.8s-1.3,0.2-2.1,0.2c-1.2,0-2.2-0.2-3.1-0.7s-1.6-1.1-2.1-2
			s-0.8-1.8-0.8-2.8c0-1.1,0.3-2.1,0.8-3s1.3-1.5,2.2-2C63.6,3.6,64.6,3.4,65.8,3.4z"/>
		<path class="st1" d="M80.7,3.5v1.6h-3.9v9.3h-2.1V5.2h-3.9V3.5H80.7z"/>
		<path class="st1" d="M88.8,3.5v6.4c0,0.7,0.1,1.2,0.3,1.6s0.5,0.7,1,1s1,0.4,1.5,0.4c0.6,0,1.2-0.1,1.6-0.4s0.8-0.6,1-1
			s0.3-1,0.3-1.7V3.5h2.1V10c0,1.5-0.4,2.6-1.3,3.4s-2.1,1.2-3.7,1.2c-1,0-1.9-0.2-2.6-0.5s-1.3-0.9-1.7-1.6s-0.6-1.5-0.6-2.4V3.5
			H88.8z"/>
		<path class="st1" d="M102.2,3.4c1.1,0,2.1,0.3,3.1,0.8v1.9c-1.1-0.7-2.1-1-3-1c-0.5,0-0.9,0.1-1.2,0.3c-0.3,0.2-0.4,0.5-0.4,0.8
			c0,0.4,0.3,0.8,0.8,1.1c0.2,0.1,0.8,0.4,1.8,0.9c0.9,0.4,1.5,0.9,1.9,1.4s0.6,1.1,0.6,1.9c0,0.9-0.3,1.7-1,2.3s-1.5,0.9-2.6,0.9
			c-0.7,0-1.3-0.1-1.8-0.2s-1.1-0.4-1.7-0.8v-2.1c1.2,1,2.3,1.5,3.3,1.5c0.5,0,0.9-0.1,1.2-0.3s0.5-0.5,0.5-0.9
			c0-0.5-0.3-0.9-0.8-1.2c-0.5-0.2-1-0.5-1.8-0.9c-0.9-0.4-1.5-0.8-1.9-1.4s-0.6-1.1-0.6-1.8c0-0.9,0.3-1.6,1-2.2
			C100.1,3.7,101,3.4,102.2,3.4z"/>
	</g>
</g>
</svg>
