<?xml version="1.0" encoding="utf-8"?>
<!-- Generator: Adobe Illustrator 21.0.2, SVG Export Plug-In . SVG Version: 6.00 Build 0)  -->
<svg version="1.1" id="Layer_1" xmlns="http://www.w3.org/2000/svg" xmlns:xlink="http://www.w3.org/1999/xlink" x="0px" y="0px"
	 viewBox="0 0 46 18" style="enable-background:new 0 0 46 18;" xml:space="preserve">
<style type="text/css">
	.st0{fill:none;enable-background:new    ;}
	.st1{fill:#575251;}
</style>
<path class="st0" d="z"/>
<g>
	<g>
		<path class="st1" d="M6.7,3.5c1,0,1.8,0.3,2.4,0.8s0.9,1.2,0.9,2c0,0.5-0.1,0.9-0.4,1.3S9.1,8.3,8.6,8.5v0.1
			c0.8,0.2,1.4,0.5,1.8,1s0.6,1.1,0.6,1.8c0,0.6-0.2,1.1-0.5,1.6s-0.7,0.8-1.3,1.1S8,14.5,7.3,14.5H2.7V3.5H6.7z M6.2,8.1
			c0.6,0,1-0.1,1.3-0.4S8,7,8,6.6c0-0.4-0.1-0.8-0.4-1S6.8,5.2,6.4,5.2H4.8v2.9H6.2z M6.7,12.8c0.7,0,1.3-0.1,1.6-0.4
			s0.5-0.7,0.5-1.2c0-0.5-0.2-0.8-0.5-1.1S7.4,9.7,6.8,9.7h-2v3.1H6.7z"/>
		<path class="st1" d="M14.9,3.5v9.3h5.3v1.6h-7.4V3.5H14.9z"/>
		<path class="st1" d="M26.9,3.4c1.1,0,2.1,0.2,3.1,0.7s1.6,1.1,2.2,2S32.9,8,32.9,9c0,1-0.3,2-0.8,2.8s-1.2,1.5-2.2,2
			s-1.9,0.7-3.1,0.7c-1.1,0-2.2-0.2-3.1-0.7s-1.6-1.2-2.2-2S20.9,10,20.9,9c0-1,0.3-1.9,0.8-2.8s1.2-1.6,2.1-2.1S25.7,3.4,26.9,3.4z
			 M23.1,9c0,0.7,0.2,1.4,0.5,2s0.8,1,1.4,1.3s1.2,0.5,2,0.5c1.1,0,2-0.4,2.8-1.1s1.1-1.6,1.1-2.7c0-0.7-0.2-1.4-0.5-2
			s-0.8-1-1.4-1.3s-1.3-0.5-2-0.5s-1.4,0.2-2,0.5s-1,0.8-1.4,1.3S23.1,8.3,23.1,9z"/>
		<path class="st1" d="M40.6,3.4c1.3,0,2.7,0.3,4,0.9v1.9c-1.3-0.7-2.6-1-3.9-1c-0.8,0-1.5,0.2-2.1,0.5s-1.1,0.8-1.4,1.4
			s-0.5,1.3-0.5,2c0,1.1,0.4,2,1.1,2.7s1.7,1,2.9,1c0.3,0,0.7,0,1-0.1s0.7-0.2,1.1-0.3v-1.8h-1.8V8.9h3.9v4.5
			c-0.5,0.4-1.2,0.7-1.9,0.9s-1.5,0.3-2.3,0.3c-1.2,0-2.2-0.2-3.1-0.7s-1.7-1.1-2.2-2s-0.8-1.8-0.8-2.9c0-1.1,0.3-2,0.8-2.9
			s1.3-1.5,2.2-2S39.5,3.4,40.6,3.4z"/>
	</g>
</g>
</svg>
