<?xml version="1.0" encoding="utf-8"?>
<!-- Generator: Adobe Illustrator 21.0.2, SVG Export Plug-In . SVG Version: 6.00 Build 0)  -->
<svg version="1.1" id="Layer_1" xmlns="http://www.w3.org/2000/svg" xmlns:xlink="http://www.w3.org/1999/xlink" x="0px" y="0px"
	 viewBox="0 0 169 32" style="enable-background:new 0 0 169 32;" xml:space="preserve">
<style type="text/css">
	.st0{fill:none;enable-background:new    ;}
	.st1{fill:#575251;}
	.st2{fill:#FFFFFF;}
</style>
<path class="st0" d="z"/>
<g>
	<g>
		<path class="st1" d="M1.8,12.3c0-1.6,0.6-2.9,1.8-4c1.2-1.1,2.6-1.6,4.3-1.6c1.7,0,3.1,0.5,4.3,1.6s1.7,2.4,1.7,4
			c0,1.8-0.8,3.3-2.5,4.5c1.9,1.1,2.8,2.7,2.8,4.8c0,1.7-0.6,3-1.8,4.1c-1.2,1.1-2.7,1.6-4.6,1.6c-1.8,0-3.4-0.6-4.6-1.7
			c-1.2-1.1-1.9-2.5-1.9-4.1c0-2,1-3.6,2.9-4.7c-0.9-0.7-1.5-1.4-1.8-2.1C2,14,1.8,13.2,1.8,12.3z M11.3,21.6v-0.3
			c0-0.9-0.3-1.7-1-2.3c-0.7-0.6-1.5-0.9-2.6-0.9c-1,0-1.9,0.3-2.5,0.9c-0.6,0.6-1,1.3-1,2.3s0.3,1.7,1,2.3c0.7,0.6,1.5,0.9,2.6,0.9
			c1,0,1.8-0.3,2.5-0.8C11,23.2,11.3,22.5,11.3,21.6z M11,12.4c0-0.9-0.3-1.6-0.9-2.2S8.8,9.4,7.8,9.4c-0.9,0-1.7,0.3-2.3,0.8
			s-0.9,1.3-0.9,2.1c0,0.8,0.3,1.6,0.9,2.1c0.6,0.6,1.4,0.9,2.3,0.9c0.9,0,1.6-0.3,2.2-0.9C10.7,13.9,11,13.2,11,12.4z"/>
		<path class="st1" d="M22.6,6.6c1.8,0,3.4,1,4.6,2.9s1.8,4.4,1.8,7.4c0,3.1-0.6,5.5-1.8,7.5c-1.2,1.9-2.8,2.9-4.7,2.9
			c-2,0-3.5-0.9-4.7-2.8C16.6,22.5,16,20.1,16,17c0-3.1,0.6-5.5,1.8-7.5S20.7,6.6,22.6,6.6z M22.7,9.4h-0.1c-1.1,0-2,0.7-2.6,2
			c-0.6,1.4-1,3.2-1,5.5c0,2.4,0.3,4.3,1,5.6c0.6,1.4,1.5,2,2.6,2c1.1,0,2-0.7,2.6-2c0.6-1.4,1-3.2,1-5.5c0-2.3-0.3-4.2-0.9-5.6
			C24.5,10.1,23.7,9.4,22.7,9.4z"/>
		<path class="st1" d="M35.9,6.9h2.9V27h-2.9V6.9z"/>
		<path class="st1" d="M45.8,19.1H53v2.8h-7.2V19.1z"/>
		<path class="st1" d="M60.3,24.2h7.7V27H55.2v-0.2l1.2-1.4c1.9-2.3,3.4-4.3,4.5-6c1.1-1.6,1.8-2.9,2.2-3.7c0.3-0.8,0.5-1.7,0.5-2.5
			c0-1.1-0.3-2-1-2.7c-0.6-0.7-1.5-1-2.6-1c-0.8,0-1.6,0.2-2.4,0.7s-1.5,1.1-2.1,2V8.6c1.6-1.3,3.2-1.9,4.8-1.9
			c1.8,0,3.2,0.6,4.3,1.8c1.1,1.2,1.7,2.7,1.7,4.5c0,0.8-0.1,1.7-0.4,2.6c-0.3,0.9-0.8,2-1.5,3.2c-0.7,1.2-1.9,2.8-3.7,4.9
			L60.3,24.2z"/>
		<path class="st1" d="M71.9,6.9h8.9v2.6h-6.3v5.1c0.2,0,0.4,0,0.6,0c2,0,3.6,0.6,4.8,1.8c1.3,1.2,1.9,2.7,1.9,4.5
			c0,1.9-0.6,3.4-1.9,4.6s-2.9,1.8-4.8,1.8c-1.6,0-3.2-0.4-4.8-1.2v-3c1.5,0.9,2.9,1.4,4.3,1.4c1.2,0,2.2-0.4,3-1.1
			c0.8-0.7,1.2-1.6,1.2-2.6c0-1.1-0.4-2-1.3-2.7s-2-1.1-3.3-1.1c-1.1,0-1.9,0.1-2.3,0.3V6.9z"/>
		<path class="st1" d="M94.2,6.6h1.2v11.3h2.2v2.5h-2.2V27h-2.8v-6.6H84v-1.2L94.2,6.6z M92.6,17.9v-5.8l-4.7,5.8H92.6z"/>
		<path class="st1" d="M99.7,19.1h7.2v2.8h-7.2V19.1z"/>
		<path class="st1" d="M115.5,6.6c1.8,0,3.4,1,4.6,2.9s1.8,4.4,1.8,7.4c0,3.1-0.6,5.5-1.8,7.5c-1.2,1.9-2.8,2.9-4.7,2.9
			c-2,0-3.5-0.9-4.7-2.8c-1.2-1.9-1.8-4.4-1.8-7.5c0-3.1,0.6-5.5,1.8-7.5S113.6,6.6,115.5,6.6z M115.5,9.4h-0.1c-1.1,0-2,0.7-2.6,2
			c-0.6,1.4-1,3.2-1,5.5c0,2.4,0.3,4.3,1,5.6c0.6,1.4,1.5,2,2.6,2c1.1,0,2-0.7,2.6-2c0.6-1.4,1-3.2,1-5.5c0-2.3-0.3-4.2-0.9-5.6
			C117.4,10.1,116.6,9.4,115.5,9.4z"/>
		<path class="st1" d="M133.3,6.6h1.2v11.3h2.2v2.5h-2.2V27h-2.8v-6.6h-8.5v-1.2L133.3,6.6z M131.6,17.9v-5.8l-4.7,5.8H131.6z"/>
		<path class="st1" d="M145,6.6c1.8,0,3.4,1,4.6,2.9s1.8,4.4,1.8,7.4c0,3.1-0.6,5.5-1.8,7.5c-1.2,1.9-2.8,2.9-4.7,2.9
			c-2,0-3.5-0.9-4.7-2.8c-1.2-1.9-1.8-4.4-1.8-7.5c0-3.1,0.6-5.5,1.8-7.5S143.1,6.6,145,6.6z M145.1,9.4h-0.1c-1.1,0-2,0.7-2.6,2
			c-0.6,1.4-1,3.2-1,5.5c0,2.4,0.3,4.3,1,5.6c0.6,1.4,1.5,2,2.6,2c1.1,0,2-0.7,2.6-2c0.6-1.4,1-3.2,1-5.5c0-2.3-0.3-4.2-0.9-5.6
			C146.9,10.1,146.1,9.4,145.1,9.4z"/>
		<path class="st1" d="M155.3,6.9h8.9v2.6h-6.3v5.1c0.2,0,0.4,0,0.6,0c2,0,3.6,0.6,4.8,1.8c1.3,1.2,1.9,2.7,1.9,4.5
			c0,1.9-0.6,3.4-1.9,4.6s-2.9,1.8-4.8,1.8c-1.6,0-3.2-0.4-4.8-1.2v-3c1.5,0.9,2.9,1.4,4.3,1.4c1.2,0,2.2-0.4,3-1.1
			c0.8-0.7,1.2-1.6,1.2-2.6c0-1.1-0.4-2-1.3-2.7s-2-1.1-3.3-1.1c-1.1,0-1.9,0.1-2.3,0.3V6.9z"/>
	</g>
	<g>
		<path class="st2" d="M3.8,11.6c0-1.6,0.6-2.9,1.8-4C6.7,6.5,8.2,6,9.9,6c1.7,0,3.1,0.5,4.3,1.6s1.7,2.4,1.7,4
			c0,1.8-0.8,3.3-2.5,4.5c1.9,1.1,2.8,2.7,2.8,4.8c0,1.7-0.6,3-1.8,4.1c-1.2,1.1-2.7,1.6-4.6,1.6c-1.8,0-3.4-0.6-4.6-1.7
			s-1.9-2.5-1.9-4.1c0-2,1-3.6,2.9-4.7c-0.9-0.7-1.5-1.4-1.8-2.1C4,13.3,3.8,12.5,3.8,11.6z M13.3,21v-0.3c0-0.9-0.3-1.7-1-2.3
			s-1.5-0.9-2.6-0.9c-1,0-1.9,0.3-2.5,0.9c-0.6,0.6-1,1.3-1,2.3c0,0.9,0.3,1.7,1,2.3s1.5,0.9,2.6,0.9c1,0,1.8-0.3,2.5-0.8
			S13.3,21.8,13.3,21z M13,11.7c0-0.9-0.3-1.6-0.9-2.2C11.5,9,10.8,8.7,9.8,8.7C8.9,8.7,8.2,9,7.6,9.5c-0.6,0.6-0.9,1.3-0.9,2.1
			c0,0.8,0.3,1.6,0.9,2.1c0.6,0.6,1.4,0.9,2.3,0.9c0.9,0,1.6-0.3,2.2-0.9C12.7,13.3,13,12.5,13,11.7z"/>
		<path class="st2" d="M24.6,6c1.8,0,3.4,1,4.6,2.9c1.2,1.9,1.8,4.4,1.8,7.4c0,3.1-0.6,5.5-1.8,7.5s-2.8,2.9-4.7,2.9
			c-2,0-3.5-0.9-4.7-2.8S18,19.4,18,16.3c0-3.1,0.6-5.5,1.8-7.5S22.7,6,24.6,6z M24.7,8.7h-0.1c-1.1,0-2,0.7-2.6,2
			c-0.6,1.4-1,3.2-1,5.5c0,2.4,0.3,4.3,1,5.6c0.6,1.4,1.5,2,2.6,2c1.1,0,2-0.7,2.6-2c0.6-1.4,1-3.2,1-5.5c0-2.3-0.3-4.2-0.9-5.6
			C26.5,9.4,25.7,8.7,24.7,8.7z"/>
		<path class="st2" d="M37.9,6.2h2.9v20.1h-2.9V6.2z"/>
		<path class="st2" d="M47.8,18.4H55v2.8h-7.2V18.4z"/>
		<path class="st2" d="M62.3,23.6h7.7v2.8H57.2v-0.2l1.2-1.4c1.9-2.3,3.4-4.3,4.5-6c1.1-1.6,1.8-2.9,2.2-3.7s0.5-1.7,0.5-2.5
			c0-1.1-0.3-2-1-2.7c-0.6-0.7-1.5-1-2.6-1c-0.8,0-1.6,0.2-2.4,0.7s-1.5,1.1-2.1,2V7.9C59.2,6.6,60.8,6,62.5,6
			c1.8,0,3.2,0.6,4.3,1.8c1.1,1.2,1.7,2.7,1.7,4.5c0,0.8-0.1,1.7-0.4,2.6s-0.8,2-1.5,3.2s-1.9,2.8-3.7,4.9L62.3,23.6z"/>
		<path class="st2" d="M73.9,6.2h8.9v2.6h-6.3v5.1c0.2,0,0.4,0,0.6,0c2,0,3.6,0.6,4.8,1.8c1.3,1.2,1.9,2.7,1.9,4.5
			c0,1.9-0.6,3.4-1.9,4.6s-2.9,1.8-4.8,1.8c-1.6,0-3.2-0.4-4.8-1.2v-3c1.5,0.9,2.9,1.4,4.3,1.4c1.2,0,2.2-0.4,3-1.1
			c0.8-0.7,1.2-1.6,1.2-2.6c0-1.1-0.4-2-1.3-2.7c-0.9-0.7-2-1.1-3.3-1.1c-1.1,0-1.9,0.1-2.3,0.3V6.2z"/>
		<path class="st2" d="M96.2,6h1.2v11.3h2.2v2.5h-2.2v6.6h-2.8v-6.6H86v-1.2L96.2,6z M94.6,17.3v-5.8l-4.7,5.8H94.6z"/>
		<path class="st2" d="M101.7,18.4h7.2v2.8h-7.2V18.4z"/>
		<path class="st2" d="M117.5,6c1.8,0,3.4,1,4.6,2.9c1.2,1.9,1.8,4.4,1.8,7.4c0,3.1-0.6,5.5-1.8,7.5s-2.8,2.9-4.7,2.9
			c-2,0-3.5-0.9-4.7-2.8s-1.8-4.4-1.8-7.5c0-3.1,0.6-5.5,1.8-7.5S115.6,6,117.5,6z M117.5,8.7h-0.1c-1.1,0-2,0.7-2.6,2
			c-0.6,1.4-1,3.2-1,5.5c0,2.4,0.3,4.3,1,5.6c0.6,1.4,1.5,2,2.6,2c1.1,0,2-0.7,2.6-2c0.6-1.4,1-3.2,1-5.5c0-2.3-0.3-4.2-0.9-5.6
			C119.4,9.4,118.6,8.7,117.5,8.7z"/>
		<path class="st2" d="M135.3,6h1.2v11.3h2.2v2.5h-2.2v6.6h-2.8v-6.6h-8.5v-1.2L135.3,6z M133.6,17.3v-5.8l-4.7,5.8H133.6z"/>
		<path class="st2" d="M147,6c1.8,0,3.4,1,4.6,2.9c1.2,1.9,1.8,4.4,1.8,7.4c0,3.1-0.6,5.5-1.8,7.5s-2.8,2.9-4.7,2.9
			c-2,0-3.5-0.9-4.7-2.8s-1.8-4.4-1.8-7.5c0-3.1,0.6-5.5,1.8-7.5S145.1,6,147,6z M147.1,8.7h-0.1c-1.1,0-2,0.7-2.6,2
			c-0.6,1.4-1,3.2-1,5.5c0,2.4,0.3,4.3,1,5.6c0.6,1.4,1.5,2,2.6,2c1.1,0,2-0.7,2.6-2c0.6-1.4,1-3.2,1-5.5c0-2.3-0.3-4.2-0.9-5.6
			C148.9,9.4,148.1,8.7,147.1,8.7z"/>
		<path class="st2" d="M157.3,6.2h8.9v2.6h-6.3v5.1c0.2,0,0.4,0,0.6,0c2,0,3.6,0.6,4.8,1.8c1.3,1.2,1.9,2.7,1.9,4.5
			c0,1.9-0.6,3.4-1.9,4.6s-2.9,1.8-4.8,1.8c-1.6,0-3.2-0.4-4.8-1.2v-3c1.5,0.9,2.9,1.4,4.3,1.4c1.2,0,2.2-0.4,3-1.1
			c0.8-0.7,1.2-1.6,1.2-2.6c0-1.1-0.4-2-1.3-2.7c-0.9-0.7-2-1.1-3.3-1.1c-1.1,0-1.9,0.1-2.3,0.3V6.2z"/>
	</g>
</g>
</svg>
