<?xml version="1.0" encoding="utf-8"?>
<!-- Generator: Adobe Illustrator 21.0.2, SVG Export Plug-In . SVG Version: 6.00 Build 0)  -->
<svg version="1.1" id="Layer_1" xmlns="http://www.w3.org/2000/svg" xmlns:xlink="http://www.w3.org/1999/xlink" x="0px" y="0px"
	 viewBox="0 0 27 27.1" style="enable-background:new 0 0 27 27.1;" xml:space="preserve">
<style type="text/css">
	.st0{fill:none;enable-background:new    ;}
	.st1{fill:#575251;}
</style>
<path class="st0" d="z"/>
<g>
	<g>
		<path class="st1" d="M24.4,27.1c-7.3,0-14.5,0-21.8,0C2.5,27,2.4,27,2.4,27c-1.2-0.3-2-1.1-2.3-2.3c0-0.1,0-0.1-0.1-0.2
			c0-7.3,0-14.6,0-21.9C0,2.5,0,2.4,0,2.4c0.3-1.2,1.1-2,2.4-2.3c0.1,0,0.1,0,0.2-0.1c7.3,0,14.5,0,21.8,0c0,0,0,0,0.1,0
			c1.4,0.2,2.2,1,2.6,2.3c0,0.1,0,0.2,0.1,0.3c0,7.3,0,14.6,0,21.9C27,24.6,27,24.7,27,24.7c-0.3,1.2-1.1,2-2.3,2.3
			C24.5,27.1,24.4,27,24.4,27.1z M3.1,11.5c0,0.1,0,0.2,0,0.3c0,3.7,0,7.3,0,11c0,0.8,0.4,1.2,1.2,1.2c6.1,0,12.3,0,18.4,0
			c0.8,0,1.2-0.4,1.2-1.2c0-3.7,0-7.3,0-11c0-0.1,0-0.2,0-0.3c-0.8,0-1.5,0-2.3,0c0.6,2.6,0.2,5-1.5,7.1c-1.6,2.1-3.8,3.2-6.5,3.3
			c-2.3,0-4.4-0.8-6-2.4c-2.2-2.2-2.9-4.9-2.2-8C4.6,11.5,3.9,11.5,3.1,11.5z M13.5,8.3c-2.9,0-5.2,2.3-5.2,5.2
			c0,2.9,2.3,5.2,5.2,5.2c2.9,0,5.2-2.3,5.2-5.2C18.7,10.7,16.4,8.3,13.5,8.3z M21.3,3.1c-0.5,0-1,0-1.5,0c-0.7,0-1.1,0.4-1.1,1.1
			c0,1,0,2,0,3c0,0.7,0.4,1.1,1.1,1.1c1,0,2,0,3,0c0.7,0,1.1-0.4,1.1-1.1c0-1,0-2,0-3c0-0.7-0.4-1.1-1.1-1.1
			C22.3,3.1,21.8,3.1,21.3,3.1z"/>
	</g>
</g>
</svg>
