<?xml version="1.0" encoding="utf-8"?>
<!-- Generator: Adobe Illustrator 21.0.2, SVG Export Plug-In . SVG Version: 6.00 Build 0)  -->
<svg version="1.1" id="Layer_1" xmlns="http://www.w3.org/2000/svg" xmlns:xlink="http://www.w3.org/1999/xlink" x="0px" y="0px"
	 viewBox="0 0 28 28" style="enable-background:new 0 0 28 28;" xml:space="preserve">
<style type="text/css">
	.st0{fill:none;enable-background:new    ;}
	.st1{fill:#575251;}
</style>
<path class="st0" d="z"/>
<g>
	<path class="st1" d="M26.5,0H1.5C0.7,0,0,0.7,0,1.5v24.9C0,27.3,0.7,28,1.5,28H15V17.2h-3.7v-4.2H15V9.8c0-3.6,2.2-5.6,5.4-5.6
		c1.5,0,2.9,0.1,3.3,0.2v3.8h-2.2c-1.8,0-2.1,0.8-2.1,2.1v2.7h4.2L23,17.2h-3.6V28h7.1c0.9,0,1.5-0.7,1.5-1.5V1.5
		C28,0.7,27.3,0,26.5,0z"/>
</g>
</svg>
