<?xml version="1.0" encoding="utf-8"?>
<!-- Generator: Adobe Illustrator 21.0.2, SVG Export Plug-In . SVG Version: 6.00 Build 0)  -->
<svg version="1.1" id="Layer_1" xmlns="http://www.w3.org/2000/svg" xmlns:xlink="http://www.w3.org/1999/xlink" x="0px" y="0px"
	 viewBox="0 0 29 23.3" style="enable-background:new 0 0 29 23.3;" xml:space="preserve">
<style type="text/css">
	.st0{fill:none;enable-background:new    ;}
	.st1{fill:#575251;}
</style>
<path class="st0" d="z"/>
<path class="st1" d="M28.8,2.8c-1.1,0.5-2.2,0.8-3.4,0.9c1.2-0.7,2.1-1.9,2.6-3.3c-1.1,0.7-2.4,1.2-3.7,1.4C23.2,0.7,21.7,0,20,0
	c-3.3,0-5.9,2.6-5.9,5.9c0,0.5,0.1,0.9,0.2,1.3C9.4,7,5.1,4.6,2.1,1.1C1.6,1.9,1.4,3,1.4,4c0,2,1,3.8,2.6,4.9c-1,0-1.9-0.3-2.7-0.7
	c0,0,0,0,0,0.1c0,2.9,2,5.2,4.7,5.8c-0.5,0.1-1,0.2-1.6,0.2c-0.4,0-0.7,0-1.1-0.1c0.7,2.3,2.9,4,5.5,4.1c-2,1.6-4.6,2.5-7.3,2.5
	c-0.5,0-0.9,0-1.4-0.1c2.6,1.7,5.7,2.6,9,2.6c10.8,0,16.8-9,16.8-16.8c0-0.3,0-0.5,0-0.8C27.1,5,28.1,3.9,28.8,2.8z"/>
</svg>
