<?xml version="1.0" encoding="utf-8"?>
<!-- Generator: Adobe Illustrator 21.0.2, SVG Export Plug-In . SVG Version: 6.00 Build 0)  -->
<svg version="1.1" id="Layer_1" xmlns="http://www.w3.org/2000/svg" xmlns:xlink="http://www.w3.org/1999/xlink" x="0px" y="0px"
	 viewBox="0 0 196 42" style="enable-background:new 0 0 196 42;" xml:space="preserve">
<style type="text/css">
	.st0{fill:none;enable-background:new    ;}
	.st1{fill:#575251;}
	.st2{fill:#39B54A;}
</style>
<path class="st0" d="z"/>
<g>
	<g>
		<g>
			<path class="st1" d="M18.1,0.5L29.4,26h-5.2l-2.6-6.2H10.2L7.7,26H2.6L13.1,0.5H18.1z M11.7,16.1h8.2L15.6,6L11.7,16.1z"/>
			<path class="st1" d="M41.8,0.5c2.3,0,4.2,0.6,5.7,1.8c1.5,1.2,2.2,2.7,2.2,4.6c0,1.2-0.3,2.2-0.9,3.1c-0.6,0.9-1.5,1.6-2.7,2.1
				v0.2c1.8,0.4,3.2,1.2,4.2,2.4c1,1.2,1.5,2.6,1.5,4.2c0,1.4-0.4,2.7-1.1,3.8c-0.7,1.1-1.7,2-3,2.5c-1.3,0.6-2.8,0.8-4.5,0.8H32.4
				V0.5H41.8z M40.4,11.1c1.3,0,2.3-0.3,3.1-0.9c0.8-0.6,1.1-1.5,1.1-2.6c0-1-0.3-1.8-1-2.3c-0.7-0.6-1.6-0.9-2.7-0.9h-3.5v6.7H40.4
				z M41.6,22.2c1.7,0,2.9-0.3,3.8-0.9c0.9-0.6,1.3-1.6,1.3-2.8c0-1.1-0.4-1.9-1.3-2.6c-0.8-0.6-2-0.9-3.4-0.9h-4.6v7.2H41.6z"/>
			<path class="st1" d="M69,0.2c2.6,0,5,0.5,7.1,1.6c2.1,1.1,3.8,2.7,5.1,4.7c1.3,2.1,1.9,4.3,1.9,6.8c0,2.4-0.6,4.6-1.8,6.6
				c-1.2,2-2.9,3.6-5,4.8s-4.5,1.7-7.2,1.7c-2.6,0-5-0.6-7.2-1.7c-2.2-1.1-3.8-2.7-5.1-4.7c-1.2-2-1.8-4.2-1.8-6.6
				c0-2.3,0.6-4.5,1.8-6.6c1.2-2.1,2.9-3.7,5-4.8C63.8,0.8,66.2,0.2,69,0.2z M60,13.3c0,1.7,0.4,3.2,1.2,4.6
				c0.8,1.4,1.8,2.4,3.2,3.1s2.9,1.1,4.7,1.1c2.6,0,4.8-0.8,6.5-2.5c1.7-1.6,2.5-3.8,2.5-6.4c0-1.7-0.4-3.2-1.1-4.6
				c-0.8-1.4-1.8-2.4-3.2-3.2s-2.9-1.1-4.7-1.1c-1.7,0-3.3,0.4-4.7,1.1c-1.4,0.7-2.4,1.8-3.2,3.1C60.3,10.1,60,11.6,60,13.3z"/>
			<path class="st1" d="M92.4,0.5v14.9c0,1.5,0.2,2.7,0.7,3.6c0.5,0.9,1.2,1.6,2.2,2.2c1,0.6,2.2,0.9,3.6,0.9c1.5,0,2.8-0.3,3.8-0.8
				c1.1-0.6,1.8-1.3,2.3-2.3c0.5-1,0.7-2.3,0.7-4V0.5h4.9v15.2c0,3.4-1,6.1-3.1,7.9c-2.1,1.8-5,2.8-8.7,2.8c-2.4,0-4.4-0.4-6.2-1.3
				c-1.7-0.8-3.1-2.1-4-3.6c-0.9-1.6-1.4-3.5-1.4-5.6V0.5H92.4z"/>
			<path class="st1" d="M137.4,0.5v3.9h-9.1V26h-4.9V4.4h-9.1V0.5H137.4z"/>
			<path class="st1" d="M156.3,0.5v14.9c0,1.5,0.2,2.7,0.7,3.6c0.5,0.9,1.2,1.6,2.2,2.2c1,0.6,2.2,0.9,3.6,0.9
				c1.5,0,2.8-0.3,3.8-0.8c1.1-0.6,1.8-1.3,2.3-2.3c0.5-1,0.7-2.3,0.7-4V0.5h4.9v15.2c0,3.4-1,6.1-3.1,7.9c-2.1,1.8-5,2.8-8.7,2.8
				c-2.4,0-4.4-0.4-6.2-1.3c-1.7-0.8-3.1-2.1-4-3.6c-0.9-1.6-1.4-3.5-1.4-5.6V0.5H156.3z"/>
			<path class="st1" d="M187.5,0.2c2.5,0,4.9,0.6,7.2,1.9v4.4c-2.6-1.6-5-2.4-7-2.4c-1.2,0-2.2,0.2-2.9,0.7
				c-0.7,0.5-1.1,1.1-1.1,1.9c0,1,0.7,1.9,2,2.7c0.4,0.2,1.8,0.9,4.2,2c2.1,1,3.6,2.1,4.5,3.3c0.9,1.2,1.4,2.7,1.4,4.3
				c0,2.2-0.8,4-2.4,5.3c-1.6,1.3-3.6,2-6.1,2c-1.6,0-3-0.2-4.2-0.5c-1.2-0.4-2.5-1-4-1.9v-4.9c2.7,2.3,5.3,3.4,7.7,3.4
				c1.2,0,2.2-0.3,2.9-0.8c0.7-0.5,1.1-1.2,1.1-2.1c0-1.2-0.6-2.1-1.9-2.9c-1.1-0.6-2.5-1.3-4.1-2.1c-2-0.9-3.5-2-4.5-3.2
				c-1-1.2-1.5-2.6-1.5-4.2c0-2.1,0.8-3.9,2.4-5.1C182.8,0.8,184.9,0.2,187.5,0.2z"/>
		</g>
	</g>
	<rect x="-0.2" y="38.4" class="st2" width="196.5" height="3.4"/>
</g>
</svg>
