<?xml version="1.0" encoding="utf-8"?>
<!-- Generator: Adobe Illustrator 21.0.2, SVG Export Plug-In . SVG Version: 6.00 Build 0)  -->
<svg version="1.1" id="Layer_1" xmlns="http://www.w3.org/2000/svg" xmlns:xlink="http://www.w3.org/1999/xlink" x="0px" y="0px"
	 viewBox="0 0 216 88.2" style="enable-background:new 0 0 216 88.2;" xml:space="preserve">
<style type="text/css">
	.st0{fill:none;enable-background:new    ;}
	.st1{fill:#006838;}
	.st2{fill:none;stroke:#FFFFFF;stroke-miterlimit:10;}
	.st3{fill:url(#SVGID_1_);}
	.st4{fill:#FFFFFF;}
</style>
<path class="st0" d="z"/>
<g>
	<path class="st1" d="M195.8,0H20.2C9,0,0,9,0,20.2v32.5c0,11.2,9,20.2,20.2,20.2h72.5L108,88.2l15.3-15.3h72.5
		c11.2,0,20.2-9,20.2-20.2V20.2C216,9,207,0,195.8,0z"/>
	<path class="st2" d="M20.2,63.9C14,63.9,9,58.9,9,52.7V20.2C9,14,14,9,20.2,9h175.6C202,9,207,14,207,20.2v32.5
		c0,6.2-5,11.2-11.2,11.2H20.2z"/>
	<linearGradient id="SVGID_1_" gradientUnits="userSpaceOnUse" x1="108" y1="-9.1162" x2="108" y2="32.8838">
		<stop  offset="0" style="stop-color:#FFFFFF;stop-opacity:0.6"/>
		<stop  offset="1" style="stop-color:#FFFFFF;stop-opacity:0"/>
	</linearGradient>
	<path class="st3" d="M20.2,54.9C14,54.9,9,49.9,9,43.7V11.2C9,5,14,0,20.2,0h175.6C202,0,207,5,207,11.2v32.5
		c0,6.2-5,11.2-11.2,11.2H20.2z"/>
	<g>
		<path class="st4" d="M68.2,18.2c-0.5-0.4-1.1-0.6-1.7-0.8c-0.6-0.2-1.2-0.3-1.8-0.3c-0.8,0-1.4,0.2-1.9,0.6
			c-0.5,0.4-0.7,0.9-0.7,1.6c0,0.3,0.1,0.6,0.2,0.8c0.1,0.3,0.4,0.5,0.7,0.8s0.8,0.6,1.4,1.1c0.4,0.3,0.8,0.6,1.2,0.9
			s0.8,0.7,1.1,1.1c0.3,0.4,0.6,0.8,0.8,1.3s0.3,1,0.3,1.7c0,0.9-0.2,1.7-0.7,2.4c-0.4,0.7-1,1.3-1.8,1.7c-0.8,0.4-1.7,0.6-2.7,0.6
			c-1.7,0-3.3-0.4-4.7-1.3l0.4-2.6c0.8,0.6,1.6,1,2.3,1.2c0.7,0.3,1.4,0.4,2,0.4c0.4,0,0.8-0.1,1.2-0.2c0.4-0.2,0.7-0.4,0.9-0.7
			s0.3-0.7,0.3-1.1c0-0.3-0.1-0.6-0.2-0.9c-0.1-0.3-0.3-0.5-0.6-0.8c-0.2-0.2-0.5-0.5-0.8-0.7s-0.6-0.5-1-0.7
			c-0.9-0.7-1.6-1.2-2-1.7c-0.4-0.4-0.7-0.9-0.9-1.4c-0.2-0.5-0.3-1.1-0.3-1.7c0-0.9,0.2-1.7,0.7-2.4c0.5-0.7,1.2-1.3,2-1.7
			c0.9-0.4,1.8-0.6,2.8-0.6c0.6,0,1.3,0.1,2,0.3s1.3,0.4,1.8,0.7L68.2,18.2z"/>
		<path class="st4" d="M86.2,14.9l-1.4,10.3c-0.3,2.1-1.1,3.7-2.3,4.8c-1.2,1.1-2.9,1.7-4.9,1.7c-1.3,0-2.4-0.2-3.4-0.7
			s-1.7-1-2.2-1.8c-0.5-0.8-0.8-1.7-0.8-2.8c0-0.1,0-0.3,0-0.4s0-0.3,0-0.4c0-0.1,0-0.5,0.1-1l1.4-9.7h2.8l-1.4,9.6
			c-0.1,0.7-0.1,1.2-0.1,1.8c0,0.6,0.2,1.2,0.5,1.6s0.7,0.8,1.3,1s1.2,0.3,1.9,0.3c1.3,0,2.3-0.4,3-1.1c0.7-0.8,1.2-1.9,1.4-3.4
			l1.4-9.7H86.2z"/>
		<path class="st4" d="M106.6,31.4h-2.7l-0.2-11.9h0l-6.4,11.9h-0.8l-2.9-12.1h0l-3.9,12.1h-2.8l5.4-16.5h2.8l2.6,10.8l5.8-10.8h2.9
			L106.6,31.4z"/>
		<path class="st4" d="M128.3,31.4h-2.7l-0.2-11.9h0l-6.4,11.9h-0.8l-2.9-12.1h0l-3.9,12.1h-2.8l5.4-16.5h2.8l2.6,10.8l5.8-10.8h2.9
			L128.3,31.4z"/>
		<path class="st4" d="M143.2,14.9l-0.3,2.3h-6.7l-0.7,4.6h5.9l-0.3,2.3h-5.9l-0.7,4.9h8.4l-0.3,2.3h-11.2l2.3-16.5H143.2z"/>
		<path class="st4" d="M157.9,31.4h-3l-1.8-3.7c-0.5-1-0.9-1.7-1.1-2.1s-0.4-0.6-0.7-0.8c-0.2-0.2-0.4-0.3-0.7-0.4
			c-0.3-0.1-0.6-0.1-1-0.1h-0.8l-1,7H145l2.3-16.5h4.2c1,0,1.9,0.1,2.6,0.4c0.7,0.3,1.3,0.6,1.7,1c0.4,0.4,0.8,0.9,1,1.5
			c0.2,0.6,0.3,1.1,0.3,1.7c0,1-0.3,1.9-1,2.7c-0.7,0.8-1.5,1.3-2.7,1.5v0.1c0.3,0.2,0.6,0.4,0.9,0.8c0.2,0.3,0.5,0.7,0.6,1.1
			L157.9,31.4z M154.2,19.5c0-0.7-0.2-1.3-0.7-1.7c-0.5-0.4-1.2-0.6-2.1-0.6h-1.5l-0.7,4.9h1.4c0.8,0,1.4-0.1,2-0.3s1-0.5,1.2-0.9
			C154.1,20.5,154.2,20,154.2,19.5z"/>
		<path class="st4" d="M48.1,39.3l-0.3,2.4h-5l-2,14.1h-2.8l2-14.1H35l0.3-2.4H48.1z"/>
		<path class="st4" d="M61.3,55.8h-3l-1.8-3.7c-0.5-1-0.9-1.7-1.1-2.1c-0.2-0.4-0.4-0.6-0.7-0.8c-0.2-0.2-0.4-0.3-0.7-0.4
			c-0.3-0.1-0.6-0.1-1-0.1h-0.8l-1,7h-2.8l2.3-16.5H55c1,0,1.9,0.1,2.6,0.4c0.7,0.3,1.3,0.6,1.7,1s0.8,0.9,1,1.5
			c0.2,0.6,0.3,1.1,0.3,1.7c0,1-0.3,1.9-1,2.7c-0.7,0.8-1.5,1.3-2.7,1.5v0.1c0.3,0.2,0.6,0.4,0.9,0.8s0.5,0.7,0.6,1.1L61.3,55.8z
			 M57.6,43.8c0-0.7-0.2-1.3-0.7-1.7c-0.5-0.4-1.2-0.6-2.1-0.6h-1.5l-0.7,4.9H54c0.8,0,1.4-0.1,2-0.3s1-0.5,1.2-0.9
			C57.5,44.8,57.6,44.4,57.6,43.8z"/>
		<path class="st4" d="M75.3,39.3L75,41.6h-6.7l-0.7,4.6h5.9l-0.3,2.3h-5.9l-0.7,4.9H75l-0.3,2.3H63.5l2.3-16.5H75.3z"/>
		<path class="st4" d="M88.6,55.8h-2.7l-0.8-4.5h-5.2L78,55.8h-3l7.6-16.7h2.8L88.6,55.8z M84.8,49.3l-1.1-7h-0.1l-2.9,7H84.8z"/>
		<path class="st4" d="M104.2,39.3l-0.3,2.4h-5l-2,14.1h-2.8l2-14.1h-4.9l0.3-2.4H104.2z"/>
		<path class="st4" d="M123.2,55.8h-2.7l-0.2-11.9h0l-6.4,11.9H113l-2.9-12.1h0l-3.9,12.1h-2.8l5.4-16.5h2.8l2.6,10.8l5.8-10.8h2.9
			L123.2,55.8z"/>
		<path class="st4" d="M138.1,39.3l-0.3,2.3h-6.7l-0.7,4.6h5.9l-0.3,2.3h-5.9l-0.7,4.9h8.4l-0.3,2.3h-11.2l2.3-16.5H138.1z"/>
		<path class="st4" d="M156.3,39.3L154,55.8h-2.2l-7.6-11.7h0l-1.6,11.7h-2.7l2.3-16.5h2.2l7.6,11.5h0l1.6-11.5H156.3z"/>
		<path class="st4" d="M171.3,39.3l-0.3,2.4h-5l-2,14.1h-2.8l2-14.1h-4.9l0.3-2.4H171.3z"/>
		<path class="st4" d="M181.3,42.5c-0.5-0.4-1.1-0.6-1.7-0.8s-1.2-0.3-1.8-0.3c-0.8,0-1.4,0.2-1.9,0.6c-0.5,0.4-0.7,0.9-0.7,1.6
			c0,0.3,0.1,0.6,0.2,0.8c0.2,0.3,0.4,0.5,0.7,0.8c0.3,0.3,0.8,0.6,1.4,1.1c0.4,0.3,0.8,0.6,1.2,0.9s0.8,0.7,1.1,1.1
			c0.3,0.4,0.6,0.8,0.8,1.3s0.3,1,0.3,1.7c0,0.9-0.2,1.7-0.7,2.4c-0.4,0.7-1,1.3-1.8,1.7c-0.8,0.4-1.7,0.6-2.7,0.6
			c-1.7,0-3.3-0.4-4.7-1.3l0.4-2.6c0.8,0.6,1.6,1,2.3,1.2c0.7,0.3,1.4,0.4,2,0.4c0.4,0,0.8-0.1,1.2-0.2c0.4-0.2,0.7-0.4,0.9-0.7
			s0.3-0.7,0.3-1.1c0-0.3-0.1-0.6-0.2-0.9c-0.1-0.3-0.3-0.5-0.6-0.8c-0.2-0.2-0.5-0.5-0.8-0.7s-0.6-0.5-1-0.7
			c-0.9-0.7-1.6-1.2-2-1.7c-0.4-0.4-0.7-0.9-0.9-1.4c-0.2-0.5-0.3-1.1-0.3-1.7c0-0.9,0.2-1.7,0.7-2.4c0.5-0.7,1.2-1.3,2-1.7
			c0.9-0.4,1.8-0.6,2.8-0.6c0.6,0,1.3,0.1,2,0.3c0.7,0.2,1.3,0.4,1.8,0.7L181.3,42.5z"/>
	</g>
</g>
</svg>
